{"asset":{"version":"2.0","generator":"Blockbench 5.0.1 glTF exporter"},"scenes":[{"nodes":[26,30],"name":"blockbench_export"}],"scene":0,"nodes":[{"mesh":1},{"translation":[0.375,-0.125,-0.1875],"name":"cylinder","mesh":0,"children":[0]},{"mesh":3},{"translation":[-0.375,-0.125,-0.1875],"name":"cylinder","mesh":2,"children":[2]},{"mesh":5},{"rotation":[0.374606593415912,0,0,0.9271838545667874],"translation":[-0.375,0.29375,-0.153125],"name":"cylinder","mesh":4,"children":[4]},{"mesh":7},{"rotation":[0.374606593415912,0,0,0.9271838545667874],"translation":[0.375,0.29375,-0.153125],"name":"cylinder","mesh":6,"children":[6]},{"mesh":9},{"rotation":[0.7071067811865475,0,0,0.7071067811865476],"translation":[-0.375,0.328125,0.25],"name":"cylinder","mesh":8,"children":[8]},{"mesh":11},{"rotation":[0,0,0.7071067811865475,0.7071067811865476],"translation":[0,0.325,0.11875],"name":"cylinder","mesh":10,"children":[10]},{"mesh":13},{"rotation":[0,0,0.7071067811865475,0.7071067811865476],"translation":[0,0.325,-0.11875],"name":"cylinder","mesh":12,"children":[12]},{"mesh":15},{"rotation":[0,0,0.7071067811865475,0.7071067811865476],"translation":[0,0.25625,-0.1875],"name":"cylinder","mesh":14,"children":[14]},{"mesh":17},{"translation":[0.01875,-0.125,-0.1875],"name":"cylinder","mesh":16,"children":[16]},{"mesh":19},{"rotation":[0.374606593415912,0,0,0.9271838545667874],"translation":[0.01875,0.29375,-0.153125],"name":"cylinder","mesh":18,"children":[18]},{"mesh":21},{"rotation":[0.7071067811865475,0,0,0.7071067811865476],"translation":[0.01875,0.328125,0.25],"name":"cylinder","mesh":20,"children":[20]},{"mesh":23},{"rotation":[0,0,0.7071067811865475,0.7071067811865476],"translation":[0,0.05625,-0.1875],"name":"cylinder","mesh":22,"children":[22]},{"mesh":25},{"rotation":[0.7071067811865475,0,0,0.7071067811865476],"translation":[0.375,0.328125,0.25],"name":"cylinder","mesh":24,"children":[24]},{"name":"Frame","children":[1,3,5,7,9,11,13,15,17,19,21,23,25]},{"translation":[0,0.0625,-0.125],"name":"cube","mesh":26},{"rotation":[0.3826834323650898,0,0,0.9238795325112867],"translation":[0,0.1875,-0.1875],"name":"cube","mesh":27},{"translation":[0,0.328125,0],"name":"cube","mesh":28},{"name":"bone","children":[27,28,29]}],"bufferViews":[{"buffer":0,"byteOffset":0,"byteLength":1440,"target":34962,"byteStride":12},{"buffer":0,"byteOffset":1440,"byteLength":1440,"target":34962,"byteStride":12},{"buffer":0,"byteOffset":2880,"byteLength":960,"target":34962,"byteStride":8},{"buffer":0,"byteOffset":3840,"byteLength":288,"target":34963},{"buffer":0,"byteOffset":4128,"byteLength":312,"target":34962,"byteStride":12},{"buffer":0,"byteOffset":4440,"byteLength":1440,"target":34962,"byteStride":12},{"buffer":0,"byteOffset":5880,"byteLength":1440,"target":34962,"byteStride":12},{"buffer":0,"byteOffset":7320,"byteLength":960,"target":34962,"byteStride":8},{"buffer":0,"byteOffset":8280,"byteLength":288,"target":34963},{"buffer":0,"byteOffset":8568,"byteLength":312,"target":34962,"byteStride":12},{"buffer":0,"byteOffset":8880,"byteLength":1440,"target":34962,"byteStride":12},{"buffer":0,"byteOffset":10320,"byteLength":1440,"target":34962,"byteStride":12},{"buffer":0,"byteOffset":11760,"byteLength":960,"target":34962,"byteStride":8},{"buffer":0,"byteOffset":12720,"byteLength":288,"target":34963},{"buffer":0,"byteOffset":13008,"byteLength":312,"target":34962,"byteStride":12},{"buffer":0,"byteOffset":13320,"byteLength":1440,"target":34962,"byteStride":12},{"buffer":0,"byteOffset":14760,"byteLength":1440,"target":34962,"byteStride":12},{"buffer":0,"byteOffset":16200,"byteLength":960,"target":34962,"byteStride":8},{"buffer":0,"byteOffset":17160,"byteLength":288,"target":34963},{"buffer":0,"byteOffset":17448,"byteLength":312,"target":34962,"byteStride":12},{"buffer":0,"byteOffset":17760,"byteLength":1440,"target":34962,"byteStride":12},{"buffer":0,"byteOffset":19200,"byteLength":1440,"target":34962,"byteStride":12},{"buffer":0,"byteOffset":20640,"byteLength":960,"target":34962,"byteStride":8},{"buffer":0,"byteOffset":21600,"byteLength":288,"target":34963},{"buffer":0,"byteOffset":21888,"byteLength":312,"target":34962,"byteStride":12},{"buffer":0,"byteOffset":22200,"byteLength":1440,"target":34962,"byteStride":12},{"buffer":0,"byteOffset":23640,"byteLength":1440,"target":34962,"byteStride":12},{"buffer":0,"byteOffset":25080,"byteLength":960,"target":34962,"byteStride":8},{"buffer":0,"byteOffset":26040,"byteLength":288,"target":34963},{"buffer":0,"byteOffset":26328,"byteLength":312,"target":34962,"byteStride":12},{"buffer":0,"byteOffset":26640,"byteLength":1440,"target":34962,"byteStride":12},{"buffer":0,"byteOffset":28080,"byteLength":1440,"target":34962,"byteStride":12},{"buffer":0,"byteOffset":29520,"byteLength":960,"target":34962,"byteStride":8},{"buffer":0,"byteOffset":30480,"byteLength":288,"target":34963},{"buffer":0,"byteOffset":30768,"byteLength":312,"target":34962,"byteStride":12},{"buffer":0,"byteOffset":31080,"byteLength":1440,"target":34962,"byteStride":12},{"buffer":0,"byteOffset":32520,"byteLength":1440,"target":34962,"byteStride":12},{"buffer":0,"byteOffset":33960,"byteLength":960,"target":34962,"byteStride":8},{"buffer":0,"byteOffset":34920,"byteLength":288,"target":34963},{"buffer":0,"byteOffset":35208,"byteLength":312,"target":34962,"byteStride":12},{"buffer":0,"byteOffset":35520,"byteLength":1440,"target":34962,"byteStride":12},{"buffer":0,"byteOffset":36960,"byteLength":1440,"target":34962,"byteStride":12},{"buffer":0,"byteOffset":38400,"byteLength":960,"target":34962,"byteStride":8},{"buffer":0,"byteOffset":39360,"byteLength":288,"target":34963},{"buffer":0,"byteOffset":39648,"byteLength":312,"target":34962,"byteStride":12},{"buffer":0,"byteOffset":39960,"byteLength":1440,"target":34962,"byteStride":12},{"buffer":0,"byteOffset":41400,"byteLength":1440,"target":34962,"byteStride":12},{"buffer":0,"byteOffset":42840,"byteLength":960,"target":34962,"byteStride":8},{"buffer":0,"byteOffset":43800,"byteLength":288,"target":34963},{"buffer":0,"byteOffset":44088,"byteLength":312,"target":34962,"byteStride":12},{"buffer":0,"byteOffset":44400,"byteLength":1440,"target":34962,"byteStride":12},{"buffer":0,"byteOffset":45840,"byteLength":1440,"target":34962,"byteStride":12},{"buffer":0,"byteOffset":47280,"byteLength":960,"target":34962,"byteStride":8},{"buffer":0,"byteOffset":48240,"byteLength":288,"target":34963},{"buffer":0,"byteOffset":48528,"byteLength":312,"target":34962,"byteStride":12},{"buffer":0,"byteOffset":48840,"byteLength":1440,"target":34962,"byteStride":12},{"buffer":0,"byteOffset":50280,"byteLength":1440,"target":34962,"byteStride":12},{"buffer":0,"byteOffset":51720,"byteLength":960,"target":34962,"byteStride":8},{"buffer":0,"byteOffset":52680,"byteLength":288,"target":34963},{"buffer":0,"byteOffset":52968,"byteLength":312,"target":34962,"byteStride":12},{"buffer":0,"byteOffset":53280,"byteLength":1440,"target":34962,"byteStride":12},{"buffer":0,"byteOffset":54720,"byteLength":1440,"target":34962,"byteStride":12},{"buffer":0,"byteOffset":56160,"byteLength":960,"target":34962,"byteStride":8},{"buffer":0,"byteOffset":57120,"byteLength":288,"target":34963},{"buffer":0,"byteOffset":57408,"byteLength":312,"target":34962,"byteStride":12},{"buffer":0,"byteOffset":57720,"byteLength":288,"target":34962,"byteStride":12},{"buffer":0,"byteOffset":58008,"byteLength":288,"target":34962,"byteStride":12},{"buffer":0,"byteOffset":58296,"byteLength":192,"target":34962,"byteStride":8},{"buffer":0,"byteOffset":58488,"byteLength":72,"target":34963},{"buffer":0,"byteOffset":58560,"byteLength":288,"target":34962,"byteStride":12},{"buffer":0,"byteOffset":58848,"byteLength":288,"target":34962,"byteStride":12},{"buffer":0,"byteOffset":59136,"byteLength":192,"target":34962,"byteStride":8},{"buffer":0,"byteOffset":59328,"byteLength":72,"target":34963},{"buffer":0,"byteOffset":59400,"byteLength":288,"target":34962,"byteStride":12},{"buffer":0,"byteOffset":59688,"byteLength":288,"target":34962,"byteStride":12},{"buffer":0,"byteOffset":59976,"byteLength":192,"target":34962,"byteStride":8},{"buffer":0,"byteOffset":60168,"byteLength":72,"target":34963}],"buffers":[{"byteLength":60240,"uri":"data:application/octet-stream;base64,"}],"accessors":[{"bufferView":0,"componentType":5126,"count":120,"max":[0.0062500000931322575,0.38749998807907104,0.0062500000931322575],"min":[-0.0062500000931322575,0.11249999701976776,-0.0062500000931322575],"type":"VEC3"},{"bufferView":1,"componentType":5126,"count":120,"max":[1,1,1],"min":[-1,-1,-1],"type":"VEC3"},{"bufferView":2,"componentType":5126,"count":120,"max":[0.5176381468772888,0.517638087272644],"min":[0,0],"type":"VEC2"},{"bufferView":3,"componentType":5123,"count":144,"max":[119],"min":[0],"type":"SCALAR"},{"bufferView":4,"componentType":5126,"count":26,"max":[0.0062500000931322575,0.38749998807907104,0.0062500000931322575],"min":[-0.0062500000931322575,0.11249999701976776,-0.0062500000931322575],"type":"VEC3"},{"bufferView":5,"componentType":5126,"count":120,"max":[0.0062500000931322575,0.38749998807907104,0.0062500000931322575],"min":[-0.0062500000931322575,0.11249999701976776,-0.0062500000931322575],"type":"VEC3"},{"bufferView":6,"componentType":5126,"count":120,"max":[1,1,1],"min":[-1,-1,-1],"type":"VEC3"},{"bufferView":7,"componentType":5126,"count":120,"max":[0.5176381468772888,0.517638087272644],"min":[0,0],"type":"VEC2"},{"bufferView":8,"componentType":5123,"count":144,"max":[119],"min":[0],"type":"SCALAR"},{"bufferView":9,"componentType":5126,"count":26,"max":[0.0062500000931322575,0.38749998807907104,0.0062500000931322575],"min":[-0.0062500000931322575,0.11249999701976776,-0.0062500000931322575],"type":"VEC3"},{"bufferView":10,"componentType":5126,"count":120,"max":[0.0062500000931322575,0.05000000074505806,0.0062500000931322575],"min":[-0.0062500000931322575,-0.05000000074505806,-0.0062500000931322575],"type":"VEC3"},{"bufferView":11,"componentType":5126,"count":120,"max":[1,1,1],"min":[-1,-1,-1],"type":"VEC3"},{"bufferView":12,"componentType":5126,"count":120,"max":[0.5176381468772888,0.517638087272644],"min":[0,0],"type":"VEC2"},{"bufferView":13,"componentType":5123,"count":144,"max":[119],"min":[0],"type":"SCALAR"},{"bufferView":14,"componentType":5126,"count":26,"max":[0.0062500000931322575,0.05000000074505806,0.0062500000931322575],"min":[-0.0062500000931322575,-0.05000000074505806,-0.0062500000931322575],"type":"VEC3"},{"bufferView":15,"componentType":5126,"count":120,"max":[0.0062500000931322575,0.05000000074505806,0.0062500000931322575],"min":[-0.0062500000931322575,-0.05000000074505806,-0.0062500000931322575],"type":"VEC3"},{"bufferView":16,"componentType":5126,"count":120,"max":[1,1,1],"min":[-1,-1,-1],"type":"VEC3"},{"bufferView":17,"componentType":5126,"count":120,"max":[0.5176381468772888,0.517638087272644],"min":[0,0],"type":"VEC2"},{"bufferView":18,"componentType":5123,"count":144,"max":[119],"min":[0],"type":"SCALAR"},{"bufferView":19,"componentType":5126,"count":26,"max":[0.0062500000931322575,0.05000000074505806,0.0062500000931322575],"min":[-0.0062500000931322575,-0.05000000074505806,-0.0062500000931322575],"type":"VEC3"},{"bufferView":20,"componentType":5126,"count":120,"max":[0.0062500000931322575,0.37187498807907104,0.0062500000931322575],"min":[-0.0062500000931322575,-0.37187498807907104,-0.0062500000931322575],"type":"VEC3"},{"bufferView":21,"componentType":5126,"count":120,"max":[1,1,1],"min":[-1,-1,-1],"type":"VEC3"},{"bufferView":22,"componentType":5126,"count":120,"max":[0.5176381468772888,0.517638087272644],"min":[0,0],"type":"VEC2"},{"bufferView":23,"componentType":5123,"count":144,"max":[119],"min":[0],"type":"SCALAR"},{"bufferView":24,"componentType":5126,"count":26,"max":[0.0062500000931322575,0.37187498807907104,0.0062500000931322575],"min":[-0.0062500000931322575,-0.37187498807907104,-0.0062500000931322575],"type":"VEC3"},{"bufferView":25,"componentType":5126,"count":120,"max":[0.002812500111758709,0.375,0.002812500111758709],"min":[-0.002812500111758709,-0.375,-0.002812500111758709],"type":"VEC3"},{"bufferView":26,"componentType":5126,"count":120,"max":[1,1,1],"min":[-1,-1,-1],"type":"VEC3"},{"bufferView":27,"componentType":5126,"count":120,"max":[0.5176381468772888,0.517638087272644],"min":[0,0],"type":"VEC2"},{"bufferView":28,"componentType":5123,"count":144,"max":[119],"min":[0],"type":"SCALAR"},{"bufferView":29,"componentType":5126,"count":26,"max":[0.002812500111758709,0.375,0.002812500111758709],"min":[-0.002812500111758709,-0.375,-0.002812500111758709],"type":"VEC3"},{"bufferView":30,"componentType":5126,"count":120,"max":[0.002812500111758709,0.375,0.002812500111758709],"min":[-0.002812500111758709,-0.375,-0.002812500111758709],"type":"VEC3"},{"bufferView":31,"componentType":5126,"count":120,"max":[1,1,1],"min":[-1,-1,-1],"type":"VEC3"},{"bufferView":32,"componentType":5126,"count":120,"max":[0.5176381468772888,0.517638087272644],"min":[0,0],"type":"VEC2"},{"bufferView":33,"componentType":5123,"count":144,"max":[119],"min":[0],"type":"SCALAR"},{"bufferView":34,"componentType":5126,"count":26,"max":[0.002812500111758709,0.375,0.002812500111758709],"min":[-0.002812500111758709,-0.375,-0.002812500111758709],"type":"VEC3"},{"bufferView":35,"componentType":5126,"count":120,"max":[0.0062500000931322575,0.375,0.0062500000931322575],"min":[-0.0062500000931322575,-0.375,-0.0062500000931322575],"type":"VEC3"},{"bufferView":36,"componentType":5126,"count":120,"max":[1,1,1],"min":[-1,-1,-1],"type":"VEC3"},{"bufferView":37,"componentType":5126,"count":120,"max":[0.5176381468772888,0.517638087272644],"min":[0,0],"type":"VEC2"},{"bufferView":38,"componentType":5123,"count":144,"max":[119],"min":[0],"type":"SCALAR"},{"bufferView":39,"componentType":5126,"count":26,"max":[0.0062500000931322575,0.375,0.0062500000931322575],"min":[-0.0062500000931322575,-0.375,-0.0062500000931322575],"type":"VEC3"},{"bufferView":40,"componentType":5126,"count":120,"max":[0.0062500000931322575,0.38749998807907104,0.0062500000931322575],"min":[-0.0062500000931322575,0.11249999701976776,-0.0062500000931322575],"type":"VEC3"},{"bufferView":41,"componentType":5126,"count":120,"max":[1,1,1],"min":[-1,-1,-1],"type":"VEC3"},{"bufferView":42,"componentType":5126,"count":120,"max":[0.5176381468772888,0.517638087272644],"min":[0,0],"type":"VEC2"},{"bufferView":43,"componentType":5123,"count":144,"max":[119],"min":[0],"type":"SCALAR"},{"bufferView":44,"componentType":5126,"count":26,"max":[0.0062500000931322575,0.38749998807907104,0.0062500000931322575],"min":[-0.0062500000931322575,0.11249999701976776,-0.0062500000931322575],"type":"VEC3"},{"bufferView":45,"componentType":5126,"count":120,"max":[0.0062500000931322575,0.05000000074505806,0.0062500000931322575],"min":[-0.0062500000931322575,-0.05000000074505806,-0.0062500000931322575],"type":"VEC3"},{"bufferView":46,"componentType":5126,"count":120,"max":[1,1,1],"min":[-1,-1,-1],"type":"VEC3"},{"bufferView":47,"componentType":5126,"count":120,"max":[0.5176381468772888,0.517638087272644],"min":[0,0],"type":"VEC2"},{"bufferView":48,"componentType":5123,"count":144,"max":[119],"min":[0],"type":"SCALAR"},{"bufferView":49,"componentType":5126,"count":26,"max":[0.0062500000931322575,0.05000000074505806,0.0062500000931322575],"min":[-0.0062500000931322575,-0.05000000074505806,-0.0062500000931322575],"type":"VEC3"},{"bufferView":50,"componentType":5126,"count":120,"max":[0.0062500000931322575,0.37187498807907104,0.0062500000931322575],"min":[-0.0062500000931322575,-0.37187498807907104,-0.0062500000931322575],"type":"VEC3"},{"bufferView":51,"componentType":5126,"count":120,"max":[1,1,1],"min":[-1,-1,-1],"type":"VEC3"},{"bufferView":52,"componentType":5126,"count":120,"max":[0.5176381468772888,0.517638087272644],"min":[0,0],"type":"VEC2"},{"bufferView":53,"componentType":5123,"count":144,"max":[119],"min":[0],"type":"SCALAR"},{"bufferView":54,"componentType":5126,"count":26,"max":[0.0062500000931322575,0.37187498807907104,0.0062500000931322575],"min":[-0.0062500000931322575,-0.37187498807907104,-0.0062500000931322575],"type":"VEC3"},{"bufferView":55,"componentType":5126,"count":120,"max":[0.0062500000931322575,0.375,0.0062500000931322575],"min":[-0.0062500000931322575,-0.375,-0.0062500000931322575],"type":"VEC3"},{"bufferView":56,"componentType":5126,"count":120,"max":[1,1,1],"min":[-1,-1,-1],"type":"VEC3"},{"bufferView":57,"componentType":5126,"count":120,"max":[0.5176381468772888,0.517638087272644],"min":[0,0],"type":"VEC2"},{"bufferView":58,"componentType":5123,"count":144,"max":[119],"min":[0],"type":"SCALAR"},{"bufferView":59,"componentType":5126,"count":26,"max":[0.0062500000931322575,0.375,0.0062500000931322575],"min":[-0.0062500000931322575,-0.375,-0.0062500000931322575],"type":"VEC3"},{"bufferView":60,"componentType":5126,"count":120,"max":[0.0062500000931322575,0.37187498807907104,0.0062500000931322575],"min":[-0.0062500000931322575,-0.37187498807907104,-0.0062500000931322575],"type":"VEC3"},{"bufferView":61,"componentType":5126,"count":120,"max":[1,1,1],"min":[-1,-1,-1],"type":"VEC3"},{"bufferView":62,"componentType":5126,"count":120,"max":[0.5176381468772888,0.517638087272644],"min":[0,0],"type":"VEC2"},{"bufferView":63,"componentType":5123,"count":144,"max":[119],"min":[0],"type":"SCALAR"},{"bufferView":64,"componentType":5126,"count":26,"max":[0.0062500000931322575,0.37187498807907104,0.0062500000931322575],"min":[-0.0062500000931322575,-0.37187498807907104,-0.0062500000931322575],"type":"VEC3"},{"bufferView":65,"componentType":5126,"count":24,"max":[0.375,0.19374999403953552,-0.05937499925494194],"min":[-0.375,-0.0625,-0.0625],"type":"VEC3"},{"bufferView":66,"componentType":5126,"count":24,"max":[1,1,1],"min":[-1,-1,-1],"type":"VEC3"},{"bufferView":67,"componentType":5126,"count":24,"max":[0.37890625,0.50390625],"min":[0,0],"type":"VEC2"},{"bufferView":68,"componentType":5123,"count":36,"max":[23],"min":[0],"type":"SCALAR"},{"bufferView":69,"componentType":5126,"count":24,"max":[0.375,0.15625,-0.05937499925494194],"min":[-0.375,0.03125,-0.0625],"type":"VEC3"},{"bufferView":70,"componentType":5126,"count":24,"max":[1,1,1],"min":[-1,-1,-1],"type":"VEC3"},{"bufferView":71,"componentType":5126,"count":24,"max":[0.75,0.484375],"min":[0,0],"type":"VEC2"},{"bufferView":72,"componentType":5123,"count":36,"max":[23],"min":[0],"type":"SCALAR"},{"bufferView":73,"componentType":5126,"count":24,"max":[0.375,0.0031250000465661287,0.609375],"min":[-0.375,0,-0.125],"type":"VEC3"},{"bufferView":74,"componentType":5126,"count":24,"max":[1,1,1],"min":[-1,-1,-1],"type":"VEC3"},{"bufferView":75,"componentType":5126,"count":24,"max":[0.75,0.6328125],"min":[0,0],"type":"VEC2"},{"bufferView":76,"componentType":5123,"count":36,"max":[23],"min":[0],"type":"SCALAR"}],"materials":[{"pbrMetallicRoughness":{"metallicFactor":0,"roughnessFactor":1,"baseColorTexture":{"index":0}},"alphaMode":"MASK","alphaCutoff":0.05,"doubleSided":true},{"pbrMetallicRoughness":{"metallicFactor":0,"roughnessFactor":1}},{"pbrMetallicRoughness":{"metallicFactor":0,"roughnessFactor":1,"baseColorTexture":{"index":1}},"alphaMode":"MASK","alphaCutoff":0.05,"doubleSided":true},{"pbrMetallicRoughness":{"metallicFactor":0,"roughnessFactor":1,"baseColorTexture":{"index":2}},"alphaMode":"MASK","alphaCutoff":0.05,"doubleSided":true},{"pbrMetallicRoughness":{"metallicFactor":0,"roughnessFactor":1,"baseColorTexture":{"index":3}},"alphaMode":"MASK","alphaCutoff":0.05,"doubleSided":true}],"textures":[{"sampler":0,"source":0,"name":"free.png"},{"sampler":1,"source":1,"name":"glass"},{"sampler":2,"source":2,"name":"texture"},{"sampler":3,"source":3,"name":"texture"}],"samplers":[{"magFilter":9728,"minFilter":9728,"wrapS":33071,"wrapT":33071},{"magFilter":9728,"minFilter":9728,"wrapS":33071,"wrapT":33071},{"magFilter":9728,"minFilter":9728,"wrapS":33071,"wrapT":33071},{"magFilter":9728,"minFilter":9728,"wrapS":33071,"wrapT":33071}],"images":[{"mimeType":"image/png","uri":"data:image/png;base64,"},{"mimeType":"image/png","uri":"data:image/png;base64,"},{"mimeType":"image/png","uri":"data:image/png;base64,"},{"mimeType":"image/png","uri":"data:image/png;base64,"}],"meshes":[{"primitives":[{"mode":4,"attributes":{"POSITION":0,"NORMAL":1,"TEXCOORD_0":2},"indices":3,"material":0}]},{"primitives":[{"mode":0,"attributes":{"POSITION":4},"material":1}]},{"primitives":[{"mode":4,"attributes":{"POSITION":5,"NORMAL":6,"TEXCOORD_0":7},"indices":8,"material":0}]},{"primitives":[{"mode":0,"attributes":{"POSITION":9},"material":1}]},{"primitives":[{"mode":4,"attributes":{"POSITION":10,"NORMAL":11,"TEXCOORD_0":12},"indices":13,"material":0}]},{"primitives":[{"mode":0,"attributes":{"POSITION":14},"material":1}]},{"primitives":[{"mode":4,"attributes":{"POSITION":15,"NORMAL":16,"TEXCOORD_0":17},"indices":18,"material":0}]},{"primitives":[{"mode":0,"attributes":{"POSITION":19},"material":1}]},{"primitives":[{"mode":4,"attributes":{"POSITION":20,"NORMAL":21,"TEXCOORD_0":22},"indices":23,"material":0}]},{"primitives":[{"mode":0,"attributes":{"POSITION":24},"material":1}]},{"primitives":[{"mode":4,"attributes":{"POSITION":25,"NORMAL":26,"TEXCOORD_0":27},"indices":28,"material":0}]},{"primitives":[{"mode":0,"attributes":{"POSITION":29},"material":1}]},{"primitives":[{"mode":4,"attributes":{"POSITION":30,"NORMAL":31,"TEXCOORD_0":32},"indices":33,"material":0}]},{"primitives":[{"mode":0,"attributes":{"POSITION":34},"material":1}]},{"primitives":[{"mode":4,"attributes":{"POSITION":35,"NORMAL":36,"TEXCOORD_0":37},"indices":38,"material":0}]},{"primitives":[{"mode":0,"attributes":{"POSITION":39},"material":1}]},{"primitives":[{"mode":4,"attributes":{"POSITION":40,"NORMAL":41,"TEXCOORD_0":42},"indices":43,"material":0}]},{"primitives":[{"mode":0,"attributes":{"POSITION":44},"material":1}]},{"primitives":[{"mode":4,"attributes":{"POSITION":45,"NORMAL":46,"TEXCOORD_0":47},"indices":48,"material":0}]},{"primitives":[{"mode":0,"attributes":{"POSITION":49},"material":1}]},{"primitives":[{"mode":4,"attributes":{"POSITION":50,"NORMAL":51,"TEXCOORD_0":52},"indices":53,"material":0}]},{"primitives":[{"mode":0,"attributes":{"POSITION":54},"material":1}]},{"primitives":[{"mode":4,"attributes":{"POSITION":55,"NORMAL":56,"TEXCOORD_0":57},"indices":58,"material":0}]},{"primitives":[{"mode":0,"attributes":{"POSITION":59},"material":1}]},{"primitives":[{"mode":4,"attributes":{"POSITION":60,"NORMAL":61,"TEXCOORD_0":62},"indices":63,"material":0}]},{"primitives":[{"mode":0,"attributes":{"POSITION":64},"material":1}]},{"primitives":[{"mode":4,"attributes":{"POSITION":65,"NORMAL":66,"TEXCOORD_0":67},"indices":68,"material":2}]},{"primitives":[{"mode":4,"attributes":{"POSITION":69,"NORMAL":70,"TEXCOORD_0":71},"indices":72,"material":3}]},{"primitives":[{"mode":4,"attributes":{"POSITION":73,"NORMAL":74,"TEXCOORD_0":75},"indices":76,"material":4}]}]}