{"asset":{"version":"2.0","generator":"Blockbench 4.12.6 glTF exporter"},"scenes":[{"nodes":[4],"name":"blockbench_export"}],"scene":0,"nodes":[{"name":"cylinder","mesh":0},{"translation":[0,0.375,0],"name":"cube","mesh":1},{"translation":[0,0.4,0.16875],"name":"cone","mesh":2},{"translation":[0,0.40625,0.16875],"name":"sphere","mesh":3},{"children":[0,1,2,3]}],"bufferViews":[{"buffer":0,"byteOffset":0,"byteLength":3600,"target":34962,"byteStride":12},{"buffer":0,"byteOffset":3600,"byteLength":3600,"target":34962,"byteStride":12},{"buffer":0,"byteOffset":7200,"byteLength":2400,"target":34962,"byteStride":8},{"buffer":0,"byteOffset":9600,"byteLength":720,"target":34963},{"buffer":0,"byteOffset":10320,"byteLength":288,"target":34962,"byteStride":12},{"buffer":0,"byteOffset":10608,"byteLength":288,"target":34962,"byteStride":12},{"buffer":0,"byteOffset":10896,"byteLength":192,"target":34962,"byteStride":8},{"buffer":0,"byteOffset":11088,"byteLength":72,"target":34963},{"buffer":0,"byteOffset":11160,"byteLength":2160,"target":34962,"byteStride":12},{"buffer":0,"byteOffset":13320,"byteLength":2160,"target":34962,"byteStride":12},{"buffer":0,"byteOffset":15480,"byteLength":1440,"target":34962,"byteStride":8},{"buffer":0,"byteOffset":16920,"byteLength":360,"target":34963},{"buffer":0,"byteOffset":17280,"byteLength":3168,"target":34962,"byteStride":12},{"buffer":0,"byteOffset":20448,"byteLength":3168,"target":34962,"byteStride":12},{"buffer":0,"byteOffset":23616,"byteLength":2112,"target":34962,"byteStride":8},{"buffer":0,"byteOffset":25728,"byteLength":720,"target":34963}],"buffers":[{"byteLength":26448,"uri":"data:application/octet-stream;base64,"}],"accessors":[{"bufferView":0,"componentType":5126,"count":300,"max":[0.015625,0.5,0.015625],"min":[-0.015625,0,-0.015625],"type":"VEC3"},{"bufferView":1,"componentType":5126,"count":300,"max":[0.9945864677429199,1,1],"min":[-0.9945864677429199,-1,-1],"type":"VEC3"},{"bufferView":2,"componentType":5126,"count":300,"max":[0.2615812420845032,0.53125],"min":[0,0],"type":"VEC2"},{"bufferView":3,"componentType":5123,"count":360,"max":[299],"min":[0],"type":"SCALAR"},{"bufferView":4,"componentType":5126,"count":24,"max":[0.0062500000931322575,0.078125,0.1875],"min":[-0.00937500037252903,0.0625,0],"type":"VEC3"},{"bufferView":5,"componentType":5126,"count":24,"max":[1,1,1],"min":[-1,-1,-1],"type":"VEC3"},{"bufferView":6,"componentType":5126,"count":24,"max":[0.40625,0.625],"min":[0,0],"type":"VEC2"},{"bufferView":7,"componentType":5123,"count":36,"max":[23],"min":[0],"type":"SCALAR"},{"bufferView":8,"componentType":5126,"count":180,"max":[0.04443874955177307,0.05000000074505806,0.04374999925494194],"min":[-0.04443874955177307,0.012500000186264515,-0.04374999925494194],"type":"VEC3"},{"bufferView":9,"componentType":5126,"count":180,"max":[0.6434121131896973,0.7624648213386536,0.6507914066314697],"min":[-0.6434121131896973,-1,-0.6507914066314697],"type":"VEC3"},{"bufferView":10,"componentType":5126,"count":180,"max":[0.576740026473999,0.6159124970436096],"min":[0.0013849999522790313,0],"type":"VEC2"},{"bufferView":11,"componentType":5123,"count":180,"max":[179],"min":[0],"type":"SCALAR"},{"bufferView":12,"componentType":5126,"count":264,"max":[0.012500000186264515,0.012500000186264515,0.012500000186264515],"min":[-0.012500000186264515,-0.012500000186264515,-0.012500000186264515],"type":"VEC3"},{"bufferView":13,"componentType":5126,"count":264,"max":[0.9659377336502075,0.9659391045570374,0.9659377336502075],"min":[-0.9659377336502075,-0.9659391045570374,-0.9659377336502075],"type":"VEC3"},{"bufferView":14,"componentType":5126,"count":264,"max":[0.5442875027656555,0.5435550212860107],"min":[0.002566250041127205,0],"type":"VEC2"},{"bufferView":15,"componentType":5123,"count":360,"max":[263],"min":[0],"type":"SCALAR"}],"materials":[{"pbrMetallicRoughness":{"metallicFactor":0,"roughnessFactor":1,"baseColorTexture":{"index":0}},"alphaMode":"MASK","alphaCutoff":0.05,"doubleSided":true},{"pbrMetallicRoughness":{"metallicFactor":0,"roughnessFactor":1,"baseColorTexture":{"index":1}},"alphaMode":"MASK","alphaCutoff":0.05,"doubleSided":true},{"pbrMetallicRoughness":{"metallicFactor":0,"roughnessFactor":1,"baseColorTexture":{"index":2}},"alphaMode":"MASK","alphaCutoff":0.05,"doubleSided":true},{"pbrMetallicRoughness":{"metallicFactor":0,"roughnessFactor":1,"baseColorTexture":{"index":3}},"alphaMode":"MASK","alphaCutoff":0.05,"doubleSided":true}],"textures":[{"sampler":0,"source":0,"name":"texture"},{"sampler":1,"source":1,"name":"connect"},{"sampler":2,"source":2,"name":"texturecone"},{"sampler":3,"source":3,"name":"light"}],"samplers":[{"magFilter":9728,"minFilter":9728,"wrapS":33071,"wrapT":33071},{"magFilter":9728,"minFilter":9728,"wrapS":33071,"wrapT":33071},{"magFilter":9728,"minFilter":9728,"wrapS":33071,"wrapT":33071},{"magFilter":9728,"minFilter":9728,"wrapS":33071,"wrapT":33071}],"images":[{"mimeType":"image/png","uri":"data:image/png;base64,"},{"mimeType":"image/png","uri":"data:image/png;base64,"},{"mimeType":"image/png","uri":"data:image/png;base64,"},{"mimeType":"image/png","uri":"data:image/png;base64,"}],"meshes":[{"primitives":[{"mode":4,"attributes":{"POSITION":0,"NORMAL":1,"TEXCOORD_0":2},"indices":3,"material":0}]},{"primitives":[{"mode":4,"attributes":{"POSITION":4,"NORMAL":5,"TEXCOORD_0":6},"indices":7,"material":1}]},{"primitives":[{"mode":4,"attributes":{"POSITION":8,"NORMAL":9,"TEXCOORD_0":10},"indices":11,"material":2}]},{"primitives":[{"mode":4,"attributes":{"POSITION":12,"NORMAL":13,"TEXCOORD_0":14},"indices":15,"material":3}]}]}