{"asset":{"version":"2.0","generator":"Blockbench 4.12.6 glTF exporter"},"scenes":[{"nodes":[3],"name":"blockbench_export"}],"scene":0,"nodes":[{"translation":[0,0.16875,0],"name":"sphere","mesh":0},{"translation":[0,0.36875,0],"name":"sphere","mesh":1},{"translation":[0.0625,0.36249999999999993,0],"name":"cube","mesh":2},{"children":[0,1,2]}],"bufferViews":[{"buffer":0,"byteOffset":0,"byteLength":5760,"target":34962,"byteStride":12},{"buffer":0,"byteOffset":5760,"byteLength":5760,"target":34962,"byteStride":12},{"buffer":0,"byteOffset":11520,"byteLength":3840,"target":34962,"byteStride":8},{"buffer":0,"byteOffset":15360,"byteLength":1344,"target":34963},{"buffer":0,"byteOffset":16704,"byteLength":5760,"target":34962,"byteStride":12},{"buffer":0,"byteOffset":22464,"byteLength":5760,"target":34962,"byteStride":12},{"buffer":0,"byteOffset":28224,"byteLength":3840,"target":34962,"byteStride":8},{"buffer":0,"byteOffset":32064,"byteLength":1344,"target":34963},{"buffer":0,"byteOffset":33408,"byteLength":288,"target":34962,"byteStride":12},{"buffer":0,"byteOffset":33696,"byteLength":288,"target":34962,"byteStride":12},{"buffer":0,"byteOffset":33984,"byteLength":192,"target":34962,"byteStride":8},{"buffer":0,"byteOffset":34176,"byteLength":72,"target":34963}],"buffers":[{"byteLength":34248,"uri":"data:application/octet-stream;base64,"}],"accessors":[{"bufferView":0,"componentType":5126,"count":480,"max":[0.26249998807907104,0.19374999403953552,0.20060618221759796],"min":[-0.23328101634979248,-0.19435617327690125,-0.22499999403953552],"type":"VEC3"},{"bufferView":1,"componentType":5126,"count":480,"max":[0.9971513748168945,0.9897770881652832,0.9903367161750793],"min":[-0.9878125190734863,-0.9592283368110657,-0.9909540414810181],"type":"VEC3"},{"bufferView":2,"componentType":5126,"count":480,"max":[0.70703125,0.7376952171325684],"min":[0,0],"type":"VEC2"},{"bufferView":3,"componentType":5123,"count":672,"max":[479],"min":[0],"type":"SCALAR"},{"bufferView":4,"componentType":5126,"count":480,"max":[0.015625,0.015625,0.015625],"min":[-0.015625,-0.015625,-0.015625],"type":"VEC3"},{"bufferView":5,"componentType":5126,"count":480,"max":[0.9807852506637573,0.9807853102684021,0.9807852506637573],"min":[-0.9807852506637573,-0.9807853102684021,-0.9807852506637573],"type":"VEC3"},{"bufferView":6,"componentType":5126,"count":480,"max":[0.6374061703681946,0.6371407508850098],"min":[0,0],"type":"VEC2"},{"bufferView":7,"componentType":5123,"count":672,"max":[479],"min":[0],"type":"SCALAR"},{"bufferView":8,"componentType":5126,"count":24,"max":[-0.062437500804662704,0.08124999701976776,0.0625],"min":[-0.0625,0,-0.0625],"type":"VEC3"},{"bufferView":9,"componentType":5126,"count":24,"max":[1,1,1],"min":[-1,-1,-1],"type":"VEC3"},{"bufferView":10,"componentType":5126,"count":24,"max":[0.5,0.8125],"min":[0,0],"type":"VEC2"},{"bufferView":11,"componentType":5123,"count":36,"max":[23],"min":[0],"type":"SCALAR"}],"materials":[{"pbrMetallicRoughness":{"metallicFactor":0,"roughnessFactor":1,"baseColorTexture":{"index":0}},"alphaMode":"MASK","alphaCutoff":0.05,"doubleSided":true},{"pbrMetallicRoughness":{"metallicFactor":0,"roughnessFactor":1,"baseColorTexture":{"index":1}},"alphaMode":"MASK","alphaCutoff":0.05,"doubleSided":true},{"pbrMetallicRoughness":{"metallicFactor":0,"roughnessFactor":1,"baseColorTexture":{"index":2}},"alphaMode":"MASK","alphaCutoff":0.05,"doubleSided":true}],"textures":[{"sampler":0,"source":0,"name":"main"},{"sampler":1,"source":1,"name":"Ta"},{"sampler":2,"source":2,"name":"123"}],"samplers":[{"magFilter":9728,"minFilter":9728,"wrapS":33071,"wrapT":33071},{"magFilter":9728,"minFilter":9728,"wrapS":33071,"wrapT":33071},{"magFilter":9728,"minFilter":9728,"wrapS":33071,"wrapT":33071}],"images":[{"mimeType":"image/png","uri":"data:image/png;base64,"},{"mimeType":"image/png","uri":"data:image/png;base64,"},{"mimeType":"image/png","uri":"data:image/png;base64,"}],"meshes":[{"primitives":[{"mode":4,"attributes":{"POSITION":0,"NORMAL":1,"TEXCOORD_0":2},"indices":3,"material":0}]},{"primitives":[{"mode":4,"attributes":{"POSITION":4,"NORMAL":5,"TEXCOORD_0":6},"indices":7,"material":1}]},{"primitives":[{"mode":4,"attributes":{"POSITION":8,"NORMAL":9,"TEXCOORD_0":10},"indices":11,"material":2}]}]}