{"asset":{"version":"2.0","generator":"Blockbench 5.0.3 glTF exporter"},"scenes":[{"nodes":[0,1,2],"name":"blockbench_export"}],"scene":0,"nodes":[{"name":"cylinder","mesh":0},{"rotation":[-0.9085003715668494,-0.4148812788652659,0.013834088200558741,0.048054316285607336],"translation":[-0.25,0.125,-0.125],"name":"sphere","mesh":1},{"rotation":[-0.06538759082892742,-0.007012171135070833,0.020657142417830253,0.9976214587150233],"translation":[-0.3125,-0.125,-0.1875],"name":"tube","mesh":2}],"bufferViews":[{"buffer":0,"byteOffset":0,"byteLength":1200,"target":34962,"byteStride":12},{"buffer":0,"byteOffset":1200,"byteLength":1200,"target":34962,"byteStride":12},{"buffer":0,"byteOffset":2400,"byteLength":800,"target":34962,"byteStride":8},{"buffer":0,"byteOffset":3200,"byteLength":240,"target":34963},{"buffer":0,"byteOffset":3440,"byteLength":2160,"target":34962,"byteStride":12},{"buffer":0,"byteOffset":5600,"byteLength":2160,"target":34962,"byteStride":12},{"buffer":0,"byteOffset":7760,"byteLength":1440,"target":34962,"byteStride":8},{"buffer":0,"byteOffset":9200,"byteLength":480,"target":34963},{"buffer":0,"byteOffset":9680,"byteLength":1920,"target":34962,"byteStride":12},{"buffer":0,"byteOffset":11600,"byteLength":1920,"target":34962,"byteStride":12},{"buffer":0,"byteOffset":13520,"byteLength":1280,"target":34962,"byteStride":8},{"buffer":0,"byteOffset":14800,"byteLength":480,"target":34963}],"buffers":[{"byteLength":15280,"uri":"data:application/octet-stream;base64,"}],"accessors":[{"bufferView":0,"componentType":5126,"count":100,"max":[0.17072375118732452,0.5,0.15625],"min":[-0.17072375118732452,0,-0.15625],"type":"VEC3"},{"bufferView":1,"componentType":5126,"count":100,"max":[0.9474503993988037,1,1],"min":[-0.9474503993988037,-1,-1],"type":"VEC3"},{"bufferView":2,"componentType":5126,"count":100,"max":[0.5,0.71875],"min":[0,0],"type":"VEC2"},{"bufferView":3,"componentType":5123,"count":120,"max":[99],"min":[0],"type":"SCALAR"},{"bufferView":4,"componentType":5126,"count":180,"max":[0.15625,0.03125,0.1424843817949295],"min":[-0.15625,-0.03125,-0.1424843817949295],"type":"VEC3"},{"bufferView":5,"componentType":5126,"count":180,"max":[0.9470979571342468,0.9978777170181274,1],"min":[-0.9470979571342468,-0.9978777170181274,-1],"type":"VEC3"},{"bufferView":6,"componentType":5126,"count":180,"max":[0.6630250215530396,0.6652674674987793],"min":[0.0002937499957624823,0],"type":"VEC2"},{"bufferView":7,"componentType":5123,"count":240,"max":[179],"min":[0],"type":"SCALAR"},{"bufferView":8,"componentType":5126,"count":160,"max":[0.008223749697208405,0.26875001192092896,0.0062500000931322575],"min":[-0.008223749697208405,0.23125000298023224,-0.0062500000931322575],"type":"VEC3"},{"bufferView":9,"componentType":5126,"count":160,"max":[0.9264019727706909,1,1],"min":[-0.9264019727706909,-1,-1],"type":"VEC3"},{"bufferView":10,"componentType":5126,"count":160,"max":[0.1827712506055832,0.5],"min":[0,0],"type":"VEC2"},{"bufferView":11,"componentType":5123,"count":240,"max":[159],"min":[0],"type":"SCALAR"}],"materials":[{"pbrMetallicRoughness":{"metallicFactor":0,"roughnessFactor":1,"baseColorTexture":{"index":0}},"alphaMode":"MASK","alphaCutoff":0.05,"doubleSided":true},{"pbrMetallicRoughness":{"metallicFactor":0,"roughnessFactor":1,"baseColorTexture":{"index":1}},"alphaMode":"MASK","alphaCutoff":0.05,"doubleSided":true},{"pbrMetallicRoughness":{"metallicFactor":0,"roughnessFactor":1},"alphaMode":"MASK","alphaCutoff":0.05,"doubleSided":true}],"textures":[{"sampler":0,"source":0,"name":"texture"},{"sampler":1,"source":1,"name":"texture"}],"samplers":[{"magFilter":9728,"minFilter":9728,"wrapS":33071,"wrapT":33071},{"magFilter":9728,"minFilter":9728,"wrapS":33071,"wrapT":33071}],"images":[{"mimeType":"image/png","uri":"data:image/png;base64,"},{"mimeType":"image/png","uri":"data:image/png;base64,"}],"meshes":[{"primitives":[{"mode":4,"attributes":{"POSITION":0,"NORMAL":1,"TEXCOORD_0":2},"indices":3,"material":0}]},{"primitives":[{"mode":4,"attributes":{"POSITION":4,"NORMAL":5,"TEXCOORD_0":6},"indices":7,"material":1}]},{"primitives":[{"mode":4,"attributes":{"POSITION":8,"NORMAL":9,"TEXCOORD_0":10},"indices":11,"material":2}]}]}