{"asset":{"version":"2.0","generator":"Blockbench 5.0.4 glTF exporter"},"scenes":[{"nodes":[22],"name":"blockbench_export"}],"scene":0,"nodes":[{"translation":[-0.21875,0.19375,0.04375],"name":"cube","mesh":0},{"translation":[0.3,0.19375,0.04375],"name":"cube","mesh":1},{"translation":[-0.08125,0.19375,0.24375],"name":"cube","mesh":2},{"translation":[0.1625,0.19375,0.24375],"name":"cube","mesh":3},{"translation":[0.1625,0.19375,-0.15625],"name":"cube","mesh":4},{"translation":[-0.08125,0.19375,-0.15625],"name":"cube","mesh":5},{"translation":[0,-0.1875,0],"name":"group","children":[0,1,2,3,4,5]},{"translation":[0,-0.1875,0],"name":"cylinder","mesh":6},{"translation":[0,0.11875,0],"name":"cylinder","mesh":7},{"translation":[0.027,0.20175,-0.002],"name":"cube","mesh":8},{"rotation":[0,-1,0,6.123233995736766e-17],"translation":[-0.04175,0.20175,0.25425],"name":"cube","mesh":9},{"rotation":[0,-1,0,6.123233995736766e-17],"translation":[-0.04175,0.20175,-0.25825],"name":"cube","mesh":10},{"translation":[0.202,0.20175,-0.1145],"name":"cube","mesh":11},{"translation":[-0.04375,0,0],"name":"cube","mesh":12},{"rotation":[0,-1,0,6.123233995736766e-17],"translation":[0.1125,0,-0.225],"name":"cube","mesh":13},{"rotation":[0,-1,0,6.123233995736766e-17],"translation":[0.1125,0,0.03125],"name":"cube","mesh":14},{"name":"Base","children":[6,7,8,9,10,11,12,13,14,15]},{"translation":[0,-0.03125,0],"name":"tube","mesh":15},{"name":"Wall","children":[17]},{"translation":[0,0.00625,-0.21875],"name":"cube","mesh":16},{"name":"Mirror","children":[19]},{"name":"Special building","children":[16,18,20]},{"name":"Mirror land","children":[21]}],"bufferViews":[{"buffer":0,"byteOffset":0,"byteLength":288,"target":34962,"byteStride":12},{"buffer":0,"byteOffset":288,"byteLength":288,"target":34962,"byteStride":12},{"buffer":0,"byteOffset":576,"byteLength":192,"target":34962,"byteStride":8},{"buffer":0,"byteOffset":768,"byteLength":72,"target":34963},{"buffer":0,"byteOffset":840,"byteLength":288,"target":34962,"byteStride":12},{"buffer":0,"byteOffset":1128,"byteLength":288,"target":34962,"byteStride":12},{"buffer":0,"byteOffset":1416,"byteLength":192,"target":34962,"byteStride":8},{"buffer":0,"byteOffset":1608,"byteLength":72,"target":34963},{"buffer":0,"byteOffset":1680,"byteLength":288,"target":34962,"byteStride":12},{"buffer":0,"byteOffset":1968,"byteLength":288,"target":34962,"byteStride":12},{"buffer":0,"byteOffset":2256,"byteLength":192,"target":34962,"byteStride":8},{"buffer":0,"byteOffset":2448,"byteLength":72,"target":34963},{"buffer":0,"byteOffset":2520,"byteLength":288,"target":34962,"byteStride":12},{"buffer":0,"byteOffset":2808,"byteLength":288,"target":34962,"byteStride":12},{"buffer":0,"byteOffset":3096,"byteLength":192,"target":34962,"byteStride":8},{"buffer":0,"byteOffset":3288,"byteLength":72,"target":34963},{"buffer":0,"byteOffset":3360,"byteLength":288,"target":34962,"byteStride":12},{"buffer":0,"byteOffset":3648,"byteLength":288,"target":34962,"byteStride":12},{"buffer":0,"byteOffset":3936,"byteLength":192,"target":34962,"byteStride":8},{"buffer":0,"byteOffset":4128,"byteLength":72,"target":34963},{"buffer":0,"byteOffset":4200,"byteLength":288,"target":34962,"byteStride":12},{"buffer":0,"byteOffset":4488,"byteLength":288,"target":34962,"byteStride":12},{"buffer":0,"byteOffset":4776,"byteLength":192,"target":34962,"byteStride":8},{"buffer":0,"byteOffset":4968,"byteLength":72,"target":34963},{"buffer":0,"byteOffset":5040,"byteLength":1440,"target":34962,"byteStride":12},{"buffer":0,"byteOffset":6480,"byteLength":1440,"target":34962,"byteStride":12},{"buffer":0,"byteOffset":7920,"byteLength":960,"target":34962,"byteStride":8},{"buffer":0,"byteOffset":8880,"byteLength":288,"target":34963},{"buffer":0,"byteOffset":9168,"byteLength":1440,"target":34962,"byteStride":12},{"buffer":0,"byteOffset":10608,"byteLength":1440,"target":34962,"byteStride":12},{"buffer":0,"byteOffset":12048,"byteLength":960,"target":34962,"byteStride":8},{"buffer":0,"byteOffset":13008,"byteLength":288,"target":34963},{"buffer":0,"byteOffset":13296,"byteLength":288,"target":34962,"byteStride":12},{"buffer":0,"byteOffset":13584,"byteLength":288,"target":34962,"byteStride":12},{"buffer":0,"byteOffset":13872,"byteLength":192,"target":34962,"byteStride":8},{"buffer":0,"byteOffset":14064,"byteLength":72,"target":34963},{"buffer":0,"byteOffset":14136,"byteLength":288,"target":34962,"byteStride":12},{"buffer":0,"byteOffset":14424,"byteLength":288,"target":34962,"byteStride":12},{"buffer":0,"byteOffset":14712,"byteLength":192,"target":34962,"byteStride":8},{"buffer":0,"byteOffset":14904,"byteLength":72,"target":34963},{"buffer":0,"byteOffset":14976,"byteLength":288,"target":34962,"byteStride":12},{"buffer":0,"byteOffset":15264,"byteLength":288,"target":34962,"byteStride":12},{"buffer":0,"byteOffset":15552,"byteLength":192,"target":34962,"byteStride":8},{"buffer":0,"byteOffset":15744,"byteLength":72,"target":34963},{"buffer":0,"byteOffset":15816,"byteLength":288,"target":34962,"byteStride":12},{"buffer":0,"byteOffset":16104,"byteLength":288,"target":34962,"byteStride":12},{"buffer":0,"byteOffset":16392,"byteLength":192,"target":34962,"byteStride":8},{"buffer":0,"byteOffset":16584,"byteLength":72,"target":34963},{"buffer":0,"byteOffset":16656,"byteLength":288,"target":34962,"byteStride":12},{"buffer":0,"byteOffset":16944,"byteLength":288,"target":34962,"byteStride":12},{"buffer":0,"byteOffset":17232,"byteLength":192,"target":34962,"byteStride":8},{"buffer":0,"byteOffset":17424,"byteLength":72,"target":34963},{"buffer":0,"byteOffset":17496,"byteLength":288,"target":34962,"byteStride":12},{"buffer":0,"byteOffset":17784,"byteLength":288,"target":34962,"byteStride":12},{"buffer":0,"byteOffset":18072,"byteLength":192,"target":34962,"byteStride":8},{"buffer":0,"byteOffset":18264,"byteLength":72,"target":34963},{"buffer":0,"byteOffset":18336,"byteLength":288,"target":34962,"byteStride":12},{"buffer":0,"byteOffset":18624,"byteLength":288,"target":34962,"byteStride":12},{"buffer":0,"byteOffset":18912,"byteLength":192,"target":34962,"byteStride":8},{"buffer":0,"byteOffset":19104,"byteLength":72,"target":34963},{"buffer":0,"byteOffset":19176,"byteLength":2112,"target":34962,"byteStride":12},{"buffer":0,"byteOffset":21288,"byteLength":2112,"target":34962,"byteStride":12},{"buffer":0,"byteOffset":23400,"byteLength":1408,"target":34962,"byteStride":8},{"buffer":0,"byteOffset":24808,"byteLength":528,"target":34963},{"buffer":0,"byteOffset":25336,"byteLength":288,"target":34962,"byteStride":12},{"buffer":0,"byteOffset":25624,"byteLength":288,"target":34962,"byteStride":12},{"buffer":0,"byteOffset":25912,"byteLength":192,"target":34962,"byteStride":8},{"buffer":0,"byteOffset":26104,"byteLength":72,"target":34963}],"buffers":[{"byteLength":26176,"uri":"data:application/octet-stream;base64,"}],"accessors":[{"bufferView":0,"componentType":5126,"count":24,"max":[-0.02500000037252903,0.29374998807907104,-0.03125],"min":[-0.05624999850988388,5.204170427930421e-18,-0.05624999850988388],"type":"VEC3"},{"bufferView":1,"componentType":5126,"count":24,"max":[1,1,1],"min":[-1,-1,-1],"type":"VEC3"},{"bufferView":2,"componentType":5126,"count":24,"max":[0.2890625,0.58984375],"min":[0,0],"type":"VEC2"},{"bufferView":3,"componentType":5123,"count":36,"max":[23],"min":[0],"type":"SCALAR"},{"bufferView":4,"componentType":5126,"count":24,"max":[-0.02500000037252903,0.29374998807907104,-0.03125],"min":[-0.05624999850988388,5.204170427930421e-18,-0.05624999850988388],"type":"VEC3"},{"bufferView":5,"componentType":5126,"count":24,"max":[1,1,1],"min":[-1,-1,-1],"type":"VEC3"},{"bufferView":6,"componentType":5126,"count":24,"max":[0.5546875,0.62109375],"min":[0.03125,0],"type":"VEC2"},{"bufferView":7,"componentType":5123,"count":36,"max":[23],"min":[0],"type":"SCALAR"},{"bufferView":8,"componentType":5126,"count":24,"max":[-0.02500000037252903,0.29374998807907104,-0.03125],"min":[-0.05624999850988388,5.204170427930421e-18,-0.05624999850988388],"type":"VEC3"},{"bufferView":9,"componentType":5126,"count":24,"max":[1,1,1],"min":[-1,-1,-1],"type":"VEC3"},{"bufferView":10,"componentType":5126,"count":24,"max":[0.3828125,0.62109375],"min":[0.21875,0.09375],"type":"VEC2"},{"bufferView":11,"componentType":5123,"count":36,"max":[23],"min":[0],"type":"SCALAR"},{"bufferView":12,"componentType":5126,"count":24,"max":[-0.02500000037252903,0.29374998807907104,-0.03125],"min":[-0.05624999850988388,5.204170427930421e-18,-0.05624999850988388],"type":"VEC3"},{"bufferView":13,"componentType":5126,"count":24,"max":[1,1,1],"min":[-1,-1,-1],"type":"VEC3"},{"bufferView":14,"componentType":5126,"count":24,"max":[0.5546875,0.62109375],"min":[0,0],"type":"VEC2"},{"bufferView":15,"componentType":5123,"count":36,"max":[23],"min":[0],"type":"SCALAR"},{"bufferView":16,"componentType":5126,"count":24,"max":[-0.02500000037252903,0.29374998807907104,-0.03125],"min":[-0.05624999850988388,5.204170427930421e-18,-0.05624999850988388],"type":"VEC3"},{"bufferView":17,"componentType":5126,"count":24,"max":[1,1,1],"min":[-1,-1,-1],"type":"VEC3"},{"bufferView":18,"componentType":5126,"count":24,"max":[0.5703125,0.62109375],"min":[0.28125,0.09375],"type":"VEC2"},{"bufferView":19,"componentType":5123,"count":36,"max":[23],"min":[0],"type":"SCALAR"},{"bufferView":20,"componentType":5126,"count":24,"max":[-0.02500000037252903,0.29374998807907104,-0.03125],"min":[-0.05624999850988388,5.204170427930421e-18,-0.05624999850988388],"type":"VEC3"},{"bufferView":21,"componentType":5126,"count":24,"max":[1,1,1],"min":[-1,-1,-1],"type":"VEC3"},{"bufferView":22,"componentType":5126,"count":24,"max":[0.5078125,0.62109375],"min":[0.25,0.09375],"type":"VEC2"},{"bufferView":23,"componentType":5123,"count":36,"max":[23],"min":[0],"type":"SCALAR"},{"bufferView":24,"componentType":5126,"count":120,"max":[0.38499999046325684,0.19750000536441803,0.38499999046325684],"min":[-0.38499999046325684,0.1875,-0.38499999046325684],"type":"VEC3"},{"bufferView":25,"componentType":5126,"count":120,"max":[1,1,1],"min":[-1,-1,-1],"type":"VEC3"},{"bufferView":26,"componentType":5126,"count":120,"max":[0.7336218953132629,0.5234375],"min":[0.0014062500558793545,0],"type":"VEC2"},{"bufferView":27,"componentType":5123,"count":144,"max":[119],"min":[0],"type":"SCALAR"},{"bufferView":28,"componentType":5126,"count":120,"max":[0.38499999046325684,0.19750000536441803,0.38499999046325684],"min":[-0.38499999046325684,0.1875,-0.38499999046325684],"type":"VEC3"},{"bufferView":29,"componentType":5126,"count":120,"max":[1,1,1],"min":[-1,-1,-1],"type":"VEC3"},{"bufferView":30,"componentType":5126,"count":120,"max":[0.7336218953132629,0.5234375],"min":[0.0014062500558793545,0],"type":"VEC2"},{"bufferView":31,"componentType":5123,"count":144,"max":[119],"min":[0],"type":"SCALAR"},{"bufferView":32,"componentType":5126,"count":24,"max":[0.14425624907016754,0.10458562523126602,0.018094375729560852],"min":[-0.018031874671578407,-0.11874999850988388,0.018031874671578407],"type":"VEC3"},{"bufferView":33,"componentType":5126,"count":24,"max":[1,1,1],"min":[-1,-1,-1],"type":"VEC3"},{"bufferView":34,"componentType":5126,"count":24,"max":[0.5625,0.73828125],"min":[0,0],"type":"VEC2"},{"bufferView":35,"componentType":5123,"count":36,"max":[23],"min":[0],"type":"SCALAR"},{"bufferView":36,"componentType":5126,"count":24,"max":[0.14425624907016754,0.10458562523126602,0.018094375729560852],"min":[-0.018031874671578407,-0.11874999850988388,0.018031874671578407],"type":"VEC3"},{"bufferView":37,"componentType":5126,"count":24,"max":[1,1,1],"min":[-1,-1,-1],"type":"VEC3"},{"bufferView":38,"componentType":5126,"count":24,"max":[0.5625,0.73828125],"min":[0,0],"type":"VEC2"},{"bufferView":39,"componentType":5123,"count":36,"max":[23],"min":[0],"type":"SCALAR"},{"bufferView":40,"componentType":5126,"count":24,"max":[0.14425624907016754,0.10458562523126602,0.018094375729560852],"min":[-0.07428187131881714,-0.24375000596046448,0.018031874671578407],"type":"VEC3"},{"bufferView":41,"componentType":5126,"count":24,"max":[1,1,1],"min":[-1,-1,-1],"type":"VEC3"},{"bufferView":42,"componentType":5126,"count":24,"max":[0.5625,0.73828125],"min":[0,0],"type":"VEC2"},{"bufferView":43,"componentType":5123,"count":36,"max":[23],"min":[0],"type":"SCALAR"},{"bufferView":44,"componentType":5126,"count":24,"max":[0.04425625130534172,0.10458562523126602,0.018094375729560852],"min":[-0.07428187131881714,-0.24375000596046448,0.018031874671578407],"type":"VEC3"},{"bufferView":45,"componentType":5126,"count":24,"max":[1,1,1],"min":[-1,-1,-1],"type":"VEC3"},{"bufferView":46,"componentType":5126,"count":24,"max":[0.5625,0.73828125],"min":[0,0],"type":"VEC2"},{"bufferView":47,"componentType":5123,"count":36,"max":[23],"min":[0],"type":"SCALAR"},{"bufferView":48,"componentType":5126,"count":24,"max":[0.30000001192092896,0.3062500059604645,-0.062437500804662704],"min":[-0.16875000298023224,0.06875000149011612,-0.0625],"type":"VEC3"},{"bufferView":49,"componentType":5126,"count":24,"max":[1,1,1],"min":[-1,-1,-1],"type":"VEC3"},{"bufferView":50,"componentType":5126,"count":24,"max":[0.9375,0.75],"min":[0,0],"type":"VEC2"},{"bufferView":51,"componentType":5123,"count":36,"max":[23],"min":[0],"type":"SCALAR"},{"bufferView":52,"componentType":5126,"count":24,"max":[0.30000001192092896,0.3062500059604645,-0.062437500804662704],"min":[-0.16875000298023224,0.01875000074505806,-0.0625],"type":"VEC3"},{"bufferView":53,"componentType":5126,"count":24,"max":[1,1,1],"min":[-1,-1,-1],"type":"VEC3"},{"bufferView":54,"componentType":5126,"count":24,"max":[0.9375,0.75],"min":[0,0],"type":"VEC2"},{"bufferView":55,"componentType":5123,"count":36,"max":[23],"min":[0],"type":"SCALAR"},{"bufferView":56,"componentType":5126,"count":24,"max":[0.30000001192092896,0.3062500059604645,-0.062437500804662704],"min":[-0.16875000298023224,0.09375,-0.0625],"type":"VEC3"},{"bufferView":57,"componentType":5126,"count":24,"max":[1,1,1],"min":[-1,-1,-1],"type":"VEC3"},{"bufferView":58,"componentType":5126,"count":24,"max":[0.9375,0.75],"min":[0,0],"type":"VEC2"},{"bufferView":59,"componentType":5123,"count":36,"max":[23],"min":[0],"type":"SCALAR"},{"bufferView":60,"componentType":5126,"count":176,"max":[0.38499999046325684,0.3412500023841858,0.38499999046325684],"min":[-0.38499999046325684,0.04374999925494194,-0.38499999046325684],"type":"VEC3"},{"bufferView":61,"componentType":5126,"count":176,"max":[1,1,1],"min":[-1,-1,-1],"type":"VEC3"},{"bufferView":62,"componentType":5126,"count":176,"max":[0.6817187666893005,0.609375],"min":[0.0007531250012107193,0],"type":"VEC2"},{"bufferView":63,"componentType":5123,"count":264,"max":[175],"min":[0],"type":"SCALAR"},{"bufferView":64,"componentType":5126,"count":24,"max":[0.0625,0.125,-0.0625],"min":[-0.0625,5.204170427930421e-18,-0.06875000149011612],"type":"VEC3"},{"bufferView":65,"componentType":5126,"count":24,"max":[1,1,1],"min":[-1,-1,-1],"type":"VEC3"},{"bufferView":66,"componentType":5126,"count":24,"max":[0.625,0.5],"min":[0,0],"type":"VEC2"},{"bufferView":67,"componentType":5123,"count":36,"max":[23],"min":[0],"type":"SCALAR"}],"materials":[{"pbrMetallicRoughness":{"metallicFactor":0,"roughnessFactor":1,"baseColorTexture":{"index":0}},"alphaMode":"MASK","alphaCutoff":0.05,"doubleSided":true},{"pbrMetallicRoughness":{"metallicFactor":0,"roughnessFactor":1,"baseColorTexture":{"index":1}},"alphaMode":"MASK","alphaCutoff":0.05,"doubleSided":true},{"pbrMetallicRoughness":{"metallicFactor":0,"roughnessFactor":1,"baseColorTexture":{"index":2}},"alphaMode":"MASK","alphaCutoff":0.05,"doubleSided":true},{"pbrMetallicRoughness":{"metallicFactor":0,"roughnessFactor":1,"baseColorTexture":{"index":3}},"alphaMode":"MASK","alphaCutoff":0.05,"doubleSided":true}],"textures":[{"sampler":0,"source":0,"name":"Main skin "},{"sampler":1,"source":1,"name":"v2.png"},{"sampler":2,"source":2,"name":"texture"},{"sampler":3,"source":3,"name":"center mirror"}],"samplers":[{"magFilter":9728,"minFilter":9728,"wrapS":33071,"wrapT":33071},{"magFilter":9728,"minFilter":9728,"wrapS":33071,"wrapT":33071},{"magFilter":9728,"minFilter":9728,"wrapS":33071,"wrapT":33071},{"magFilter":9728,"minFilter":9728,"wrapS":33071,"wrapT":33071}],"images":[{"mimeType":"image/png","uri":"data:image/png;base64,"},{"mimeType":"image/png","uri":"data:image/png;base64,"},{"mimeType":"image/png","uri":"data:image/png;base64,"},{"mimeType":"image/png","uri":"data:image/png;base64,"}],"meshes":[{"primitives":[{"mode":4,"attributes":{"POSITION":0,"NORMAL":1,"TEXCOORD_0":2},"indices":3,"material":0}]},{"primitives":[{"mode":4,"attributes":{"POSITION":4,"NORMAL":5,"TEXCOORD_0":6},"indices":7,"material":0}]},{"primitives":[{"mode":4,"attributes":{"POSITION":8,"NORMAL":9,"TEXCOORD_0":10},"indices":11,"material":0}]},{"primitives":[{"mode":4,"attributes":{"POSITION":12,"NORMAL":13,"TEXCOORD_0":14},"indices":15,"material":0}]},{"primitives":[{"mode":4,"attributes":{"POSITION":16,"NORMAL":17,"TEXCOORD_0":18},"indices":19,"material":0}]},{"primitives":[{"mode":4,"attributes":{"POSITION":20,"NORMAL":21,"TEXCOORD_0":22},"indices":23,"material":0}]},{"primitives":[{"mode":4,"attributes":{"POSITION":24,"NORMAL":25,"TEXCOORD_0":26},"indices":27,"material":0}]},{"primitives":[{"mode":4,"attributes":{"POSITION":28,"NORMAL":29,"TEXCOORD_0":30},"indices":31,"material":0}]},{"primitives":[{"mode":4,"attributes":{"POSITION":32,"NORMAL":33,"TEXCOORD_0":34},"indices":35,"material":1}]},{"primitives":[{"mode":4,"attributes":{"POSITION":36,"NORMAL":37,"TEXCOORD_0":38},"indices":39,"material":1}]},{"primitives":[{"mode":4,"attributes":{"POSITION":40,"NORMAL":41,"TEXCOORD_0":42},"indices":43,"material":1}]},{"primitives":[{"mode":4,"attributes":{"POSITION":44,"NORMAL":45,"TEXCOORD_0":46},"indices":47,"material":1}]},{"primitives":[{"mode":4,"attributes":{"POSITION":48,"NORMAL":49,"TEXCOORD_0":50},"indices":51,"material":2}]},{"primitives":[{"mode":4,"attributes":{"POSITION":52,"NORMAL":53,"TEXCOORD_0":54},"indices":55,"material":2}]},{"primitives":[{"mode":4,"attributes":{"POSITION":56,"NORMAL":57,"TEXCOORD_0":58},"indices":59,"material":2}]},{"primitives":[{"mode":4,"attributes":{"POSITION":60,"NORMAL":61,"TEXCOORD_0":62},"indices":63,"material":0}]},{"primitives":[{"mode":4,"attributes":{"POSITION":64,"NORMAL":65,"TEXCOORD_0":66},"indices":67,"material":3}]}]}