{"asset":{"version":"2.0","generator":"Blockbench 4.12.6 glTF exporter"},"scenes":[{"nodes":[20],"name":"blockbench_export"}],"scene":0,"nodes":[{"name":"cube","mesh":0},{"translation":[0.375,-0.125,-0.1875],"name":"cylinder","mesh":1},{"translation":[-0.375,-0.125,-0.1875],"name":"cylinder","mesh":2},{"rotation":[0.374606593415912,0,0,0.9271838545667874],"translation":[-0.375,0.29375,-0.153125],"name":"cylinder","mesh":3},{"rotation":[0.374606593415912,0,0,0.9271838545667874],"translation":[0.375,0.29375,-0.153125],"name":"cylinder","mesh":4},{"rotation":[0.7071067811865475,0,0,0.7071067811865476],"translation":[0.375,0.328125,0],"name":"cylinder","mesh":5},{"rotation":[0.7071067811865475,0,0,0.7071067811865476],"translation":[-0.375,0.328125,0],"name":"cylinder","mesh":6},{"rotation":[0,0,0.7071067811865475,0.7071067811865476],"translation":[0,0.325,0.11875],"name":"cylinder","mesh":7},{"rotation":[0,0,0.7071067811865475,0.7071067811865476],"translation":[0,0.325,-0.11875],"name":"cylinder","mesh":8},{"rotation":[0,0,0.7071067811865475,0.7071067811865476],"translation":[0,0.25625,-0.1875],"name":"cylinder","mesh":9},{"rotation":[-0.7071067811865475,0,0,0.7071067811865476],"translation":[-0.375,0.25,-0.0625],"name":"cylinder","mesh":10},{"translation":[0.01875,-0.125,-0.1875],"name":"cylinder","mesh":11},{"rotation":[0.374606593415912,0,0,0.9271838545667874],"translation":[0.01875,0.29375,-0.153125],"name":"cylinder","mesh":12},{"rotation":[0.7071067811865475,0,0,0.7071067811865476],"translation":[0.01875,0.328125,0],"name":"cylinder","mesh":13},{"rotation":[0,0,0.7071067811865475,0.7071067811865476],"translation":[0,0.05625,-0.1875],"name":"cylinder","mesh":14},{"name":"Frame","children":[1,2,3,4,5,6,7,8,9,10,11,12,13,14]},{"translation":[0,0.0625,-0.125],"name":"cube","mesh":15},{"rotation":[0.3826834323650898,0,0,0.9238795325112867],"translation":[0,0.1875,-0.1875],"name":"cube","mesh":16},{"translation":[0,0.328125,0],"name":"cube","mesh":17},{"name":"bone","children":[16,17,18]},{"children":[0,15,19]}],"bufferViews":[{"buffer":0,"byteOffset":0,"byteLength":288,"target":34962,"byteStride":12},{"buffer":0,"byteOffset":288,"byteLength":288,"target":34962,"byteStride":12},{"buffer":0,"byteOffset":576,"byteLength":192,"target":34962,"byteStride":8},{"buffer":0,"byteOffset":768,"byteLength":72,"target":34963},{"buffer":0,"byteOffset":840,"byteLength":1440,"target":34962,"byteStride":12},{"buffer":0,"byteOffset":2280,"byteLength":1440,"target":34962,"byteStride":12},{"buffer":0,"byteOffset":3720,"byteLength":960,"target":34962,"byteStride":8},{"buffer":0,"byteOffset":4680,"byteLength":288,"target":34963},{"buffer":0,"byteOffset":4968,"byteLength":1440,"target":34962,"byteStride":12},{"buffer":0,"byteOffset":6408,"byteLength":1440,"target":34962,"byteStride":12},{"buffer":0,"byteOffset":7848,"byteLength":960,"target":34962,"byteStride":8},{"buffer":0,"byteOffset":8808,"byteLength":288,"target":34963},{"buffer":0,"byteOffset":9096,"byteLength":1440,"target":34962,"byteStride":12},{"buffer":0,"byteOffset":10536,"byteLength":1440,"target":34962,"byteStride":12},{"buffer":0,"byteOffset":11976,"byteLength":960,"target":34962,"byteStride":8},{"buffer":0,"byteOffset":12936,"byteLength":288,"target":34963},{"buffer":0,"byteOffset":13224,"byteLength":1440,"target":34962,"byteStride":12},{"buffer":0,"byteOffset":14664,"byteLength":1440,"target":34962,"byteStride":12},{"buffer":0,"byteOffset":16104,"byteLength":960,"target":34962,"byteStride":8},{"buffer":0,"byteOffset":17064,"byteLength":288,"target":34963},{"buffer":0,"byteOffset":17352,"byteLength":1440,"target":34962,"byteStride":12},{"buffer":0,"byteOffset":18792,"byteLength":1440,"target":34962,"byteStride":12},{"buffer":0,"byteOffset":20232,"byteLength":960,"target":34962,"byteStride":8},{"buffer":0,"byteOffset":21192,"byteLength":288,"target":34963},{"buffer":0,"byteOffset":21480,"byteLength":1440,"target":34962,"byteStride":12},{"buffer":0,"byteOffset":22920,"byteLength":1440,"target":34962,"byteStride":12},{"buffer":0,"byteOffset":24360,"byteLength":960,"target":34962,"byteStride":8},{"buffer":0,"byteOffset":25320,"byteLength":288,"target":34963},{"buffer":0,"byteOffset":25608,"byteLength":1440,"target":34962,"byteStride":12},{"buffer":0,"byteOffset":27048,"byteLength":1440,"target":34962,"byteStride":12},{"buffer":0,"byteOffset":28488,"byteLength":960,"target":34962,"byteStride":8},{"buffer":0,"byteOffset":29448,"byteLength":288,"target":34963},{"buffer":0,"byteOffset":29736,"byteLength":1440,"target":34962,"byteStride":12},{"buffer":0,"byteOffset":31176,"byteLength":1440,"target":34962,"byteStride":12},{"buffer":0,"byteOffset":32616,"byteLength":960,"target":34962,"byteStride":8},{"buffer":0,"byteOffset":33576,"byteLength":288,"target":34963},{"buffer":0,"byteOffset":33864,"byteLength":1440,"target":34962,"byteStride":12},{"buffer":0,"byteOffset":35304,"byteLength":1440,"target":34962,"byteStride":12},{"buffer":0,"byteOffset":36744,"byteLength":960,"target":34962,"byteStride":8},{"buffer":0,"byteOffset":37704,"byteLength":288,"target":34963},{"buffer":0,"byteOffset":37992,"byteLength":1440,"target":34962,"byteStride":12},{"buffer":0,"byteOffset":39432,"byteLength":1440,"target":34962,"byteStride":12},{"buffer":0,"byteOffset":40872,"byteLength":960,"target":34962,"byteStride":8},{"buffer":0,"byteOffset":41832,"byteLength":288,"target":34963},{"buffer":0,"byteOffset":42120,"byteLength":1440,"target":34962,"byteStride":12},{"buffer":0,"byteOffset":43560,"byteLength":1440,"target":34962,"byteStride":12},{"buffer":0,"byteOffset":45000,"byteLength":960,"target":34962,"byteStride":8},{"buffer":0,"byteOffset":45960,"byteLength":288,"target":34963},{"buffer":0,"byteOffset":46248,"byteLength":1440,"target":34962,"byteStride":12},{"buffer":0,"byteOffset":47688,"byteLength":1440,"target":34962,"byteStride":12},{"buffer":0,"byteOffset":49128,"byteLength":960,"target":34962,"byteStride":8},{"buffer":0,"byteOffset":50088,"byteLength":288,"target":34963},{"buffer":0,"byteOffset":50376,"byteLength":1440,"target":34962,"byteStride":12},{"buffer":0,"byteOffset":51816,"byteLength":1440,"target":34962,"byteStride":12},{"buffer":0,"byteOffset":53256,"byteLength":960,"target":34962,"byteStride":8},{"buffer":0,"byteOffset":54216,"byteLength":288,"target":34963},{"buffer":0,"byteOffset":54504,"byteLength":1440,"target":34962,"byteStride":12},{"buffer":0,"byteOffset":55944,"byteLength":1440,"target":34962,"byteStride":12},{"buffer":0,"byteOffset":57384,"byteLength":960,"target":34962,"byteStride":8},{"buffer":0,"byteOffset":58344,"byteLength":288,"target":34963},{"buffer":0,"byteOffset":58632,"byteLength":288,"target":34962,"byteStride":12},{"buffer":0,"byteOffset":58920,"byteLength":288,"target":34962,"byteStride":12},{"buffer":0,"byteOffset":59208,"byteLength":192,"target":34962,"byteStride":8},{"buffer":0,"byteOffset":59400,"byteLength":72,"target":34963},{"buffer":0,"byteOffset":59472,"byteLength":288,"target":34962,"byteStride":12},{"buffer":0,"byteOffset":59760,"byteLength":288,"target":34962,"byteStride":12},{"buffer":0,"byteOffset":60048,"byteLength":192,"target":34962,"byteStride":8},{"buffer":0,"byteOffset":60240,"byteLength":72,"target":34963},{"buffer":0,"byteOffset":60312,"byteLength":288,"target":34962,"byteStride":12},{"buffer":0,"byteOffset":60600,"byteLength":288,"target":34962,"byteStride":12},{"buffer":0,"byteOffset":60888,"byteLength":192,"target":34962,"byteStride":8},{"buffer":0,"byteOffset":61080,"byteLength":72,"target":34963}],"buffers":[{"byteLength":61152,"uri":"data:application/octet-stream;base64,"}],"accessors":[{"bufferView":0,"componentType":5126,"count":24,"max":[0.38749998807907104,0.012500000186264515,0.20000000298023224],"min":[-0.38749998807907104,-0.012500000186264515,-0.20000000298023224],"type":"VEC3"},{"bufferView":1,"componentType":5126,"count":24,"max":[1,1,1],"min":[-1,-1,-1],"type":"VEC3"},{"bufferView":2,"componentType":5126,"count":24,"max":[0.79296875,0.41796875],"min":[0,0],"type":"VEC2"},{"bufferView":3,"componentType":5123,"count":36,"max":[23],"min":[0],"type":"SCALAR"},{"bufferView":4,"componentType":5126,"count":120,"max":[0.0062500000931322575,0.38749998807907104,0.0062500000931322575],"min":[-0.0062500000931322575,0.11249999701976776,-0.0062500000931322575],"type":"VEC3"},{"bufferView":5,"componentType":5126,"count":120,"max":[1,1,1],"min":[-1,-1,-1],"type":"VEC3"},{"bufferView":6,"componentType":5126,"count":120,"max":[0.5176381468772888,0.517638087272644],"min":[0,0],"type":"VEC2"},{"bufferView":7,"componentType":5123,"count":144,"max":[119],"min":[0],"type":"SCALAR"},{"bufferView":8,"componentType":5126,"count":120,"max":[0.0062500000931322575,0.38749998807907104,0.0062500000931322575],"min":[-0.0062500000931322575,0.11249999701976776,-0.0062500000931322575],"type":"VEC3"},{"bufferView":9,"componentType":5126,"count":120,"max":[1,1,1],"min":[-1,-1,-1],"type":"VEC3"},{"bufferView":10,"componentType":5126,"count":120,"max":[0.5176381468772888,0.517638087272644],"min":[0,0],"type":"VEC2"},{"bufferView":11,"componentType":5123,"count":144,"max":[119],"min":[0],"type":"SCALAR"},{"bufferView":12,"componentType":5126,"count":120,"max":[0.0062500000931322575,0.05000000074505806,0.0062500000931322575],"min":[-0.0062500000931322575,-0.05000000074505806,-0.0062500000931322575],"type":"VEC3"},{"bufferView":13,"componentType":5126,"count":120,"max":[1,1,1],"min":[-1,-1,-1],"type":"VEC3"},{"bufferView":14,"componentType":5126,"count":120,"max":[0.5176381468772888,0.517638087272644],"min":[0,0],"type":"VEC2"},{"bufferView":15,"componentType":5123,"count":144,"max":[119],"min":[0],"type":"SCALAR"},{"bufferView":16,"componentType":5126,"count":120,"max":[0.0062500000931322575,0.05000000074505806,0.0062500000931322575],"min":[-0.0062500000931322575,-0.05000000074505806,-0.0062500000931322575],"type":"VEC3"},{"bufferView":17,"componentType":5126,"count":120,"max":[1,1,1],"min":[-1,-1,-1],"type":"VEC3"},{"bufferView":18,"componentType":5126,"count":120,"max":[0.5176381468772888,0.517638087272644],"min":[0,0],"type":"VEC2"},{"bufferView":19,"componentType":5123,"count":144,"max":[119],"min":[0],"type":"SCALAR"},{"bufferView":20,"componentType":5126,"count":120,"max":[0.0062500000931322575,0.12187500298023224,0.0062500000931322575],"min":[-0.0062500000931322575,-0.12187500298023224,-0.0062500000931322575],"type":"VEC3"},{"bufferView":21,"componentType":5126,"count":120,"max":[1,1,1],"min":[-1,-1,-1],"type":"VEC3"},{"bufferView":22,"componentType":5126,"count":120,"max":[0.5176381468772888,0.517638087272644],"min":[0,0],"type":"VEC2"},{"bufferView":23,"componentType":5123,"count":144,"max":[119],"min":[0],"type":"SCALAR"},{"bufferView":24,"componentType":5126,"count":120,"max":[0.0062500000931322575,0.12187500298023224,0.0062500000931322575],"min":[-0.0062500000931322575,-0.12187500298023224,-0.0062500000931322575],"type":"VEC3"},{"bufferView":25,"componentType":5126,"count":120,"max":[1,1,1],"min":[-1,-1,-1],"type":"VEC3"},{"bufferView":26,"componentType":5126,"count":120,"max":[0.5176381468772888,0.517638087272644],"min":[0,0],"type":"VEC2"},{"bufferView":27,"componentType":5123,"count":144,"max":[119],"min":[0],"type":"SCALAR"},{"bufferView":28,"componentType":5126,"count":120,"max":[0.002812500111758709,0.375,0.002812500111758709],"min":[-0.002812500111758709,-0.375,-0.002812500111758709],"type":"VEC3"},{"bufferView":29,"componentType":5126,"count":120,"max":[1,1,1],"min":[-1,-1,-1],"type":"VEC3"},{"bufferView":30,"componentType":5126,"count":120,"max":[0.5176381468772888,0.517638087272644],"min":[0,0],"type":"VEC2"},{"bufferView":31,"componentType":5123,"count":144,"max":[119],"min":[0],"type":"SCALAR"},{"bufferView":32,"componentType":5126,"count":120,"max":[0.002812500111758709,0.375,0.002812500111758709],"min":[-0.002812500111758709,-0.375,-0.002812500111758709],"type":"VEC3"},{"bufferView":33,"componentType":5126,"count":120,"max":[1,1,1],"min":[-1,-1,-1],"type":"VEC3"},{"bufferView":34,"componentType":5126,"count":120,"max":[0.5176381468772888,0.517638087272644],"min":[0,0],"type":"VEC2"},{"bufferView":35,"componentType":5123,"count":144,"max":[119],"min":[0],"type":"SCALAR"},{"bufferView":36,"componentType":5126,"count":120,"max":[0.0062500000931322575,0.375,0.0062500000931322575],"min":[-0.0062500000931322575,-0.375,-0.0062500000931322575],"type":"VEC3"},{"bufferView":37,"componentType":5126,"count":120,"max":[1,1,1],"min":[-1,-1,-1],"type":"VEC3"},{"bufferView":38,"componentType":5126,"count":120,"max":[0.5176381468772888,0.517638087272644],"min":[0,0],"type":"VEC2"},{"bufferView":39,"componentType":5123,"count":144,"max":[119],"min":[0],"type":"SCALAR"},{"bufferView":40,"componentType":5126,"count":120,"max":[0.0031250000465661287,0.125,0.0031250000465661287],"min":[-0.0031250000465661287,-0.125,-0.0031250000465661287],"type":"VEC3"},{"bufferView":41,"componentType":5126,"count":120,"max":[1,1,1],"min":[-1,-1,-1],"type":"VEC3"},{"bufferView":42,"componentType":5126,"count":120,"max":[0.4124999940395355,0.6499999761581421],"min":[0.026225000619888306,0],"type":"VEC2"},{"bufferView":43,"componentType":5123,"count":144,"max":[119],"min":[0],"type":"SCALAR"},{"bufferView":44,"componentType":5126,"count":120,"max":[0.0062500000931322575,0.38749998807907104,0.0062500000931322575],"min":[-0.0062500000931322575,0.11249999701976776,-0.0062500000931322575],"type":"VEC3"},{"bufferView":45,"componentType":5126,"count":120,"max":[1,1,1],"min":[-1,-1,-1],"type":"VEC3"},{"bufferView":46,"componentType":5126,"count":120,"max":[0.5176381468772888,0.517638087272644],"min":[0,0],"type":"VEC2"},{"bufferView":47,"componentType":5123,"count":144,"max":[119],"min":[0],"type":"SCALAR"},{"bufferView":48,"componentType":5126,"count":120,"max":[0.0062500000931322575,0.05000000074505806,0.0062500000931322575],"min":[-0.0062500000931322575,-0.05000000074505806,-0.0062500000931322575],"type":"VEC3"},{"bufferView":49,"componentType":5126,"count":120,"max":[1,1,1],"min":[-1,-1,-1],"type":"VEC3"},{"bufferView":50,"componentType":5126,"count":120,"max":[0.5176381468772888,0.517638087272644],"min":[0,0],"type":"VEC2"},{"bufferView":51,"componentType":5123,"count":144,"max":[119],"min":[0],"type":"SCALAR"},{"bufferView":52,"componentType":5126,"count":120,"max":[0.0062500000931322575,0.12187500298023224,0.0062500000931322575],"min":[-0.0062500000931322575,-0.12187500298023224,-0.0062500000931322575],"type":"VEC3"},{"bufferView":53,"componentType":5126,"count":120,"max":[1,1,1],"min":[-1,-1,-1],"type":"VEC3"},{"bufferView":54,"componentType":5126,"count":120,"max":[0.5176381468772888,0.517638087272644],"min":[0,0],"type":"VEC2"},{"bufferView":55,"componentType":5123,"count":144,"max":[119],"min":[0],"type":"SCALAR"},{"bufferView":56,"componentType":5126,"count":120,"max":[0.0062500000931322575,0.375,0.0062500000931322575],"min":[-0.0062500000931322575,-0.375,-0.0062500000931322575],"type":"VEC3"},{"bufferView":57,"componentType":5126,"count":120,"max":[1,1,1],"min":[-1,-1,-1],"type":"VEC3"},{"bufferView":58,"componentType":5126,"count":120,"max":[0.5176381468772888,0.517638087272644],"min":[0,0],"type":"VEC2"},{"bufferView":59,"componentType":5123,"count":144,"max":[119],"min":[0],"type":"SCALAR"},{"bufferView":60,"componentType":5126,"count":24,"max":[0.375,0.19374999403953552,-0.05937499925494194],"min":[-0.375,-0.0625,-0.0625],"type":"VEC3"},{"bufferView":61,"componentType":5126,"count":24,"max":[1,1,1],"min":[-1,-1,-1],"type":"VEC3"},{"bufferView":62,"componentType":5126,"count":24,"max":[0.37890625,0.50390625],"min":[0,0],"type":"VEC2"},{"bufferView":63,"componentType":5123,"count":36,"max":[23],"min":[0],"type":"SCALAR"},{"bufferView":64,"componentType":5126,"count":24,"max":[0.375,0.15625,-0.05937499925494194],"min":[-0.375,0.03125,-0.0625],"type":"VEC3"},{"bufferView":65,"componentType":5126,"count":24,"max":[1,1,1],"min":[-1,-1,-1],"type":"VEC3"},{"bufferView":66,"componentType":5126,"count":24,"max":[0.75,0.484375],"min":[0,0],"type":"VEC2"},{"bufferView":67,"componentType":5123,"count":36,"max":[23],"min":[0],"type":"SCALAR"},{"bufferView":68,"componentType":5126,"count":24,"max":[0.375,0.0031250000465661287,0.109375],"min":[-0.375,0,-0.125],"type":"VEC3"},{"bufferView":69,"componentType":5126,"count":24,"max":[1,1,1],"min":[-1,-1,-1],"type":"VEC3"},{"bufferView":70,"componentType":5126,"count":24,"max":[0.75,0.6328125],"min":[0,0],"type":"VEC2"},{"bufferView":71,"componentType":5123,"count":36,"max":[23],"min":[0],"type":"SCALAR"}],"materials":[{"pbrMetallicRoughness":{"metallicFactor":0,"roughnessFactor":1,"baseColorTexture":{"index":0}},"alphaMode":"MASK","alphaCutoff":0.05,"doubleSided":true},{"pbrMetallicRoughness":{"metallicFactor":0,"roughnessFactor":1,"baseColorTexture":{"index":1}},"alphaMode":"MASK","alphaCutoff":0.05,"doubleSided":true},{"pbrMetallicRoughness":{"metallicFactor":0,"roughnessFactor":1,"baseColorTexture":{"index":2}},"alphaMode":"MASK","alphaCutoff":0.05,"doubleSided":true},{"pbrMetallicRoughness":{"metallicFactor":0,"roughnessFactor":1,"baseColorTexture":{"index":3}},"alphaMode":"MASK","alphaCutoff":0.05,"doubleSided":true},{"pbrMetallicRoughness":{"metallicFactor":0,"roughnessFactor":1,"baseColorTexture":{"index":4}},"alphaMode":"MASK","alphaCutoff":0.05,"doubleSided":true}],"textures":[{"sampler":0,"source":0,"name":"texture"},{"sampler":1,"source":1,"name":"free.png"},{"sampler":2,"source":2,"name":"glass"},{"sampler":3,"source":3,"name":"texture"},{"sampler":4,"source":4,"name":"texture"}],"samplers":[{"magFilter":9728,"minFilter":9728,"wrapS":33071,"wrapT":33071},{"magFilter":9728,"minFilter":9728,"wrapS":33071,"wrapT":33071},{"magFilter":9728,"minFilter":9728,"wrapS":33071,"wrapT":33071},{"magFilter":9728,"minFilter":9728,"wrapS":33071,"wrapT":33071},{"magFilter":9728,"minFilter":9728,"wrapS":33071,"wrapT":33071}],"images":[{"mimeType":"image/png","uri":"data:image/png;base64,"},{"mimeType":"image/png","uri":"data:image/png;base64,"},{"mimeType":"image/png","uri":"data:image/png;base64,"},{"mimeType":"image/png","uri":"data:image/png;base64,"},{"mimeType":"image/png","uri":"data:image/png;base64,"}],"meshes":[{"primitives":[{"mode":4,"attributes":{"POSITION":0,"NORMAL":1,"TEXCOORD_0":2},"indices":3,"material":0}]},{"primitives":[{"mode":4,"attributes":{"POSITION":4,"NORMAL":5,"TEXCOORD_0":6},"indices":7,"material":1}]},{"primitives":[{"mode":4,"attributes":{"POSITION":8,"NORMAL":9,"TEXCOORD_0":10},"indices":11,"material":1}]},{"primitives":[{"mode":4,"attributes":{"POSITION":12,"NORMAL":13,"TEXCOORD_0":14},"indices":15,"material":1}]},{"primitives":[{"mode":4,"attributes":{"POSITION":16,"NORMAL":17,"TEXCOORD_0":18},"indices":19,"material":1}]},{"primitives":[{"mode":4,"attributes":{"POSITION":20,"NORMAL":21,"TEXCOORD_0":22},"indices":23,"material":1}]},{"primitives":[{"mode":4,"attributes":{"POSITION":24,"NORMAL":25,"TEXCOORD_0":26},"indices":27,"material":1}]},{"primitives":[{"mode":4,"attributes":{"POSITION":28,"NORMAL":29,"TEXCOORD_0":30},"indices":31,"material":1}]},{"primitives":[{"mode":4,"attributes":{"POSITION":32,"NORMAL":33,"TEXCOORD_0":34},"indices":35,"material":1}]},{"primitives":[{"mode":4,"attributes":{"POSITION":36,"NORMAL":37,"TEXCOORD_0":38},"indices":39,"material":1}]},{"primitives":[{"mode":4,"attributes":{"POSITION":40,"NORMAL":41,"TEXCOORD_0":42},"indices":43,"material":1}]},{"primitives":[{"mode":4,"attributes":{"POSITION":44,"NORMAL":45,"TEXCOORD_0":46},"indices":47,"material":1}]},{"primitives":[{"mode":4,"attributes":{"POSITION":48,"NORMAL":49,"TEXCOORD_0":50},"indices":51,"material":1}]},{"primitives":[{"mode":4,"attributes":{"POSITION":52,"NORMAL":53,"TEXCOORD_0":54},"indices":55,"material":1}]},{"primitives":[{"mode":4,"attributes":{"POSITION":56,"NORMAL":57,"TEXCOORD_0":58},"indices":59,"material":1}]},{"primitives":[{"mode":4,"attributes":{"POSITION":60,"NORMAL":61,"TEXCOORD_0":62},"indices":63,"material":2}]},{"primitives":[{"mode":4,"attributes":{"POSITION":64,"NORMAL":65,"TEXCOORD_0":66},"indices":67,"material":3}]},{"primitives":[{"mode":4,"attributes":{"POSITION":68,"NORMAL":69,"TEXCOORD_0":70},"indices":71,"material":4}]}]}