{"asset":{"version":"2.0","generator":"Blockbench 4.12.6 glTF exporter"},"scenes":[{"nodes":[9,11,13,17,19],"name":"blockbench_export"}],"scene":0,"nodes":[{"name":"roof3"},{"name":"roof4"},{"name":"roof5"},{"name":"roof6"},{"translation":[0.018750000000000003,0,0],"name":"roof7"},{"translation":[0.018750000000000003,0,0],"name":"roof8"},{"translation":[0.018750000000000003,0,0],"name":"roof9"},{"translation":[0,0.5,0.125],"name":"Roof2","children":[0,1,2,3,4,5,6]},{"name":"Roof","children":[7]},{"name":"Roof","mesh":0,"children":[8],"skin":0},{"name":"main body"},{"translation":[0,0.4375,0],"name":"main body","mesh":1,"children":[10],"skin":1},{"name":"Foundation"},{"name":"Foundation","mesh":2,"children":[12],"skin":2},{"name":"Door"},{"name":"Windows"},{"name":"Door and Windows","children":[14,15]},{"translation":[0.0625,0.3125,0.4375],"name":"Door and Windows","mesh":3,"children":[16],"skin":3},{"name":"gamit"},{"translation":[0,0.25,0.0625],"name":"gamit","mesh":4,"children":[18],"skin":4}],"bufferViews":[{"buffer":0,"byteOffset":0,"byteLength":4896,"target":34962,"byteStride":12},{"buffer":0,"byteOffset":4896,"byteLength":4896,"target":34962,"byteStride":12},{"buffer":0,"byteOffset":9792,"byteLength":3264,"target":34962,"byteStride":8},{"buffer":0,"byteOffset":13056,"byteLength":3264,"target":34962,"byteStride":8},{"buffer":0,"byteOffset":16320,"byteLength":6528,"target":34962,"byteStride":16},{"buffer":0,"byteOffset":22848,"byteLength":1224,"target":34963},{"buffer":0,"byteOffset":24072,"byteLength":576,"target":34962,"byteStride":12},{"buffer":0,"byteOffset":24648,"byteLength":576,"target":34962,"byteStride":12},{"buffer":0,"byteOffset":25224,"byteLength":384,"target":34962,"byteStride":8},{"buffer":0,"byteOffset":25608,"byteLength":384,"target":34962,"byteStride":8},{"buffer":0,"byteOffset":25992,"byteLength":768,"target":34962,"byteStride":16},{"buffer":0,"byteOffset":26760,"byteLength":72,"target":34963},{"buffer":0,"byteOffset":26832,"byteLength":72,"target":34963},{"buffer":0,"byteOffset":26904,"byteLength":1728,"target":34962,"byteStride":12},{"buffer":0,"byteOffset":28632,"byteLength":1728,"target":34962,"byteStride":12},{"buffer":0,"byteOffset":30360,"byteLength":1152,"target":34962,"byteStride":8},{"buffer":0,"byteOffset":31512,"byteLength":1152,"target":34962,"byteStride":8},{"buffer":0,"byteOffset":32664,"byteLength":2304,"target":34962,"byteStride":16},{"buffer":0,"byteOffset":34968,"byteLength":144,"target":34963},{"buffer":0,"byteOffset":35112,"byteLength":288,"target":34963},{"buffer":0,"byteOffset":35400,"byteLength":1728,"target":34962,"byteStride":12},{"buffer":0,"byteOffset":37128,"byteLength":1728,"target":34962,"byteStride":12},{"buffer":0,"byteOffset":38856,"byteLength":1152,"target":34962,"byteStride":8},{"buffer":0,"byteOffset":40008,"byteLength":1152,"target":34962,"byteStride":8},{"buffer":0,"byteOffset":41160,"byteLength":2304,"target":34962,"byteStride":16},{"buffer":0,"byteOffset":43464,"byteLength":72,"target":34963},{"buffer":0,"byteOffset":43536,"byteLength":360,"target":34963},{"buffer":0,"byteOffset":43896,"byteLength":1152,"target":34962,"byteStride":12},{"buffer":0,"byteOffset":45048,"byteLength":1152,"target":34962,"byteStride":12},{"buffer":0,"byteOffset":46200,"byteLength":768,"target":34962,"byteStride":8},{"buffer":0,"byteOffset":46968,"byteLength":768,"target":34962,"byteStride":8},{"buffer":0,"byteOffset":47736,"byteLength":1536,"target":34962,"byteStride":16},{"buffer":0,"byteOffset":49272,"byteLength":72,"target":34963},{"buffer":0,"byteOffset":49344,"byteLength":72,"target":34963},{"buffer":0,"byteOffset":49416,"byteLength":72,"target":34963},{"buffer":0,"byteOffset":49488,"byteLength":72,"target":34963},{"buffer":0,"byteOffset":49560,"byteLength":576},{"buffer":0,"byteOffset":50136,"byteLength":64},{"buffer":0,"byteOffset":50200,"byteLength":64},{"buffer":0,"byteOffset":50264,"byteLength":192},{"buffer":0,"byteOffset":50456,"byteLength":64}],"buffers":[{"byteLength":50520,"uri":"data:application/octet-stream;base64,"}],"accessors":[{"bufferView":0,"componentType":5126,"count":408,"max":[0.06562499701976776,0.5194114446640015,0.2638518214225769],"min":[-0.06562499701976776,0.375,0.04770270362496376],"type":"VEC3"},{"bufferView":1,"componentType":5126,"count":408,"max":[1,1,1],"min":[-1,-1,-1],"type":"VEC3"},{"bufferView":2,"componentType":5126,"count":408,"max":[0.505859375,0.578125],"min":[0,0],"type":"VEC2"},{"bufferView":3,"componentType":5123,"count":408,"max":[0,8,0,0],"min":[0,0,0,0],"type":"VEC4"},{"bufferView":4,"componentType":5126,"count":408,"max":[0,1,0,0],"min":[0,1,0,0],"type":"VEC4"},{"bufferView":5,"componentType":5123,"count":612,"max":[407],"min":[0],"type":"SCALAR"},{"bufferView":6,"componentType":5126,"count":48,"max":[0.0625,-0.0625,0.25],"min":[-0.1875,-0.4375,-0.25],"type":"VEC3"},{"bufferView":7,"componentType":5126,"count":48,"max":[1,1,1],"min":[-1,-1,-1],"type":"VEC3"},{"bufferView":8,"componentType":5126,"count":48,"max":[1,0.6875],"min":[0,0],"type":"VEC2"},{"bufferView":9,"componentType":5123,"count":48,"max":[0,0,0,0],"min":[0,0,0,0],"type":"VEC4"},{"bufferView":10,"componentType":5126,"count":48,"max":[0,1,0,0],"min":[0,1,0,0],"type":"VEC4"},{"bufferView":11,"componentType":5123,"count":36,"max":[23],"min":[0],"type":"SCALAR"},{"bufferView":12,"componentType":5123,"count":36,"max":[47],"min":[24],"type":"SCALAR"},{"bufferView":13,"componentType":5126,"count":144,"max":[0.06406249850988388,0.4078125059604645,0.2515625059604645],"min":[-0.18906250596046448,-0.0015624985098838806,-0.2515625059604645],"type":"VEC3"},{"bufferView":14,"componentType":5126,"count":144,"max":[1,1,1],"min":[-1,-1,-1],"type":"VEC3"},{"bufferView":15,"componentType":5126,"count":144,"max":[1,0.8125],"min":[0,0],"type":"VEC2"},{"bufferView":16,"componentType":5123,"count":144,"max":[0,0,0,0],"min":[0,0,0,0],"type":"VEC4"},{"bufferView":17,"componentType":5126,"count":144,"max":[0,1,0,0],"min":[0,1,0,0],"type":"VEC4"},{"bufferView":18,"componentType":5123,"count":72,"max":[47],"min":[0],"type":"SCALAR"},{"bufferView":19,"componentType":5123,"count":144,"max":[143],"min":[48],"type":"SCALAR"},{"bufferView":20,"componentType":5126,"count":144,"max":[0.0015624985098838806,0,-0.28125],"min":[-0.2562499940395355,-0.3125,-0.6890624761581421],"type":"VEC3"},{"bufferView":21,"componentType":5126,"count":144,"max":[1,1,1],"min":[-1,-1,-1],"type":"VEC3"},{"bufferView":22,"componentType":5126,"count":144,"max":[0.875,1],"min":[0,0],"type":"VEC2"},{"bufferView":23,"componentType":5123,"count":144,"max":[0,2,0,0],"min":[0,1,0,0],"type":"VEC4"},{"bufferView":24,"componentType":5126,"count":144,"max":[0,1,0,0],"min":[0,1,0,0],"type":"VEC4"},{"bufferView":25,"componentType":5123,"count":36,"max":[23],"min":[0],"type":"SCALAR"},{"bufferView":26,"componentType":5123,"count":180,"max":[143],"min":[24],"type":"SCALAR"},{"bufferView":27,"componentType":5126,"count":96,"max":[-0.03125,0.06312499940395355,0.09843750298023224],"min":[-0.20937499403953552,-0.25,-0.3375000059604645],"type":"VEC3"},{"bufferView":28,"componentType":5126,"count":96,"max":[1,1,1],"min":[-1,-1,-1],"type":"VEC3"},{"bufferView":29,"componentType":5126,"count":96,"max":[0.625,0.75],"min":[0,0],"type":"VEC2"},{"bufferView":30,"componentType":5123,"count":96,"max":[0,0,0,0],"min":[0,0,0,0],"type":"VEC4"},{"bufferView":31,"componentType":5126,"count":96,"max":[0,1,0,0],"min":[0,1,0,0],"type":"VEC4"},{"bufferView":32,"componentType":5123,"count":36,"max":[23],"min":[0],"type":"SCALAR"},{"bufferView":33,"componentType":5123,"count":36,"max":[47],"min":[24],"type":"SCALAR"},{"bufferView":34,"componentType":5123,"count":36,"max":[71],"min":[48],"type":"SCALAR"},{"bufferView":35,"componentType":5123,"count":36,"max":[95],"min":[72],"type":"SCALAR"},{"bufferView":36,"componentType":5126,"count":9,"max":[1,0,0,0,0,1,0,0,0,0,1,0,0,0,0,1],"min":[1,0,0,0,0,1,0,0,0,0,1,0,-0.01875000074505806,-0.5,-0.125,1],"type":"MAT4"},{"bufferView":37,"componentType":5126,"count":1,"max":[1,0,0,0,0,1,0,0,0,0,1,0,0,0,0,1],"min":[1,0,0,0,0,1,0,0,0,0,1,0,0,0,0,1],"type":"MAT4"},{"bufferView":38,"componentType":5126,"count":1,"max":[1,0,0,0,0,1,0,0,0,0,1,0,0,0,0,1],"min":[1,0,0,0,0,1,0,0,0,0,1,0,0,0,0,1],"type":"MAT4"},{"bufferView":39,"componentType":5126,"count":3,"max":[1,0,0,0,0,1,0,0,0,0,1,0,0,0,0,1],"min":[1,0,0,0,0,1,0,0,0,0,1,0,0,0,0,1],"type":"MAT4"},{"bufferView":40,"componentType":5126,"count":1,"max":[1,0,0,0,0,1,0,0,0,0,1,0,0,0,0,1],"min":[1,0,0,0,0,1,0,0,0,0,1,0,0,0,0,1],"type":"MAT4"}],"materials":[{"pbrMetallicRoughness":{"metallicFactor":0,"roughnessFactor":1,"baseColorTexture":{"index":0}},"alphaMode":"MASK","alphaCutoff":0.05,"doubleSided":true},{"pbrMetallicRoughness":{"metallicFactor":0,"roughnessFactor":1,"baseColorTexture":{"index":1}},"alphaMode":"MASK","alphaCutoff":0.05,"doubleSided":true},{"pbrMetallicRoughness":{"metallicFactor":0,"roughnessFactor":1,"baseColorTexture":{"index":2}},"alphaMode":"MASK","alphaCutoff":0.05,"doubleSided":true},{"pbrMetallicRoughness":{"metallicFactor":0,"roughnessFactor":1,"baseColorTexture":{"index":3}},"alphaMode":"MASK","alphaCutoff":0.05,"doubleSided":true},{"pbrMetallicRoughness":{"metallicFactor":0,"roughnessFactor":1,"baseColorTexture":{"index":4}},"alphaMode":"MASK","alphaCutoff":0.05,"doubleSided":true},{"pbrMetallicRoughness":{"metallicFactor":0,"roughnessFactor":1,"baseColorTexture":{"index":5}},"alphaMode":"MASK","alphaCutoff":0.05,"doubleSided":true},{"pbrMetallicRoughness":{"metallicFactor":0,"roughnessFactor":1,"baseColorTexture":{"index":6}},"alphaMode":"MASK","alphaCutoff":0.05,"doubleSided":true},{"pbrMetallicRoughness":{"metallicFactor":0,"roughnessFactor":1,"baseColorTexture":{"index":7}},"alphaMode":"MASK","alphaCutoff":0.05,"doubleSided":true},{"pbrMetallicRoughness":{"metallicFactor":0,"roughnessFactor":1,"baseColorTexture":{"index":8}},"alphaMode":"MASK","alphaCutoff":0.05,"doubleSided":true},{"pbrMetallicRoughness":{"metallicFactor":0,"roughnessFactor":1,"baseColorTexture":{"index":9}},"alphaMode":"MASK","alphaCutoff":0.05,"doubleSided":true},{"pbrMetallicRoughness":{"metallicFactor":0,"roughnessFactor":1,"baseColorTexture":{"index":10}},"alphaMode":"MASK","alphaCutoff":0.05,"doubleSided":true}],"textures":[{"sampler":0,"source":0,"name":"texture"},{"sampler":1,"source":1,"name":"texture"},{"sampler":2,"source":2,"name":"texture"},{"sampler":3,"source":3,"name":"texture"},{"sampler":4,"source":4,"name":"texture"},{"sampler":5,"source":5,"name":"texture"},{"sampler":6,"source":6,"name":"texture"},{"sampler":7,"source":7,"name":"texture"},{"sampler":8,"source":8,"name":"tindahan"},{"sampler":9,"source":9,"name":"tinda"},{"sampler":10,"source":10,"name":"texture"}],"samplers":[{"magFilter":9728,"minFilter":9728,"wrapS":33071,"wrapT":33071},{"magFilter":9728,"minFilter":9728,"wrapS":33071,"wrapT":33071},{"magFilter":9728,"minFilter":9728,"wrapS":33071,"wrapT":33071},{"magFilter":9728,"minFilter":9728,"wrapS":33071,"wrapT":33071},{"magFilter":9728,"minFilter":9728,"wrapS":33071,"wrapT":33071},{"magFilter":9728,"minFilter":9728,"wrapS":33071,"wrapT":33071},{"magFilter":9728,"minFilter":9728,"wrapS":33071,"wrapT":33071},{"magFilter":9728,"minFilter":9728,"wrapS":33071,"wrapT":33071},{"magFilter":9728,"minFilter":9728,"wrapS":33071,"wrapT":33071},{"magFilter":9728,"minFilter":9728,"wrapS":33071,"wrapT":33071},{"magFilter":9728,"minFilter":9728,"wrapS":33071,"wrapT":33071}],"images":[{"mimeType":"image/png","uri":"data:image/png;base64,"},{"mimeType":"image/png","uri":"data:image/png;base64,"},{"mimeType":"image/png","uri":"data:image/png;base64,"},{"mimeType":"image/png","uri":"data:image/png;base64,"},{"mimeType":"image/png","uri":"data:image/png;base64,"},{"mimeType":"image/png","uri":"data:image/png;base64,"},{"mimeType":"image/png","uri":"data:image/png;base64,"},{"mimeType":"image/png","uri":"data:image/png;base64,"},{"mimeType":"image/png","uri":"data:image/png;base64,"},{"mimeType":"image/png","uri":"data:image/png;base64,"},{"mimeType":"image/png","uri":"data:image/png;base64,"}],"meshes":[{"primitives":[{"mode":4,"attributes":{"POSITION":0,"NORMAL":1,"TEXCOORD_0":2,"JOINTS_0":3,"WEIGHTS_0":4},"indices":5,"material":0}]},{"primitives":[{"mode":4,"attributes":{"POSITION":6,"NORMAL":7,"TEXCOORD_0":8,"JOINTS_0":9,"WEIGHTS_0":10},"indices":11,"material":1},{"mode":4,"attributes":{"POSITION":6,"NORMAL":7,"TEXCOORD_0":8,"JOINTS_0":9,"WEIGHTS_0":10},"indices":12,"material":2}]},{"primitives":[{"mode":4,"attributes":{"POSITION":13,"NORMAL":14,"TEXCOORD_0":15,"JOINTS_0":16,"WEIGHTS_0":17},"indices":18,"material":3},{"mode":4,"attributes":{"POSITION":13,"NORMAL":14,"TEXCOORD_0":15,"JOINTS_0":16,"WEIGHTS_0":17},"indices":19,"material":4}]},{"primitives":[{"mode":4,"attributes":{"POSITION":20,"NORMAL":21,"TEXCOORD_0":22,"JOINTS_0":23,"WEIGHTS_0":24},"indices":25,"material":5},{"mode":4,"attributes":{"POSITION":20,"NORMAL":21,"TEXCOORD_0":22,"JOINTS_0":23,"WEIGHTS_0":24},"indices":26,"material":6}]},{"primitives":[{"mode":4,"attributes":{"POSITION":27,"NORMAL":28,"TEXCOORD_0":29,"JOINTS_0":30,"WEIGHTS_0":31},"indices":32,"material":7},{"mode":4,"attributes":{"POSITION":27,"NORMAL":28,"TEXCOORD_0":29,"JOINTS_0":30,"WEIGHTS_0":31},"indices":33,"material":8},{"mode":4,"attributes":{"POSITION":27,"NORMAL":28,"TEXCOORD_0":29,"JOINTS_0":30,"WEIGHTS_0":31},"indices":34,"material":9},{"mode":4,"attributes":{"POSITION":27,"NORMAL":28,"TEXCOORD_0":29,"JOINTS_0":30,"WEIGHTS_0":31},"indices":35,"material":10}]}],"skins":[{"inverseBindMatrices":36,"joints":[8,7,0,1,2,3,4,5,6],"skeleton":8},{"inverseBindMatrices":37,"joints":[10],"skeleton":10},{"inverseBindMatrices":38,"joints":[12],"skeleton":12},{"inverseBindMatrices":39,"joints":[16,14,15],"skeleton":16},{"inverseBindMatrices":40,"joints":[18],"skeleton":18}]}