{"asset":{"version":"2.0","generator":"Blockbench 4.12.6 glTF exporter"},"scenes":[{"nodes":[6],"name":"blockbench_export"}],"scene":0,"nodes":[{"rotation":[0,0,-0.35836794954530027,0.9335804264972017],"translation":[-0.015624999999999997,0,-0.05],"name":"cube","mesh":0},{"rotation":[0,0,-0.35836794954530027,0.9335804264972017],"translation":[-0.015624999999999997,0,-0.05],"name":"cube","mesh":1},{"translation":[0.04375,0.18125,0],"name":"Sign","children":[0,1]},{"translation":[-0.04375,-0.36875,0],"name":"cylinder","mesh":2},{"rotation":[0,0,-0.3502073812594674,0.9366721892483977],"name":"cylinder","mesh":3},{"translation":[0.04375,0.18125,0],"name":"Pole","children":[3,4]},{"children":[2,5]}],"bufferViews":[{"buffer":0,"byteOffset":0,"byteLength":288,"target":34962,"byteStride":12},{"buffer":0,"byteOffset":288,"byteLength":288,"target":34962,"byteStride":12},{"buffer":0,"byteOffset":576,"byteLength":192,"target":34962,"byteStride":8},{"buffer":0,"byteOffset":768,"byteLength":72,"target":34963},{"buffer":0,"byteOffset":840,"byteLength":288,"target":34962,"byteStride":12},{"buffer":0,"byteOffset":1128,"byteLength":288,"target":34962,"byteStride":12},{"buffer":0,"byteOffset":1416,"byteLength":192,"target":34962,"byteStride":8},{"buffer":0,"byteOffset":1608,"byteLength":72,"target":34963},{"buffer":0,"byteOffset":1680,"byteLength":1440,"target":34962,"byteStride":12},{"buffer":0,"byteOffset":3120,"byteLength":1440,"target":34962,"byteStride":12},{"buffer":0,"byteOffset":4560,"byteLength":960,"target":34962,"byteStride":8},{"buffer":0,"byteOffset":5520,"byteLength":288,"target":34963},{"buffer":0,"byteOffset":5808,"byteLength":1440,"target":34962,"byteStride":12},{"buffer":0,"byteOffset":7248,"byteLength":1440,"target":34962,"byteStride":12},{"buffer":0,"byteOffset":8688,"byteLength":960,"target":34962,"byteStride":8},{"buffer":0,"byteOffset":9648,"byteLength":288,"target":34963}],"buffers":[{"byteLength":9936,"uri":"data:application/octet-stream;base64,"}],"accessors":[{"bufferView":0,"componentType":5126,"count":24,"max":[0.20631250739097595,0.10006249696016312,0.0625625029206276],"min":[-0.0625625029206276,-0.1625625044107437,0.056187499314546585],"type":"VEC3"},{"bufferView":1,"componentType":5126,"count":24,"max":[1,1,1],"min":[-1,-1,-1],"type":"VEC3"},{"bufferView":2,"componentType":5126,"count":24,"max":[0.58203125,0.57421875],"min":[0,0],"type":"VEC2"},{"bufferView":3,"componentType":5123,"count":36,"max":[23],"min":[0],"type":"SCALAR"},{"bufferView":4,"componentType":5126,"count":24,"max":[0.09375,0.10000000149011612,0.0625],"min":[-0.0625,2.7755575615628914e-17,0.05624999850988388],"type":"VEC3"},{"bufferView":5,"componentType":5126,"count":24,"max":[1,1,1],"min":[-1,-1,-1],"type":"VEC3"},{"bufferView":6,"componentType":5126,"count":24,"max":[0.6875,0.703125],"min":[0,0],"type":"VEC2"},{"bufferView":7,"componentType":5123,"count":36,"max":[23],"min":[0],"type":"SCALAR"},{"bufferView":8,"componentType":5126,"count":120,"max":[0.0062500000931322575,0.3187499940395355,0.0062500000931322575],"min":[-0.0062500000931322575,0.18125000596046448,-0.0062500000931322575],"type":"VEC3"},{"bufferView":9,"componentType":5126,"count":120,"max":[1,1,1],"min":[-1,-1,-1],"type":"VEC3"},{"bufferView":10,"componentType":5126,"count":120,"max":[0.25881874561309814,1],"min":[0,0],"type":"VEC2"},{"bufferView":11,"componentType":5123,"count":144,"max":[119],"min":[0],"type":"SCALAR"},{"bufferView":12,"componentType":5126,"count":120,"max":[0.0062500000931322575,0.06875000149011612,0.0062500000931322575],"min":[-0.0062500000931322575,-0.06875000149011612,-0.0062500000931322575],"type":"VEC3"},{"bufferView":13,"componentType":5126,"count":120,"max":[1,1,1],"min":[-1,-1,-1],"type":"VEC3"},{"bufferView":14,"componentType":5126,"count":120,"max":[0.528124988079071,0.7749999761581421],"min":[0.0016687499592080712,0],"type":"VEC2"},{"bufferView":15,"componentType":5123,"count":144,"max":[119],"min":[0],"type":"SCALAR"}],"materials":[{"pbrMetallicRoughness":{"metallicFactor":0,"roughnessFactor":1,"baseColorTexture":{"index":0}},"alphaMode":"MASK","alphaCutoff":0.05,"doubleSided":true},{"pbrMetallicRoughness":{"metallicFactor":0,"roughnessFactor":1,"baseColorTexture":{"index":1}},"alphaMode":"MASK","alphaCutoff":0.05,"doubleSided":true},{"pbrMetallicRoughness":{"metallicFactor":0,"roughnessFactor":1,"baseColorTexture":{"index":2}},"alphaMode":"MASK","alphaCutoff":0.05,"doubleSided":true}],"textures":[{"sampler":0,"source":0,"name":"Vines.png"},{"sampler":1,"source":1,"name":"Sign.png"},{"sampler":2,"source":2,"name":"Pole1`.png"}],"samplers":[{"magFilter":9728,"minFilter":9728,"wrapS":33071,"wrapT":33071},{"magFilter":9728,"minFilter":9728,"wrapS":33071,"wrapT":33071},{"magFilter":9728,"minFilter":9728,"wrapS":33071,"wrapT":33071}],"images":[{"mimeType":"image/png","uri":"data:image/png;base64,"},{"mimeType":"image/png","uri":"data:image/png;base64,"},{"mimeType":"image/png","uri":"data:image/png;base64,"}],"meshes":[{"primitives":[{"mode":4,"attributes":{"POSITION":0,"NORMAL":1,"TEXCOORD_0":2},"indices":3,"material":0}]},{"primitives":[{"mode":4,"attributes":{"POSITION":4,"NORMAL":5,"TEXCOORD_0":6},"indices":7,"material":1}]},{"primitives":[{"mode":4,"attributes":{"POSITION":8,"NORMAL":9,"TEXCOORD_0":10},"indices":11,"material":2}]},{"primitives":[{"mode":4,"attributes":{"POSITION":12,"NORMAL":13,"TEXCOORD_0":14},"indices":15,"material":2}]}]}