{"asset":{"version":"2.0","generator":"Blockbench 4.12.6 glTF exporter"},"scenes":[{"nodes":[25],"name":"blockbench_export"}],"scene":0,"nodes":[{"rotation":[-0.20791169081775931,0,0,0.9781476007338057],"translation":[0.15624999999999994,0.25625000000000003,0.21250000000000008],"name":"cube","mesh":0},{"name":"1","children":[0]},{"rotation":[-0.22495105434386498,0,0,0.9743700647852352],"translation":[-0.18749999999999997,3.885780586188048e-16,-0.19999999999999998],"name":"cube","mesh":1},{"translation":[0.15624999999999994,0.25625000000000003,0.21250000000000008],"name":"2","children":[2]},{"rotation":[-0.22495105434386498,0,0,0.9743700647852352],"translation":[-0.1437499999999997,3.885780586188048e-16,-0.20000000000000015],"name":"cube","mesh":2},{"translation":[0.3999999999999997,0.25625000000000003,0.3437500000000002],"name":"7","children":[4]},{"rotation":[-0.22495105434386498,0,0,0.9743700647852352],"translation":[-0.25,0.2187499999999999,0.08750000000000006],"name":"cube","mesh":3},{"translation":[0.34374999999999994,0.25625000000000003,0.11250000000000003],"name":"3","children":[6]},{"rotation":[-0.22495105434386498,0,0,0.9743700647852352],"translation":[-0.25,0.2187499999999999,0.08749999999999986],"name":"cube","mesh":4},{"translation":[0.15624999999999994,0.25625000000000003,0.21250000000000008],"name":"4","children":[8]},{"rotation":[-0.22495105434386498,0,0,0.9743700647852352],"translation":[-0.18749999999999994,3.3306690738754696e-16,-0.19999999999999954],"name":"cube","mesh":5},{"translation":[-0.03125000000000011,0.38124999999999964,0.40624999999999967],"name":"5","children":[10]},{"rotation":[-0.22495105434386498,0,0,0.9743700647852352],"translation":[-0.08124999999999988,0.06875000000000009,-0.1999999999999999],"name":"cube","mesh":6},{"translation":[-0.03125000000000011,0.38124999999999964,0.25],"name":"6","children":[12]},{"name":"Leaves","children":[1,3,5,7,9,11,13]},{"translation":[-0.0125,0.375,-0.06562499999999999],"name":"4","mesh":7},{"rotation":[0.5847157101144783,0.7831441047139092,0.11660143306530223,0.1766265988017908],"translation":[-0.008875,0.202926875,0.09897843750000002],"name":"branch 1--2","mesh":8},{"rotation":[0.1299795704091225,-0.12773056810199776,0.7013070044530445,0.6891724738798688],"translation":[0.11643750000000004,0.41165624999999884,-0.11770312499999998],"name":"3","mesh":9},{"rotation":[0.6994643843941735,-0.6754649043867963,-0.06042010615679434,0.2254909059758679],"translation":[0,0.2608125000000001,0.07690625],"name":"branch 1","mesh":10},{"rotation":[-0.040022128338974575,0.07697386645307874,0.6564735691720711,0.7493435167564768],"translation":[-0.09012500000000001,0.3466768749999998,-0.07602156249999997],"name":"3-1","mesh":11},{"rotation":[-0.17167015230417293,-0.6137495125480206,0.014715312352039517,0.7704702163207291],"translation":[-0.008875,0.202926875,-0.04477156249999996],"name":"branch2","mesh":12},{"name":"Mini branch","children":[15,16,17,18,19,20]},{"name":"cylinder","mesh":13},{"name":"Main body","children":[22]},{"rotation":[0,0.573576436351046,0,0.8191520442889918],"name":"Tree wood","children":[21,23]},{"children":[14,24]}],"bufferViews":[{"buffer":0,"byteOffset":0,"byteLength":288,"target":34962,"byteStride":12},{"buffer":0,"byteOffset":288,"byteLength":288,"target":34962,"byteStride":12},{"buffer":0,"byteOffset":576,"byteLength":192,"target":34962,"byteStride":8},{"buffer":0,"byteOffset":768,"byteLength":72,"target":34963},{"buffer":0,"byteOffset":840,"byteLength":288,"target":34962,"byteStride":12},{"buffer":0,"byteOffset":1128,"byteLength":288,"target":34962,"byteStride":12},{"buffer":0,"byteOffset":1416,"byteLength":192,"target":34962,"byteStride":8},{"buffer":0,"byteOffset":1608,"byteLength":72,"target":34963},{"buffer":0,"byteOffset":1680,"byteLength":288,"target":34962,"byteStride":12},{"buffer":0,"byteOffset":1968,"byteLength":288,"target":34962,"byteStride":12},{"buffer":0,"byteOffset":2256,"byteLength":192,"target":34962,"byteStride":8},{"buffer":0,"byteOffset":2448,"byteLength":72,"target":34963},{"buffer":0,"byteOffset":2520,"byteLength":288,"target":34962,"byteStride":12},{"buffer":0,"byteOffset":2808,"byteLength":288,"target":34962,"byteStride":12},{"buffer":0,"byteOffset":3096,"byteLength":192,"target":34962,"byteStride":8},{"buffer":0,"byteOffset":3288,"byteLength":72,"target":34963},{"buffer":0,"byteOffset":3360,"byteLength":288,"target":34962,"byteStride":12},{"buffer":0,"byteOffset":3648,"byteLength":288,"target":34962,"byteStride":12},{"buffer":0,"byteOffset":3936,"byteLength":192,"target":34962,"byteStride":8},{"buffer":0,"byteOffset":4128,"byteLength":72,"target":34963},{"buffer":0,"byteOffset":4200,"byteLength":288,"target":34962,"byteStride":12},{"buffer":0,"byteOffset":4488,"byteLength":288,"target":34962,"byteStride":12},{"buffer":0,"byteOffset":4776,"byteLength":192,"target":34962,"byteStride":8},{"buffer":0,"byteOffset":4968,"byteLength":72,"target":34963},{"buffer":0,"byteOffset":5040,"byteLength":288,"target":34962,"byteStride":12},{"buffer":0,"byteOffset":5328,"byteLength":288,"target":34962,"byteStride":12},{"buffer":0,"byteOffset":5616,"byteLength":192,"target":34962,"byteStride":8},{"buffer":0,"byteOffset":5808,"byteLength":72,"target":34963},{"buffer":0,"byteOffset":5880,"byteLength":14208,"target":34962,"byteStride":12},{"buffer":0,"byteOffset":20088,"byteLength":14208,"target":34962,"byteStride":12},{"buffer":0,"byteOffset":34296,"byteLength":9472,"target":34962,"byteStride":8},{"buffer":0,"byteOffset":43768,"byteLength":3396,"target":34963},{"buffer":0,"byteOffset":47164,"byteLength":13752,"target":34962,"byteStride":12},{"buffer":0,"byteOffset":60916,"byteLength":13752,"target":34962,"byteStride":12},{"buffer":0,"byteOffset":74668,"byteLength":9168,"target":34962,"byteStride":8},{"buffer":0,"byteOffset":83836,"byteLength":3276,"target":34963},{"buffer":0,"byteOffset":87112,"byteLength":14424,"target":34962,"byteStride":12},{"buffer":0,"byteOffset":101536,"byteLength":14424,"target":34962,"byteStride":12},{"buffer":0,"byteOffset":115960,"byteLength":9616,"target":34962,"byteStride":8},{"buffer":0,"byteOffset":125576,"byteLength":3396,"target":34963},{"buffer":0,"byteOffset":128972,"byteLength":14208,"target":34962,"byteStride":12},{"buffer":0,"byteOffset":143180,"byteLength":14208,"target":34962,"byteStride":12},{"buffer":0,"byteOffset":157388,"byteLength":9472,"target":34962,"byteStride":8},{"buffer":0,"byteOffset":166860,"byteLength":3396,"target":34963},{"buffer":0,"byteOffset":170256,"byteLength":13752,"target":34962,"byteStride":12},{"buffer":0,"byteOffset":184008,"byteLength":13752,"target":34962,"byteStride":12},{"buffer":0,"byteOffset":197760,"byteLength":9168,"target":34962,"byteStride":8},{"buffer":0,"byteOffset":206928,"byteLength":3276,"target":34963},{"buffer":0,"byteOffset":210204,"byteLength":13752,"target":34962,"byteStride":12},{"buffer":0,"byteOffset":223956,"byteLength":13752,"target":34962,"byteStride":12},{"buffer":0,"byteOffset":237708,"byteLength":9168,"target":34962,"byteStride":8},{"buffer":0,"byteOffset":246876,"byteLength":3276,"target":34963},{"buffer":0,"byteOffset":250152,"byteLength":23376,"target":34962,"byteStride":12},{"buffer":0,"byteOffset":273528,"byteLength":23376,"target":34962,"byteStride":12},{"buffer":0,"byteOffset":296904,"byteLength":15584,"target":34962,"byteStride":8},{"buffer":0,"byteOffset":312488,"byteLength":5616,"target":34963}],"buffers":[{"byteLength":318104,"uri":"data:application/octet-stream;base64,"}],"accessors":[{"bufferView":0,"componentType":5126,"count":24,"max":[0.03125,0.11249999701976776,-0.062437500804662704],"min":[-0.08749999850988388,0.02500000037252903,-0.0625],"type":"VEC3"},{"bufferView":1,"componentType":5126,"count":24,"max":[1,1,1],"min":[-1,-1,-1],"type":"VEC3"},{"bufferView":2,"componentType":5126,"count":24,"max":[0.4765625,0.962890625],"min":[0,0.75],"type":"VEC2"},{"bufferView":3,"componentType":5123,"count":36,"max":[23],"min":[0],"type":"SCALAR"},{"bufferView":4,"componentType":5126,"count":24,"max":[0.09375,0.125,-0.062437500804662704],"min":[-0.09375,0,-0.0625],"type":"VEC3"},{"bufferView":5,"componentType":5126,"count":24,"max":[1,1,1],"min":[-1,-1,-1],"type":"VEC3"},{"bufferView":6,"componentType":5126,"count":24,"max":[0.75,1],"min":[0,0],"type":"VEC2"},{"bufferView":7,"componentType":5123,"count":36,"max":[23],"min":[0],"type":"SCALAR"},{"bufferView":8,"componentType":5126,"count":24,"max":[0.09375,0.125,-0.062437500804662704],"min":[-0.09375,0,-0.0625],"type":"VEC3"},{"bufferView":9,"componentType":5126,"count":24,"max":[1,1,1],"min":[-1,-1,-1],"type":"VEC3"},{"bufferView":10,"componentType":5126,"count":24,"max":[0.75,1],"min":[0,0.75],"type":"VEC2"},{"bufferView":11,"componentType":5123,"count":36,"max":[23],"min":[0],"type":"SCALAR"},{"bufferView":12,"componentType":5126,"count":24,"max":[0.1875,0.1875,-0.062437500804662704],"min":[-0.10625000298023224,-0.02500000037252903,-0.0625],"type":"VEC3"},{"bufferView":13,"componentType":5126,"count":24,"max":[1,1,1],"min":[-1,-1,-1],"type":"VEC3"},{"bufferView":14,"componentType":5126,"count":24,"max":[0.5859375,0.9189453125],"min":[0,0.75],"type":"VEC2"},{"bufferView":15,"componentType":5123,"count":36,"max":[23],"min":[0],"type":"SCALAR"},{"bufferView":16,"componentType":5126,"count":24,"max":[0.11249999701976776,0.1875,-0.062437500804662704],"min":[-0.16875000298023224,-0.03750000149011612,-0.0625],"type":"VEC3"},{"bufferView":17,"componentType":5126,"count":24,"max":[1,1,1],"min":[-1,-1,-1],"type":"VEC3"},{"bufferView":18,"componentType":5126,"count":24,"max":[0.4375,0.9873046875],"min":[0,0.75],"type":"VEC2"},{"bufferView":19,"componentType":5123,"count":36,"max":[23],"min":[0],"type":"SCALAR"},{"bufferView":20,"componentType":5126,"count":24,"max":[0.15625,0.1875,-0.062437500804662704],"min":[-0.15625,-0.0625,-0.0625],"type":"VEC3"},{"bufferView":21,"componentType":5126,"count":24,"max":[1,1,1],"min":[-1,-1,-1],"type":"VEC3"},{"bufferView":22,"componentType":5126,"count":24,"max":[0.625,0.25],"min":[0,0],"type":"VEC2"},{"bufferView":23,"componentType":5123,"count":36,"max":[23],"min":[0],"type":"SCALAR"},{"bufferView":24,"componentType":5126,"count":24,"max":[0.09375,0.1875,-0.062437500804662704],"min":[-0.15625,-5.551115123125783e-17,-0.0625],"type":"VEC3"},{"bufferView":25,"componentType":5126,"count":24,"max":[1,1,1],"min":[-1,-1,-1],"type":"VEC3"},{"bufferView":26,"componentType":5126,"count":24,"max":[0.5,0.75],"min":[0,0],"type":"VEC2"},{"bufferView":27,"componentType":5123,"count":36,"max":[23],"min":[0],"type":"SCALAR"},{"bufferView":28,"componentType":5126,"count":1184,"max":[0.05083003640174866,0.08086705952882767,0.045159921050071716],"min":[-0.027165666222572327,-0.006274780724197626,-0.05757680907845497],"type":"VEC3"},{"bufferView":29,"componentType":5126,"count":1184,"max":[0.9987578988075256,0.9801191091537476,0.9759815335273743],"min":[-0.9931039810180664,-0.9991978406906128,-0.9994537830352783],"type":"VEC3"},{"bufferView":30,"componentType":5126,"count":1184,"max":[0.6995503306388855,0.6974329352378845],"min":[0,0],"type":"VEC2"},{"bufferView":31,"componentType":5123,"count":1698,"max":[1183],"min":[0],"type":"SCALAR"},{"bufferView":32,"componentType":5126,"count":1146,"max":[0.07298227399587631,0.10382030159235,0.009903048165142536],"min":[0.046623583883047104,0.016559110954403877,-0.06814604252576828],"type":"VEC3"},{"bufferView":33,"componentType":5126,"count":1146,"max":[1,0.9979709386825562,0.9759815335273743],"min":[-1,-0.9806171655654907,-0.9994537830352783],"type":"VEC3"},{"bufferView":34,"componentType":5126,"count":1146,"max":[0.6340230107307434,0.630859375],"min":[0,0],"type":"VEC2"},{"bufferView":35,"componentType":5123,"count":1638,"max":[1145],"min":[0],"type":"SCALAR"},{"bufferView":36,"componentType":5126,"count":1202,"max":[0.14177122712135315,0.3420986533164978,0.12041446566581726],"min":[-0.004610119853168726,0.11454935371875763,0.02218274585902691],"type":"VEC3"},{"bufferView":37,"componentType":5126,"count":1202,"max":[0.9988825917243958,0.9903276562690735,0.9905549883842468],"min":[-0.9840582013130188,-0.8695330619812012,-0.9994248151779175],"type":"VEC3"},{"bufferView":38,"componentType":5126,"count":1202,"max":[0.5771484375,0.5732421875],"min":[0,0],"type":"VEC2"},{"bufferView":39,"componentType":5123,"count":1698,"max":[1201],"min":[0],"type":"SCALAR"},{"bufferView":40,"componentType":5126,"count":1184,"max":[0.015062259510159492,0.10453569889068604,0.048321112990379333],"min":[-0.02206265740096569,-0.018367387354373932,-0.06160718575119972],"type":"VEC3"},{"bufferView":41,"componentType":5126,"count":1184,"max":[1,0.9979709386825562,0.9759815335273743],"min":[-1,-0.9806171655654907,-0.9994537830352783],"type":"VEC3"},{"bufferView":42,"componentType":5126,"count":1184,"max":[0.6400468945503235,0.6281307935714722],"min":[0.00041577688534744084,0],"type":"VEC2"},{"bufferView":43,"componentType":5123,"count":1698,"max":[1183],"min":[0],"type":"SCALAR"},{"bufferView":44,"componentType":5126,"count":1146,"max":[0.07298227399587631,0.10382030159235,0.009903048165142536],"min":[0.046623583883047104,0.016559110954403877,-0.06814604252576828],"type":"VEC3"},{"bufferView":45,"componentType":5126,"count":1146,"max":[1,0.9979709386825562,0.9759815335273743],"min":[-1,-0.9806171655654907,-0.9994537830352783],"type":"VEC3"},{"bufferView":46,"componentType":5126,"count":1146,"max":[0.6340230107307434,0.630859375],"min":[0,0],"type":"VEC2"},{"bufferView":47,"componentType":5123,"count":1638,"max":[1145],"min":[0],"type":"SCALAR"},{"bufferView":48,"componentType":5126,"count":1146,"max":[0.07298227399587631,0.10382030159235,0.009903048165142536],"min":[0.046623583883047104,0.016559110954403877,-0.06814604252576828],"type":"VEC3"},{"bufferView":49,"componentType":5126,"count":1146,"max":[1,0.9979709386825562,0.9759815335273743],"min":[-1,-0.9806171655654907,-0.9994537830352783],"type":"VEC3"},{"bufferView":50,"componentType":5126,"count":1146,"max":[0.6340230107307434,0.630859375],"min":[0,0],"type":"VEC2"},{"bufferView":51,"componentType":5123,"count":1638,"max":[1145],"min":[0],"type":"SCALAR"},{"bufferView":52,"componentType":5126,"count":1948,"max":[0.1875,0.5122812390327454,0.1786627471446991],"min":[-0.17499999701976776,0,-0.14504815638065338],"type":"VEC3"},{"bufferView":53,"componentType":5126,"count":1948,"max":[1,1,0.9999856352806091],"min":[-1,-1,-0.9999382495880127],"type":"VEC3"},{"bufferView":54,"componentType":5126,"count":1948,"max":[0.7380266785621643,0.7636379599571228],"min":[0,0],"type":"VEC2"},{"bufferView":55,"componentType":5123,"count":2808,"max":[1947],"min":[0],"type":"SCALAR"}],"materials":[{"pbrMetallicRoughness":{"metallicFactor":0,"roughnessFactor":1,"baseColorTexture":{"index":0}},"alphaMode":"MASK","alphaCutoff":0.05,"doubleSided":true},{"pbrMetallicRoughness":{"metallicFactor":0,"roughnessFactor":1,"baseColorTexture":{"index":1}},"alphaMode":"MASK","alphaCutoff":0.05,"doubleSided":true},{"pbrMetallicRoughness":{"metallicFactor":0,"roughnessFactor":1,"baseColorTexture":{"index":2}},"alphaMode":"MASK","alphaCutoff":0.05,"doubleSided":true},{"pbrMetallicRoughness":{"metallicFactor":0,"roughnessFactor":1,"baseColorTexture":{"index":3}},"alphaMode":"MASK","alphaCutoff":0.05,"doubleSided":true},{"pbrMetallicRoughness":{"metallicFactor":0,"roughnessFactor":1,"baseColorTexture":{"index":4}},"alphaMode":"MASK","alphaCutoff":0.05,"doubleSided":true},{"pbrMetallicRoughness":{"metallicFactor":0,"roughnessFactor":1,"baseColorTexture":{"index":5}},"alphaMode":"MASK","alphaCutoff":0.05,"doubleSided":true},{"pbrMetallicRoughness":{"metallicFactor":0,"roughnessFactor":1,"baseColorTexture":{"index":6}},"alphaMode":"MASK","alphaCutoff":0.05,"doubleSided":true},{"pbrMetallicRoughness":{"metallicFactor":0,"roughnessFactor":1,"baseColorTexture":{"index":7}},"alphaMode":"MASK","alphaCutoff":0.05,"doubleSided":true},{"pbrMetallicRoughness":{"metallicFactor":0,"roughnessFactor":1,"baseColorTexture":{"index":8}},"alphaMode":"MASK","alphaCutoff":0.05,"doubleSided":true},{"pbrMetallicRoughness":{"metallicFactor":0,"roughnessFactor":1,"baseColorTexture":{"index":9}},"alphaMode":"MASK","alphaCutoff":0.05,"doubleSided":true},{"pbrMetallicRoughness":{"metallicFactor":0,"roughnessFactor":1,"baseColorTexture":{"index":10}},"alphaMode":"MASK","alphaCutoff":0.05,"doubleSided":true},{"pbrMetallicRoughness":{"metallicFactor":0,"roughnessFactor":1,"baseColorTexture":{"index":11}},"alphaMode":"MASK","alphaCutoff":0.05,"doubleSided":true},{"pbrMetallicRoughness":{"metallicFactor":0,"roughnessFactor":1,"baseColorTexture":{"index":12}},"alphaMode":"MASK","alphaCutoff":0.05,"doubleSided":true},{"pbrMetallicRoughness":{"metallicFactor":0,"roughnessFactor":1,"baseColorTexture":{"index":13}},"alphaMode":"MASK","alphaCutoff":0.05,"doubleSided":true}],"textures":[{"sampler":0,"source":0,"name":"leaves 1"},{"sampler":1,"source":1,"name":"2"},{"sampler":2,"source":2,"name":"7"},{"sampler":3,"source":3,"name":"3"},{"sampler":4,"source":4,"name":"4"},{"sampler":5,"source":5,"name":"5"},{"sampler":6,"source":6,"name":"6"},{"sampler":7,"source":7,"name":"4"},{"sampler":8,"source":8,"name":"1-2"},{"sampler":9,"source":9,"name":"3"},{"sampler":10,"source":10,"name":"1"},{"sampler":11,"source":11,"name":"3-1"},{"sampler":12,"source":12,"name":"2"},{"sampler":13,"source":13,"name":"Main body"}],"samplers":[{"magFilter":9728,"minFilter":9728,"wrapS":33071,"wrapT":33071},{"magFilter":9728,"minFilter":9728,"wrapS":33071,"wrapT":33071},{"magFilter":9728,"minFilter":9728,"wrapS":33071,"wrapT":33071},{"magFilter":9728,"minFilter":9728,"wrapS":33071,"wrapT":33071},{"magFilter":9728,"minFilter":9728,"wrapS":33071,"wrapT":33071},{"magFilter":9728,"minFilter":9728,"wrapS":33071,"wrapT":33071},{"magFilter":9728,"minFilter":9728,"wrapS":33071,"wrapT":33071},{"magFilter":9728,"minFilter":9728,"wrapS":33071,"wrapT":33071},{"magFilter":9728,"minFilter":9728,"wrapS":33071,"wrapT":33071},{"magFilter":9728,"minFilter":9728,"wrapS":33071,"wrapT":33071},{"magFilter":9728,"minFilter":9728,"wrapS":33071,"wrapT":33071},{"magFilter":9728,"minFilter":9728,"wrapS":33071,"wrapT":33071},{"magFilter":9728,"minFilter":9728,"wrapS":33071,"wrapT":33071},{"magFilter":9728,"minFilter":9728,"wrapS":33071,"wrapT":33071}],"images":[{"mimeType":"image/png","uri":"data:image/png;base64,"},{"mimeType":"image/png","uri":"data:image/png;base64,"},{"mimeType":"image/png","uri":"data:image/png;base64,"},{"mimeType":"image/png","uri":"data:image/png;base64,"},{"mimeType":"image/png","uri":"data:image/png;base64,"},{"mimeType":"image/png","uri":"data:image/png;base64,"},{"mimeType":"image/png","uri":"data:image/png;base64,"},{"mimeType":"image/png","uri":"data:image/png;base64,"},{"mimeType":"image/png","uri":"data:image/png;base64,"},{"mimeType":"image/png","uri":"data:image/png;base64,"},{"mimeType":"image/png","uri":"data:image/png;base64,"},{"mimeType":"image/png","uri":"data:image/png;base64,"},{"mimeType":"image/png","uri":"data:image/png;base64,"},{"mimeType":"image/png","uri":"data:image/png;base64,"}],"meshes":[{"primitives":[{"mode":4,"attributes":{"POSITION":0,"NORMAL":1,"TEXCOORD_0":2},"indices":3,"material":0}]},{"primitives":[{"mode":4,"attributes":{"POSITION":4,"NORMAL":5,"TEXCOORD_0":6},"indices":7,"material":1}]},{"primitives":[{"mode":4,"attributes":{"POSITION":8,"NORMAL":9,"TEXCOORD_0":10},"indices":11,"material":2}]},{"primitives":[{"mode":4,"attributes":{"POSITION":12,"NORMAL":13,"TEXCOORD_0":14},"indices":15,"material":3}]},{"primitives":[{"mode":4,"attributes":{"POSITION":16,"NORMAL":17,"TEXCOORD_0":18},"indices":19,"material":4}]},{"primitives":[{"mode":4,"attributes":{"POSITION":20,"NORMAL":21,"TEXCOORD_0":22},"indices":23,"material":5}]},{"primitives":[{"mode":4,"attributes":{"POSITION":24,"NORMAL":25,"TEXCOORD_0":26},"indices":27,"material":6}]},{"primitives":[{"mode":4,"attributes":{"POSITION":28,"NORMAL":29,"TEXCOORD_0":30},"indices":31,"material":7}]},{"primitives":[{"mode":4,"attributes":{"POSITION":32,"NORMAL":33,"TEXCOORD_0":34},"indices":35,"material":8}]},{"primitives":[{"mode":4,"attributes":{"POSITION":36,"NORMAL":37,"TEXCOORD_0":38},"indices":39,"material":9}]},{"primitives":[{"mode":4,"attributes":{"POSITION":40,"NORMAL":41,"TEXCOORD_0":42},"indices":43,"material":10}]},{"primitives":[{"mode":4,"attributes":{"POSITION":44,"NORMAL":45,"TEXCOORD_0":46},"indices":47,"material":11}]},{"primitives":[{"mode":4,"attributes":{"POSITION":48,"NORMAL":49,"TEXCOORD_0":50},"indices":51,"material":12}]},{"primitives":[{"mode":4,"attributes":{"POSITION":52,"NORMAL":53,"TEXCOORD_0":54},"indices":55,"material":13}]}]}