{"asset":{"version":"2.0","generator":"Blockbench 4.12.6 glTF exporter"},"scenes":[{"nodes":[28],"name":"blockbench_export"}],"scene":0,"nodes":[{"translation":[0.1125,0,0],"name":"cube","mesh":0},{"name":"Main body","children":[0]},{"rotation":[0.7071067811865475,0,0,0.7071067811865476],"translation":[0.10725000000000001,0.034125,0.078],"name":"cylinder","mesh":1},{"rotation":[0.7071067811865475,0,0,0.7071067811865476],"translation":[0.10725000000000001,0.034125,-0.121875],"name":"tube","mesh":2},{"translation":[0.062499999999999986,0,0],"name":"bone","children":[2,3]},{"rotation":[0.7071067811865475,0,0,0.7071067811865476],"translation":[0.10725000000000001,0.034125,0.078],"name":"cylinder","mesh":3},{"rotation":[0.7071067811865475,0,0,0.7071067811865476],"translation":[0.10725000000000001,0.034125,-0.12187499999999998],"name":"tube","mesh":4},{"translation":[0.062499999999999986,0,-0.18125],"name":"bone5","children":[5,6]},{"rotation":[0.7071067811865475,0,0,0.7071067811865476],"translation":[0.10725,0.034125,0.078],"name":"cylinder","mesh":5},{"rotation":[0.7071067811865475,0,0,0.7071067811865476],"translation":[0.10725,0.034125,-0.121875],"name":"tube","mesh":6},{"translation":[-0.037500000000000006,0,0],"name":"bone2","children":[8,9]},{"rotation":[0.7071067811865475,0,0,0.7071067811865476],"translation":[0.10725,0.034125,0.078],"name":"cylinder","mesh":7},{"rotation":[0.7071067811865475,0,0,0.7071067811865476],"translation":[0.10725,0.034125,-0.12187499999999998],"name":"tube","mesh":8},{"translation":[-0.037500000000000006,0,-0.18125],"name":"bone6","children":[11,12]},{"rotation":[0.7071067811865475,0,0,0.7071067811865476],"translation":[0.10724999999999998,0.034125,0.078],"name":"cylinder","mesh":9},{"rotation":[0.7071067811865475,0,0,0.7071067811865476],"translation":[0.10724999999999998,0.034125,-0.121875],"name":"tube","mesh":10},{"translation":[-0.39999999999999997,0,0],"name":"bone3","children":[14,15]},{"rotation":[0.7071067811865475,0,0,0.7071067811865476],"translation":[0.10724999999999998,0.034125,0.078],"name":"cylinder","mesh":11},{"rotation":[0.7071067811865475,0,0,0.7071067811865476],"translation":[0.10724999999999998,0.034125,-0.12187499999999998],"name":"tube","mesh":12},{"translation":[-0.39999999999999997,0,-0.18125],"name":"bone7","children":[17,18]},{"rotation":[0.7071067811865475,0,0,0.7071067811865476],"translation":[0.10724999999999996,0.034125,0.078],"name":"cylinder","mesh":13},{"rotation":[0.7071067811865475,0,0,0.7071067811865476],"translation":[0.10724999999999996,0.034125,-0.121875],"name":"tube","mesh":14},{"translation":[-0.49374999999999997,0,0],"name":"bone4","children":[20,21]},{"rotation":[0.7071067811865475,0,0,0.7071067811865476],"translation":[0.10724999999999996,0.034125,0.078],"name":"cylinder","mesh":15},{"rotation":[0.7071067811865475,0,0,0.7071067811865476],"translation":[0.10724999999999996,0.034125,-0.12187499999999998],"name":"tube","mesh":16},{"translation":[-0.49374999999999997,0,-0.18125],"name":"bone8","children":[23,24]},{"translation":[0.1125,0,0.01875],"name":"Wheels","children":[4,7,10,13,16,19,22,25]},{"name":"Train","children":[1,26]},{"children":[27]}],"bufferViews":[{"buffer":0,"byteOffset":0,"byteLength":1536,"target":34962,"byteStride":12},{"buffer":0,"byteOffset":1536,"byteLength":1536,"target":34962,"byteStride":12},{"buffer":0,"byteOffset":3072,"byteLength":1024,"target":34962,"byteStride":8},{"buffer":0,"byteOffset":4096,"byteLength":384,"target":34963},{"buffer":0,"byteOffset":4480,"byteLength":1920,"target":34962,"byteStride":12},{"buffer":0,"byteOffset":6400,"byteLength":1920,"target":34962,"byteStride":12},{"buffer":0,"byteOffset":8320,"byteLength":1280,"target":34962,"byteStride":8},{"buffer":0,"byteOffset":9600,"byteLength":384,"target":34963},{"buffer":0,"byteOffset":9984,"byteLength":3072,"target":34962,"byteStride":12},{"buffer":0,"byteOffset":13056,"byteLength":3072,"target":34962,"byteStride":12},{"buffer":0,"byteOffset":16128,"byteLength":2048,"target":34962,"byteStride":8},{"buffer":0,"byteOffset":18176,"byteLength":768,"target":34963},{"buffer":0,"byteOffset":18944,"byteLength":1920,"target":34962,"byteStride":12},{"buffer":0,"byteOffset":20864,"byteLength":1920,"target":34962,"byteStride":12},{"buffer":0,"byteOffset":22784,"byteLength":1280,"target":34962,"byteStride":8},{"buffer":0,"byteOffset":24064,"byteLength":384,"target":34963},{"buffer":0,"byteOffset":24448,"byteLength":3072,"target":34962,"byteStride":12},{"buffer":0,"byteOffset":27520,"byteLength":3072,"target":34962,"byteStride":12},{"buffer":0,"byteOffset":30592,"byteLength":2048,"target":34962,"byteStride":8},{"buffer":0,"byteOffset":32640,"byteLength":768,"target":34963},{"buffer":0,"byteOffset":33408,"byteLength":1920,"target":34962,"byteStride":12},{"buffer":0,"byteOffset":35328,"byteLength":1920,"target":34962,"byteStride":12},{"buffer":0,"byteOffset":37248,"byteLength":1280,"target":34962,"byteStride":8},{"buffer":0,"byteOffset":38528,"byteLength":384,"target":34963},{"buffer":0,"byteOffset":38912,"byteLength":3072,"target":34962,"byteStride":12},{"buffer":0,"byteOffset":41984,"byteLength":3072,"target":34962,"byteStride":12},{"buffer":0,"byteOffset":45056,"byteLength":2048,"target":34962,"byteStride":8},{"buffer":0,"byteOffset":47104,"byteLength":768,"target":34963},{"buffer":0,"byteOffset":47872,"byteLength":1920,"target":34962,"byteStride":12},{"buffer":0,"byteOffset":49792,"byteLength":1920,"target":34962,"byteStride":12},{"buffer":0,"byteOffset":51712,"byteLength":1280,"target":34962,"byteStride":8},{"buffer":0,"byteOffset":52992,"byteLength":384,"target":34963},{"buffer":0,"byteOffset":53376,"byteLength":3072,"target":34962,"byteStride":12},{"buffer":0,"byteOffset":56448,"byteLength":3072,"target":34962,"byteStride":12},{"buffer":0,"byteOffset":59520,"byteLength":2048,"target":34962,"byteStride":8},{"buffer":0,"byteOffset":61568,"byteLength":768,"target":34963},{"buffer":0,"byteOffset":62336,"byteLength":1920,"target":34962,"byteStride":12},{"buffer":0,"byteOffset":64256,"byteLength":1920,"target":34962,"byteStride":12},{"buffer":0,"byteOffset":66176,"byteLength":1280,"target":34962,"byteStride":8},{"buffer":0,"byteOffset":67456,"byteLength":384,"target":34963},{"buffer":0,"byteOffset":67840,"byteLength":3072,"target":34962,"byteStride":12},{"buffer":0,"byteOffset":70912,"byteLength":3072,"target":34962,"byteStride":12},{"buffer":0,"byteOffset":73984,"byteLength":2048,"target":34962,"byteStride":8},{"buffer":0,"byteOffset":76032,"byteLength":768,"target":34963},{"buffer":0,"byteOffset":76800,"byteLength":1920,"target":34962,"byteStride":12},{"buffer":0,"byteOffset":78720,"byteLength":1920,"target":34962,"byteStride":12},{"buffer":0,"byteOffset":80640,"byteLength":1280,"target":34962,"byteStride":8},{"buffer":0,"byteOffset":81920,"byteLength":384,"target":34963},{"buffer":0,"byteOffset":82304,"byteLength":3072,"target":34962,"byteStride":12},{"buffer":0,"byteOffset":85376,"byteLength":3072,"target":34962,"byteStride":12},{"buffer":0,"byteOffset":88448,"byteLength":2048,"target":34962,"byteStride":8},{"buffer":0,"byteOffset":90496,"byteLength":768,"target":34963},{"buffer":0,"byteOffset":91264,"byteLength":1920,"target":34962,"byteStride":12},{"buffer":0,"byteOffset":93184,"byteLength":1920,"target":34962,"byteStride":12},{"buffer":0,"byteOffset":95104,"byteLength":1280,"target":34962,"byteStride":8},{"buffer":0,"byteOffset":96384,"byteLength":384,"target":34963},{"buffer":0,"byteOffset":96768,"byteLength":3072,"target":34962,"byteStride":12},{"buffer":0,"byteOffset":99840,"byteLength":3072,"target":34962,"byteStride":12},{"buffer":0,"byteOffset":102912,"byteLength":2048,"target":34962,"byteStride":8},{"buffer":0,"byteOffset":104960,"byteLength":768,"target":34963},{"buffer":0,"byteOffset":105728,"byteLength":1920,"target":34962,"byteStride":12},{"buffer":0,"byteOffset":107648,"byteLength":1920,"target":34962,"byteStride":12},{"buffer":0,"byteOffset":109568,"byteLength":1280,"target":34962,"byteStride":8},{"buffer":0,"byteOffset":110848,"byteLength":384,"target":34963},{"buffer":0,"byteOffset":111232,"byteLength":3072,"target":34962,"byteStride":12},{"buffer":0,"byteOffset":114304,"byteLength":3072,"target":34962,"byteStride":12},{"buffer":0,"byteOffset":117376,"byteLength":2048,"target":34962,"byteStride":8},{"buffer":0,"byteOffset":119424,"byteLength":768,"target":34963}],"buffers":[{"byteLength":120192,"uri":"data:application/octet-stream;base64,"}],"accessors":[{"bufferView":0,"componentType":5126,"count":128,"max":[0.3031249940395355,0.33125001192092896,0.125],"min":[-0.550000011920929,0.03750000149011612,-0.125],"type":"VEC3"},{"bufferView":1,"componentType":5126,"count":128,"max":[0.9822118878364563,1,1],"min":[-1,-1,-1],"type":"VEC3"},{"bufferView":2,"componentType":5126,"count":128,"max":[0.9018815755844116,0.6081750392913818],"min":[0.0003906250058207661,0],"type":"VEC2"},{"bufferView":3,"componentType":5123,"count":192,"max":[127],"min":[0],"type":"SCALAR"},{"bufferView":4,"componentType":5126,"count":160,"max":[0.02681249938905239,0,0.02681249938905239],"min":[-0.02681249938905239,-0.009750000201165676,-0.02681249938905239],"type":"VEC3"},{"bufferView":5,"componentType":5126,"count":160,"max":[1,1,1],"min":[-1,-1,-1],"type":"VEC3"},{"bufferView":6,"componentType":5126,"count":160,"max":[0.5378437638282776,0.7749999761581421],"min":[0.00033999999868683517,0],"type":"VEC2"},{"bufferView":7,"componentType":5123,"count":192,"max":[159],"min":[0],"type":"SCALAR"},{"bufferView":8,"componentType":5126,"count":256,"max":[0.031687501817941666,0.20231249928474426,0.031687501817941666],"min":[-0.031687501817941666,0.18768750131130219,-0.031687501817941666],"type":"VEC3"},{"bufferView":9,"componentType":5126,"count":256,"max":[1,1,1],"min":[-1,-1,-1],"type":"VEC3"},{"bufferView":10,"componentType":5126,"count":256,"max":[0.8083974719047546,0.7792500257492065],"min":[0,0],"type":"VEC2"},{"bufferView":11,"componentType":5123,"count":384,"max":[255],"min":[0],"type":"SCALAR"},{"bufferView":12,"componentType":5126,"count":160,"max":[0.02681249938905239,0,0.02681249938905239],"min":[-0.02681249938905239,-0.009750000201165676,-0.02681249938905239],"type":"VEC3"},{"bufferView":13,"componentType":5126,"count":160,"max":[1,1,1],"min":[-1,-1,-1],"type":"VEC3"},{"bufferView":14,"componentType":5126,"count":160,"max":[0.5378437638282776,0.7749999761581421],"min":[0.00033999999868683517,0],"type":"VEC2"},{"bufferView":15,"componentType":5123,"count":192,"max":[159],"min":[0],"type":"SCALAR"},{"bufferView":16,"componentType":5126,"count":256,"max":[0.031687501817941666,0.20231249928474426,0.031687501817941666],"min":[-0.031687501817941666,0.18768750131130219,-0.031687501817941666],"type":"VEC3"},{"bufferView":17,"componentType":5126,"count":256,"max":[1,1,1],"min":[-1,-1,-1],"type":"VEC3"},{"bufferView":18,"componentType":5126,"count":256,"max":[0.8083974719047546,0.7792500257492065],"min":[0,0],"type":"VEC2"},{"bufferView":19,"componentType":5123,"count":384,"max":[255],"min":[0],"type":"SCALAR"},{"bufferView":20,"componentType":5126,"count":160,"max":[0.02681249938905239,0,0.02681249938905239],"min":[-0.02681249938905239,-0.009750000201165676,-0.02681249938905239],"type":"VEC3"},{"bufferView":21,"componentType":5126,"count":160,"max":[1,1,1],"min":[-1,-1,-1],"type":"VEC3"},{"bufferView":22,"componentType":5126,"count":160,"max":[0.5378437638282776,0.7749999761581421],"min":[0.00033999999868683517,0],"type":"VEC2"},{"bufferView":23,"componentType":5123,"count":192,"max":[159],"min":[0],"type":"SCALAR"},{"bufferView":24,"componentType":5126,"count":256,"max":[0.031687501817941666,0.20231249928474426,0.031687501817941666],"min":[-0.031687501817941666,0.18768750131130219,-0.031687501817941666],"type":"VEC3"},{"bufferView":25,"componentType":5126,"count":256,"max":[1,1,1],"min":[-1,-1,-1],"type":"VEC3"},{"bufferView":26,"componentType":5126,"count":256,"max":[0.8083974719047546,0.7792500257492065],"min":[0,0],"type":"VEC2"},{"bufferView":27,"componentType":5123,"count":384,"max":[255],"min":[0],"type":"SCALAR"},{"bufferView":28,"componentType":5126,"count":160,"max":[0.02681249938905239,0,0.02681249938905239],"min":[-0.02681249938905239,-0.009750000201165676,-0.02681249938905239],"type":"VEC3"},{"bufferView":29,"componentType":5126,"count":160,"max":[1,1,1],"min":[-1,-1,-1],"type":"VEC3"},{"bufferView":30,"componentType":5126,"count":160,"max":[0.5378437638282776,0.7749999761581421],"min":[0.00033999999868683517,0],"type":"VEC2"},{"bufferView":31,"componentType":5123,"count":192,"max":[159],"min":[0],"type":"SCALAR"},{"bufferView":32,"componentType":5126,"count":256,"max":[0.031687501817941666,0.20231249928474426,0.031687501817941666],"min":[-0.031687501817941666,0.18768750131130219,-0.031687501817941666],"type":"VEC3"},{"bufferView":33,"componentType":5126,"count":256,"max":[1,1,1],"min":[-1,-1,-1],"type":"VEC3"},{"bufferView":34,"componentType":5126,"count":256,"max":[0.8083974719047546,0.7792500257492065],"min":[0,0],"type":"VEC2"},{"bufferView":35,"componentType":5123,"count":384,"max":[255],"min":[0],"type":"SCALAR"},{"bufferView":36,"componentType":5126,"count":160,"max":[0.02681249938905239,0,0.02681249938905239],"min":[-0.02681249938905239,-0.009750000201165676,-0.02681249938905239],"type":"VEC3"},{"bufferView":37,"componentType":5126,"count":160,"max":[1,1,1],"min":[-1,-1,-1],"type":"VEC3"},{"bufferView":38,"componentType":5126,"count":160,"max":[0.5378437638282776,0.7749999761581421],"min":[0.00033999999868683517,0],"type":"VEC2"},{"bufferView":39,"componentType":5123,"count":192,"max":[159],"min":[0],"type":"SCALAR"},{"bufferView":40,"componentType":5126,"count":256,"max":[0.031687501817941666,0.20231249928474426,0.031687501817941666],"min":[-0.031687501817941666,0.18768750131130219,-0.031687501817941666],"type":"VEC3"},{"bufferView":41,"componentType":5126,"count":256,"max":[1,1,1],"min":[-1,-1,-1],"type":"VEC3"},{"bufferView":42,"componentType":5126,"count":256,"max":[0.8083974719047546,0.7792500257492065],"min":[0,0],"type":"VEC2"},{"bufferView":43,"componentType":5123,"count":384,"max":[255],"min":[0],"type":"SCALAR"},{"bufferView":44,"componentType":5126,"count":160,"max":[0.02681249938905239,0,0.02681249938905239],"min":[-0.02681249938905239,-0.009750000201165676,-0.02681249938905239],"type":"VEC3"},{"bufferView":45,"componentType":5126,"count":160,"max":[1,1,1],"min":[-1,-1,-1],"type":"VEC3"},{"bufferView":46,"componentType":5126,"count":160,"max":[0.5378437638282776,0.7749999761581421],"min":[0.00033999999868683517,0],"type":"VEC2"},{"bufferView":47,"componentType":5123,"count":192,"max":[159],"min":[0],"type":"SCALAR"},{"bufferView":48,"componentType":5126,"count":256,"max":[0.031687501817941666,0.20231249928474426,0.031687501817941666],"min":[-0.031687501817941666,0.18768750131130219,-0.031687501817941666],"type":"VEC3"},{"bufferView":49,"componentType":5126,"count":256,"max":[1,1,1],"min":[-1,-1,-1],"type":"VEC3"},{"bufferView":50,"componentType":5126,"count":256,"max":[0.8083974719047546,0.7792500257492065],"min":[0,0],"type":"VEC2"},{"bufferView":51,"componentType":5123,"count":384,"max":[255],"min":[0],"type":"SCALAR"},{"bufferView":52,"componentType":5126,"count":160,"max":[0.02681249938905239,0,0.02681249938905239],"min":[-0.02681249938905239,-0.009750000201165676,-0.02681249938905239],"type":"VEC3"},{"bufferView":53,"componentType":5126,"count":160,"max":[1,1,1],"min":[-1,-1,-1],"type":"VEC3"},{"bufferView":54,"componentType":5126,"count":160,"max":[0.5378437638282776,0.7749999761581421],"min":[0.00033999999868683517,0],"type":"VEC2"},{"bufferView":55,"componentType":5123,"count":192,"max":[159],"min":[0],"type":"SCALAR"},{"bufferView":56,"componentType":5126,"count":256,"max":[0.031687501817941666,0.20231249928474426,0.031687501817941666],"min":[-0.031687501817941666,0.18768750131130219,-0.031687501817941666],"type":"VEC3"},{"bufferView":57,"componentType":5126,"count":256,"max":[1,1,1],"min":[-1,-1,-1],"type":"VEC3"},{"bufferView":58,"componentType":5126,"count":256,"max":[0.8083974719047546,0.7792500257492065],"min":[0,0],"type":"VEC2"},{"bufferView":59,"componentType":5123,"count":384,"max":[255],"min":[0],"type":"SCALAR"},{"bufferView":60,"componentType":5126,"count":160,"max":[0.02681249938905239,0,0.02681249938905239],"min":[-0.02681249938905239,-0.009750000201165676,-0.02681249938905239],"type":"VEC3"},{"bufferView":61,"componentType":5126,"count":160,"max":[1,1,1],"min":[-1,-1,-1],"type":"VEC3"},{"bufferView":62,"componentType":5126,"count":160,"max":[0.5378437638282776,0.7749999761581421],"min":[0.00033999999868683517,0],"type":"VEC2"},{"bufferView":63,"componentType":5123,"count":192,"max":[159],"min":[0],"type":"SCALAR"},{"bufferView":64,"componentType":5126,"count":256,"max":[0.031687501817941666,0.20231249928474426,0.031687501817941666],"min":[-0.031687501817941666,0.18768750131130219,-0.031687501817941666],"type":"VEC3"},{"bufferView":65,"componentType":5126,"count":256,"max":[1,1,1],"min":[-1,-1,-1],"type":"VEC3"},{"bufferView":66,"componentType":5126,"count":256,"max":[0.8083974719047546,0.7792500257492065],"min":[0,0],"type":"VEC2"},{"bufferView":67,"componentType":5123,"count":384,"max":[255],"min":[0],"type":"SCALAR"}],"materials":[{"pbrMetallicRoughness":{"metallicFactor":0,"roughnessFactor":1,"baseColorTexture":{"index":0}},"alphaMode":"MASK","alphaCutoff":0.05,"doubleSided":true},{"pbrMetallicRoughness":{"metallicFactor":0,"roughnessFactor":1,"baseColorTexture":{"index":1}},"alphaMode":"MASK","alphaCutoff":0.05,"doubleSided":true},{"pbrMetallicRoughness":{"metallicFactor":0,"roughnessFactor":1,"baseColorTexture":{"index":2}},"alphaMode":"MASK","alphaCutoff":0.05,"doubleSided":true}],"textures":[{"sampler":0,"source":0,"name":"Main body.png"},{"sampler":1,"source":1,"name":"Wheel.png"},{"sampler":2,"source":2,"name":"Wheel1.png"}],"samplers":[{"magFilter":9728,"minFilter":9728,"wrapS":10497,"wrapT":10497},{"magFilter":9728,"minFilter":9728,"wrapS":10497,"wrapT":10497},{"magFilter":9728,"minFilter":9728,"wrapS":10497,"wrapT":10497}],"images":[{"mimeType":"image/png","uri":"data:image/png;base64,"},{"mimeType":"image/png","uri":"data:image/png;base64,"},{"mimeType":"image/png","uri":"data:image/png;base64,"}],"meshes":[{"primitives":[{"mode":4,"attributes":{"POSITION":0,"NORMAL":1,"TEXCOORD_0":2},"indices":3,"material":0}]},{"primitives":[{"mode":4,"attributes":{"POSITION":4,"NORMAL":5,"TEXCOORD_0":6},"indices":7,"material":1}]},{"primitives":[{"mode":4,"attributes":{"POSITION":8,"NORMAL":9,"TEXCOORD_0":10},"indices":11,"material":2}]},{"primitives":[{"mode":4,"attributes":{"POSITION":12,"NORMAL":13,"TEXCOORD_0":14},"indices":15,"material":1}]},{"primitives":[{"mode":4,"attributes":{"POSITION":16,"NORMAL":17,"TEXCOORD_0":18},"indices":19,"material":2}]},{"primitives":[{"mode":4,"attributes":{"POSITION":20,"NORMAL":21,"TEXCOORD_0":22},"indices":23,"material":1}]},{"primitives":[{"mode":4,"attributes":{"POSITION":24,"NORMAL":25,"TEXCOORD_0":26},"indices":27,"material":2}]},{"primitives":[{"mode":4,"attributes":{"POSITION":28,"NORMAL":29,"TEXCOORD_0":30},"indices":31,"material":1}]},{"primitives":[{"mode":4,"attributes":{"POSITION":32,"NORMAL":33,"TEXCOORD_0":34},"indices":35,"material":2}]},{"primitives":[{"mode":4,"attributes":{"POSITION":36,"NORMAL":37,"TEXCOORD_0":38},"indices":39,"material":1}]},{"primitives":[{"mode":4,"attributes":{"POSITION":40,"NORMAL":41,"TEXCOORD_0":42},"indices":43,"material":2}]},{"primitives":[{"mode":4,"attributes":{"POSITION":44,"NORMAL":45,"TEXCOORD_0":46},"indices":47,"material":1}]},{"primitives":[{"mode":4,"attributes":{"POSITION":48,"NORMAL":49,"TEXCOORD_0":50},"indices":51,"material":2}]},{"primitives":[{"mode":4,"attributes":{"POSITION":52,"NORMAL":53,"TEXCOORD_0":54},"indices":55,"material":1}]},{"primitives":[{"mode":4,"attributes":{"POSITION":56,"NORMAL":57,"TEXCOORD_0":58},"indices":59,"material":2}]},{"primitives":[{"mode":4,"attributes":{"POSITION":60,"NORMAL":61,"TEXCOORD_0":62},"indices":63,"material":1}]},{"primitives":[{"mode":4,"attributes":{"POSITION":64,"NORMAL":65,"TEXCOORD_0":66},"indices":67,"material":2}]}]}