{"asset":{"version":"2.0","generator":"Blockbench 4.12.6 glTF exporter"},"scenes":[{"nodes":[33],"name":"blockbench_export"}],"scene":0,"nodes":[{"translation":[-0.22499999999999998,0,0],"name":"dae03050-4847-9a23-6022-03b9f91e553e"},{"translation":[-0.4812500000000003,0,0],"name":"3713cee5-a5e6-355b-f636-0ee1c92df36b"},{"name":"dcaf65ec-2148-ea06-3bf2-4a0116855dae"},{"translation":[0.26875,0,-0.11875000000000001],"name":"17931dc7-43c3-2c11-5eba-fbd0ef98d6d9","children":[0,1,2]},{"translation":[0.5999999999999996,0,0],"name":"98b9ffd2-5d36-8ec3-8536-59a1861ff3d2"},{"translation":[0.20000000000000007,0,0],"name":"cylinder","mesh":0},{"translation":[0.19999999999999962,0,0],"name":"bone2","children":[5]},{"translation":[0.20000000000000007,0,0],"name":"cylinder","mesh":1},{"translation":[0.39999999999999963,0,0],"name":"bone3","children":[7]},{"translation":[0.19999999999999996,0,0],"name":"cylinder","mesh":2},{"translation":[0.5999999999999996,0,0],"name":"bone4","children":[9]},{"name":"cylinder","mesh":3},{"translation":[0.1999999999999995,0,0],"name":"cylinder","mesh":4},{"translation":[-0.46875,0,-0.26875000000000004],"name":"bone","children":[4,6,8,10,11,12]},{"rotation":[0,0,0.46174861323503386,0.8870108331782217],"translation":[-0.012499999999999956,0,0],"name":"cylinder","mesh":5},{"rotation":[-0.46174861323503386,-0.8870108331782217,2.8273948060450667e-17,5.4313748883036805e-17],"name":"cylinder","mesh":6},{"translation":[0.10624999999999973,0.06875,0.19375000000000003],"name":"bone5","children":[14,15]},{"rotation":[-0.46174861323503386,-0.8870108331782217,2.8273948060450667e-17,5.4313748883036805e-17],"name":"cylinder","mesh":7},{"rotation":[0,0,0.46174861323503386,0.8870108331782217],"translation":[-0.012499999999999956,0,0],"name":"cylinder","mesh":8},{"translation":[0.30624999999999974,0.06875,0.19375000000000003],"name":"bone6","children":[17,18]},{"rotation":[-0.46174861323503386,-0.8870108331782217,2.8273948060450667e-17,5.4313748883036805e-17],"name":"cylinder","mesh":9},{"rotation":[0,0,0.46174861323503386,0.8870108331782217],"translation":[-0.012499999999999956,0,0],"name":"cylinder","mesh":10},{"translation":[0.5062499999999999,0.06875,0.19375000000000003],"name":"bone7","children":[20,21]},{"rotation":[-0.46174861323503386,-0.8870108331782217,2.8273948060450667e-17,5.4313748883036805e-17],"name":"cylinder","mesh":11},{"rotation":[0,0,0.46174861323503386,0.8870108331782217],"translation":[-0.012499999999999956,0,0],"name":"cylinder","mesh":12},{"translation":[0.5062499999999999,0.06875,0.19375000000000003],"name":"bone8","children":[23,24]},{"rotation":[-0.46174861323503386,-0.8870108331782217,2.8273948060450667e-17,5.4313748883036805e-17],"name":"cylinder","mesh":13},{"rotation":[0,0,0.46174861323503386,0.8870108331782217],"translation":[-0.012499999999999956,0,0],"name":"cylinder","mesh":14},{"translation":[0.7062499999999998,0.06875,0.19375000000000003],"name":"bone9","children":[26,27]},{"translation":[-0.46875,0,-0.26875000000000004],"name":"x frame","children":[16,19,22,25,28]},{"translation":[0,0,0.11875000000000001],"name":"Metal frame","children":[3,13,29]},{"translation":[0,0,0.11875000000000001],"name":"cube","mesh":15},{"name":"Yero","children":[31]},{"children":[30,32]}],"bufferViews":[{"buffer":0,"byteOffset":0,"byteLength":1440,"target":34962,"byteStride":12},{"buffer":0,"byteOffset":1440,"byteLength":1440,"target":34962,"byteStride":12},{"buffer":0,"byteOffset":2880,"byteLength":960,"target":34962,"byteStride":8},{"buffer":0,"byteOffset":3840,"byteLength":288,"target":34963},{"buffer":0,"byteOffset":4128,"byteLength":1440,"target":34962,"byteStride":12},{"buffer":0,"byteOffset":5568,"byteLength":1440,"target":34962,"byteStride":12},{"buffer":0,"byteOffset":7008,"byteLength":960,"target":34962,"byteStride":8},{"buffer":0,"byteOffset":7968,"byteLength":288,"target":34963},{"buffer":0,"byteOffset":8256,"byteLength":1440,"target":34962,"byteStride":12},{"buffer":0,"byteOffset":9696,"byteLength":1440,"target":34962,"byteStride":12},{"buffer":0,"byteOffset":11136,"byteLength":960,"target":34962,"byteStride":8},{"buffer":0,"byteOffset":12096,"byteLength":288,"target":34963},{"buffer":0,"byteOffset":12384,"byteLength":1440,"target":34962,"byteStride":12},{"buffer":0,"byteOffset":13824,"byteLength":1440,"target":34962,"byteStride":12},{"buffer":0,"byteOffset":15264,"byteLength":960,"target":34962,"byteStride":8},{"buffer":0,"byteOffset":16224,"byteLength":288,"target":34963},{"buffer":0,"byteOffset":16512,"byteLength":1440,"target":34962,"byteStride":12},{"buffer":0,"byteOffset":17952,"byteLength":1440,"target":34962,"byteStride":12},{"buffer":0,"byteOffset":19392,"byteLength":960,"target":34962,"byteStride":8},{"buffer":0,"byteOffset":20352,"byteLength":288,"target":34963},{"buffer":0,"byteOffset":20640,"byteLength":1440,"target":34962,"byteStride":12},{"buffer":0,"byteOffset":22080,"byteLength":1440,"target":34962,"byteStride":12},{"buffer":0,"byteOffset":23520,"byteLength":960,"target":34962,"byteStride":8},{"buffer":0,"byteOffset":24480,"byteLength":288,"target":34963},{"buffer":0,"byteOffset":24768,"byteLength":1440,"target":34962,"byteStride":12},{"buffer":0,"byteOffset":26208,"byteLength":1440,"target":34962,"byteStride":12},{"buffer":0,"byteOffset":27648,"byteLength":960,"target":34962,"byteStride":8},{"buffer":0,"byteOffset":28608,"byteLength":288,"target":34963},{"buffer":0,"byteOffset":28896,"byteLength":1440,"target":34962,"byteStride":12},{"buffer":0,"byteOffset":30336,"byteLength":1440,"target":34962,"byteStride":12},{"buffer":0,"byteOffset":31776,"byteLength":960,"target":34962,"byteStride":8},{"buffer":0,"byteOffset":32736,"byteLength":288,"target":34963},{"buffer":0,"byteOffset":33024,"byteLength":1440,"target":34962,"byteStride":12},{"buffer":0,"byteOffset":34464,"byteLength":1440,"target":34962,"byteStride":12},{"buffer":0,"byteOffset":35904,"byteLength":960,"target":34962,"byteStride":8},{"buffer":0,"byteOffset":36864,"byteLength":288,"target":34963},{"buffer":0,"byteOffset":37152,"byteLength":1440,"target":34962,"byteStride":12},{"buffer":0,"byteOffset":38592,"byteLength":1440,"target":34962,"byteStride":12},{"buffer":0,"byteOffset":40032,"byteLength":960,"target":34962,"byteStride":8},{"buffer":0,"byteOffset":40992,"byteLength":288,"target":34963},{"buffer":0,"byteOffset":41280,"byteLength":1440,"target":34962,"byteStride":12},{"buffer":0,"byteOffset":42720,"byteLength":1440,"target":34962,"byteStride":12},{"buffer":0,"byteOffset":44160,"byteLength":960,"target":34962,"byteStride":8},{"buffer":0,"byteOffset":45120,"byteLength":288,"target":34963},{"buffer":0,"byteOffset":45408,"byteLength":1440,"target":34962,"byteStride":12},{"buffer":0,"byteOffset":46848,"byteLength":1440,"target":34962,"byteStride":12},{"buffer":0,"byteOffset":48288,"byteLength":960,"target":34962,"byteStride":8},{"buffer":0,"byteOffset":49248,"byteLength":288,"target":34963},{"buffer":0,"byteOffset":49536,"byteLength":1440,"target":34962,"byteStride":12},{"buffer":0,"byteOffset":50976,"byteLength":1440,"target":34962,"byteStride":12},{"buffer":0,"byteOffset":52416,"byteLength":960,"target":34962,"byteStride":8},{"buffer":0,"byteOffset":53376,"byteLength":288,"target":34963},{"buffer":0,"byteOffset":53664,"byteLength":1440,"target":34962,"byteStride":12},{"buffer":0,"byteOffset":55104,"byteLength":1440,"target":34962,"byteStride":12},{"buffer":0,"byteOffset":56544,"byteLength":960,"target":34962,"byteStride":8},{"buffer":0,"byteOffset":57504,"byteLength":288,"target":34963},{"buffer":0,"byteOffset":57792,"byteLength":1440,"target":34962,"byteStride":12},{"buffer":0,"byteOffset":59232,"byteLength":1440,"target":34962,"byteStride":12},{"buffer":0,"byteOffset":60672,"byteLength":960,"target":34962,"byteStride":8},{"buffer":0,"byteOffset":61632,"byteLength":288,"target":34963},{"buffer":0,"byteOffset":61920,"byteLength":288,"target":34962,"byteStride":12},{"buffer":0,"byteOffset":62208,"byteLength":288,"target":34962,"byteStride":12},{"buffer":0,"byteOffset":62496,"byteLength":192,"target":34962,"byteStride":8},{"buffer":0,"byteOffset":62688,"byteLength":72,"target":34963}],"buffers":[{"byteLength":62760,"uri":"data:application/octet-stream;base64,"}],"accessors":[{"bufferView":0,"componentType":5126,"count":120,"max":[0.0031250000465661287,0.14374999701976776,0.19687500596046448],"min":[-0.0031250000465661287,-0.0062500000931322575,0.19062499701976776],"type":"VEC3"},{"bufferView":1,"componentType":5126,"count":120,"max":[1,1,1],"min":[-1,-1,-1],"type":"VEC3"},{"bufferView":2,"componentType":5126,"count":120,"max":[1.0352764129638672,1.0352764129638672],"min":[0,0],"type":"VEC2"},{"bufferView":3,"componentType":5123,"count":144,"max":[119],"min":[0],"type":"SCALAR"},{"bufferView":4,"componentType":5126,"count":120,"max":[0.0031250000465661287,0.14374999701976776,0.19687500596046448],"min":[-0.0031250000465661287,-0.0062500000931322575,0.19062499701976776],"type":"VEC3"},{"bufferView":5,"componentType":5126,"count":120,"max":[1,1,1],"min":[-1,-1,-1],"type":"VEC3"},{"bufferView":6,"componentType":5126,"count":120,"max":[1.0352764129638672,1.0352764129638672],"min":[0,0],"type":"VEC2"},{"bufferView":7,"componentType":5123,"count":144,"max":[119],"min":[0],"type":"SCALAR"},{"bufferView":8,"componentType":5126,"count":120,"max":[0.0031250000465661287,0.14374999701976776,0.19687500596046448],"min":[-0.0031250000465661287,-0.0062500000931322575,0.19062499701976776],"type":"VEC3"},{"bufferView":9,"componentType":5126,"count":120,"max":[1,1,1],"min":[-1,-1,-1],"type":"VEC3"},{"bufferView":10,"componentType":5126,"count":120,"max":[0.5218750238418579,0.800000011920929],"min":[0.010599999688565731,0],"type":"VEC2"},{"bufferView":11,"componentType":5123,"count":144,"max":[119],"min":[0],"type":"SCALAR"},{"bufferView":12,"componentType":5126,"count":120,"max":[0.0031250000465661287,0.14374999701976776,0.19687500596046448],"min":[-0.0031250000465661287,-0.0062500000931322575,0.19062499701976776],"type":"VEC3"},{"bufferView":13,"componentType":5126,"count":120,"max":[1,1,1],"min":[-1,-1,-1],"type":"VEC3"},{"bufferView":14,"componentType":5126,"count":120,"max":[1.0352764129638672,1.0352764129638672],"min":[0,0],"type":"VEC2"},{"bufferView":15,"componentType":5123,"count":144,"max":[119],"min":[0],"type":"SCALAR"},{"bufferView":16,"componentType":5126,"count":120,"max":[0.0031250000465661287,0.14374999701976776,0.19687500596046448],"min":[-0.0031250000465661287,-0.0062500000931322575,0.19062499701976776],"type":"VEC3"},{"bufferView":17,"componentType":5126,"count":120,"max":[1,1,1],"min":[-1,-1,-1],"type":"VEC3"},{"bufferView":18,"componentType":5126,"count":120,"max":[1.0352764129638672,1.0352764129638672],"min":[0,0],"type":"VEC2"},{"bufferView":19,"componentType":5123,"count":144,"max":[119],"min":[0],"type":"SCALAR"},{"bufferView":20,"componentType":5126,"count":120,"max":[0.017047705128788948,0.10720077902078629,0.0031250000465661287],"min":[-0.009878000244498253,-0.11744017899036407,-0.0031250000465661287],"type":"VEC3"},{"bufferView":21,"componentType":5126,"count":120,"max":[0.9957621693611145,0.9965832829475403,1],"min":[-0.9957621693611145,-0.9965832829475403,-1],"type":"VEC3"},{"bufferView":22,"componentType":5126,"count":120,"max":[1.0352764129638672,1.0352764129638672],"min":[0,0],"type":"VEC2"},{"bufferView":23,"componentType":5123,"count":144,"max":[119],"min":[0],"type":"SCALAR"},{"bufferView":24,"componentType":5126,"count":120,"max":[0.017047705128788948,0.10720077902078629,0.0031250000465661287],"min":[-0.009878000244498253,-0.11744017899036407,-0.0031250000465661287],"type":"VEC3"},{"bufferView":25,"componentType":5126,"count":120,"max":[0.9957621693611145,0.9965832829475403,1],"min":[-0.9957621693611145,-0.9965832829475403,-1],"type":"VEC3"},{"bufferView":26,"componentType":5126,"count":120,"max":[1.0352764129638672,1.0352764129638672],"min":[0,0],"type":"VEC2"},{"bufferView":27,"componentType":5123,"count":144,"max":[119],"min":[0],"type":"SCALAR"},{"bufferView":28,"componentType":5126,"count":120,"max":[0.017047705128788948,0.10720077902078629,0.0031250000465661287],"min":[-0.009878000244498253,-0.11744017899036407,-0.0031250000465661287],"type":"VEC3"},{"bufferView":29,"componentType":5126,"count":120,"max":[0.9957621693611145,0.9965832829475403,1],"min":[-0.9957621693611145,-0.9965832829475403,-1],"type":"VEC3"},{"bufferView":30,"componentType":5126,"count":120,"max":[1.0352764129638672,1.0352764129638672],"min":[0,0],"type":"VEC2"},{"bufferView":31,"componentType":5123,"count":144,"max":[119],"min":[0],"type":"SCALAR"},{"bufferView":32,"componentType":5126,"count":120,"max":[0.017047705128788948,0.10720077902078629,0.0031250000465661287],"min":[-0.009878000244498253,-0.11744017899036407,-0.0031250000465661287],"type":"VEC3"},{"bufferView":33,"componentType":5126,"count":120,"max":[0.9957621693611145,0.9965832829475403,1],"min":[-0.9957621693611145,-0.9965832829475403,-1],"type":"VEC3"},{"bufferView":34,"componentType":5126,"count":120,"max":[1.0352764129638672,1.0352764129638672],"min":[0,0],"type":"VEC2"},{"bufferView":35,"componentType":5123,"count":144,"max":[119],"min":[0],"type":"SCALAR"},{"bufferView":36,"componentType":5126,"count":120,"max":[0.017047705128788948,0.10720077902078629,0.0031250000465661287],"min":[-0.009878000244498253,-0.11744017899036407,-0.0031250000465661287],"type":"VEC3"},{"bufferView":37,"componentType":5126,"count":120,"max":[0.9957621693611145,0.9965832829475403,1],"min":[-0.9957621693611145,-0.9965832829475403,-1],"type":"VEC3"},{"bufferView":38,"componentType":5126,"count":120,"max":[1.0352764129638672,1.0352764129638672],"min":[0,0],"type":"VEC2"},{"bufferView":39,"componentType":5123,"count":144,"max":[119],"min":[0],"type":"SCALAR"},{"bufferView":40,"componentType":5126,"count":120,"max":[0.017047705128788948,0.10720077902078629,0.0031250000465661287],"min":[-0.009878000244498253,-0.11744017899036407,-0.0031250000465661287],"type":"VEC3"},{"bufferView":41,"componentType":5126,"count":120,"max":[0.9957621693611145,0.9965832829475403,1],"min":[-0.9957621693611145,-0.9965832829475403,-1],"type":"VEC3"},{"bufferView":42,"componentType":5126,"count":120,"max":[1.0352764129638672,1.0352764129638672],"min":[0,0],"type":"VEC2"},{"bufferView":43,"componentType":5123,"count":144,"max":[119],"min":[0],"type":"SCALAR"},{"bufferView":44,"componentType":5126,"count":120,"max":[0.017047705128788948,0.10720077902078629,0.0031250000465661287],"min":[-0.009878000244498253,-0.11744017899036407,-0.0031250000465661287],"type":"VEC3"},{"bufferView":45,"componentType":5126,"count":120,"max":[0.9957621693611145,0.9965832829475403,1],"min":[-0.9957621693611145,-0.9965832829475403,-1],"type":"VEC3"},{"bufferView":46,"componentType":5126,"count":120,"max":[1.0352764129638672,1.0352764129638672],"min":[0,0],"type":"VEC2"},{"bufferView":47,"componentType":5123,"count":144,"max":[119],"min":[0],"type":"SCALAR"},{"bufferView":48,"componentType":5126,"count":120,"max":[0.017047705128788948,0.10720077902078629,0.0031250000465661287],"min":[-0.009878000244498253,-0.11744017899036407,-0.0031250000465661287],"type":"VEC3"},{"bufferView":49,"componentType":5126,"count":120,"max":[0.9957621693611145,0.9965832829475403,1],"min":[-0.9957621693611145,-0.9965832829475403,-1],"type":"VEC3"},{"bufferView":50,"componentType":5126,"count":120,"max":[1.0352764129638672,1.0352764129638672],"min":[0,0],"type":"VEC2"},{"bufferView":51,"componentType":5123,"count":144,"max":[119],"min":[0],"type":"SCALAR"},{"bufferView":52,"componentType":5126,"count":120,"max":[0.017047705128788948,0.10720077902078629,0.0031250000465661287],"min":[-0.009878000244498253,-0.11744017899036407,-0.0031250000465661287],"type":"VEC3"},{"bufferView":53,"componentType":5126,"count":120,"max":[0.9957621693611145,0.9965832829475403,1],"min":[-0.9957621693611145,-0.9965832829475403,-1],"type":"VEC3"},{"bufferView":54,"componentType":5126,"count":120,"max":[1.0352764129638672,1.0352764129638672],"min":[0,0],"type":"VEC2"},{"bufferView":55,"componentType":5123,"count":144,"max":[119],"min":[0],"type":"SCALAR"},{"bufferView":56,"componentType":5126,"count":120,"max":[0.017047705128788948,0.10720077902078629,0.0031250000465661287],"min":[-0.009878000244498253,-0.11744017899036407,-0.0031250000465661287],"type":"VEC3"},{"bufferView":57,"componentType":5126,"count":120,"max":[0.9957621693611145,0.9965832829475403,1],"min":[-0.9957621693611145,-0.9965832829475403,-1],"type":"VEC3"},{"bufferView":58,"componentType":5126,"count":120,"max":[1.0352764129638672,1.0352764129638672],"min":[0,0],"type":"VEC2"},{"bufferView":59,"componentType":5123,"count":144,"max":[119],"min":[0],"type":"SCALAR"},{"bufferView":60,"componentType":5126,"count":24,"max":[0.36250001192092896,0.13750000298023224,-0.062437500804662704],"min":[-0.5,0,-0.0625],"type":"VEC3"},{"bufferView":61,"componentType":5126,"count":24,"max":[1,1,1],"min":[-1,-1,-1],"type":"VEC3"},{"bufferView":62,"componentType":5126,"count":24,"max":[0.859375,0.328125],"min":[0,0],"type":"VEC2"},{"bufferView":63,"componentType":5123,"count":36,"max":[23],"min":[0],"type":"SCALAR"}],"materials":[{"pbrMetallicRoughness":{"metallicFactor":0,"roughnessFactor":1,"baseColorTexture":{"index":0}},"alphaMode":"MASK","alphaCutoff":0.05,"doubleSided":true},{"pbrMetallicRoughness":{"metallicFactor":0,"roughnessFactor":1,"baseColorTexture":{"index":1}},"alphaMode":"MASK","alphaCutoff":0.05,"doubleSided":true}],"textures":[{"sampler":0,"source":0,"name":"FrameS"},{"sampler":1,"source":1,"name":"YeroS"}],"samplers":[{"magFilter":9728,"minFilter":9728,"wrapS":33071,"wrapT":33071},{"magFilter":9728,"minFilter":9728,"wrapS":33071,"wrapT":33071}],"images":[{"mimeType":"image/png","uri":"data:image/png;base64,"},{"mimeType":"image/png","uri":"data:image/png;base64,"}],"meshes":[{"primitives":[{"mode":4,"attributes":{"POSITION":0,"NORMAL":1,"TEXCOORD_0":2},"indices":3,"material":0}]},{"primitives":[{"mode":4,"attributes":{"POSITION":4,"NORMAL":5,"TEXCOORD_0":6},"indices":7,"material":0}]},{"primitives":[{"mode":4,"attributes":{"POSITION":8,"NORMAL":9,"TEXCOORD_0":10},"indices":11,"material":0}]},{"primitives":[{"mode":4,"attributes":{"POSITION":12,"NORMAL":13,"TEXCOORD_0":14},"indices":15,"material":0}]},{"primitives":[{"mode":4,"attributes":{"POSITION":16,"NORMAL":17,"TEXCOORD_0":18},"indices":19,"material":0}]},{"primitives":[{"mode":4,"attributes":{"POSITION":20,"NORMAL":21,"TEXCOORD_0":22},"indices":23,"material":0}]},{"primitives":[{"mode":4,"attributes":{"POSITION":24,"NORMAL":25,"TEXCOORD_0":26},"indices":27,"material":0}]},{"primitives":[{"mode":4,"attributes":{"POSITION":28,"NORMAL":29,"TEXCOORD_0":30},"indices":31,"material":0}]},{"primitives":[{"mode":4,"attributes":{"POSITION":32,"NORMAL":33,"TEXCOORD_0":34},"indices":35,"material":0}]},{"primitives":[{"mode":4,"attributes":{"POSITION":36,"NORMAL":37,"TEXCOORD_0":38},"indices":39,"material":0}]},{"primitives":[{"mode":4,"attributes":{"POSITION":40,"NORMAL":41,"TEXCOORD_0":42},"indices":43,"material":0}]},{"primitives":[{"mode":4,"attributes":{"POSITION":44,"NORMAL":45,"TEXCOORD_0":46},"indices":47,"material":0}]},{"primitives":[{"mode":4,"attributes":{"POSITION":48,"NORMAL":49,"TEXCOORD_0":50},"indices":51,"material":0}]},{"primitives":[{"mode":4,"attributes":{"POSITION":52,"NORMAL":53,"TEXCOORD_0":54},"indices":55,"material":0}]},{"primitives":[{"mode":4,"attributes":{"POSITION":56,"NORMAL":57,"TEXCOORD_0":58},"indices":59,"material":0}]},{"primitives":[{"mode":4,"attributes":{"POSITION":60,"NORMAL":61,"TEXCOORD_0":62},"indices":63,"material":1}]}]}