{"asset":{"version":"2.0","generator":"Blockbench 4.12.6 glTF exporter"},"scenes":[{"nodes":[24],"name":"blockbench_export"}],"scene":0,"nodes":[{"translation":[-0.018750000000000003,0.043749999999999845,0],"name":"Sign","mesh":0},{"translation":[-0.025,0.043749999999999845,0],"name":"Sign","mesh":1},{"translation":[-0.025,0.043749999999999845,0],"name":"Sign","mesh":2},{"translation":[0,0.18124999999999958,-0.01249999999999999],"name":"Arkwall","children":[0,1,2]},{"translation":[0,0.025000000000000577,-0.33125000000000004],"name":"cylinder","mesh":3},{"rotation":[-0.7071067811865475,0,0,0.7071067811865476],"translation":[0,0.3562500000000004,0.24375000000000005],"name":"cylinder","mesh":4},{"rotation":[-0.7071067811865475,0,0,0.7071067811865476],"translation":[0,0.23750000000000082,0.24375000000000005],"name":"cylinder","mesh":5},{"translation":[0,0.025000000000000577,0.3187499999999999],"name":"cylinder","mesh":6},{"translation":[0,0.025000000000000577,0.29375],"name":"cylinder","mesh":7},{"rotation":[-0.7071067811865475,0,0,0.7071067811865476],"translation":[0,0.187500000000001,-0.06249999999999996],"name":"cylinder","mesh":8},{"rotation":[-0.7071067811865475,0,0,0.7071067811865476],"translation":[0,0.187500000000001,0.5624999999999998],"name":"cylinder","mesh":9},{"rotation":[-0.5,0.4999999999999999,0.5,0.5000000000000001],"translation":[0.24999999999999997,0.18125000000000102,-0.31249999999999983],"name":"cylinder","mesh":10},{"rotation":[0,0,0.10886687485196457,0.9940563382223196],"translation":[0.08125,0.025000000000000577,-0.31250000000000006],"name":"cylinder","mesh":11},{"translation":[0,0.025000000000000577,-0.29375000000000007],"name":"cylinder","mesh":12},{"translation":[-0.025,0,0],"name":"bone","children":[4,5,6,7,8,9,10,11,12,13]},{"translation":[0,0.375,0],"name":"Sig","children":[3,14]},{"translation":[0,0,0.3125000000000001],"name":"cube","mesh":13},{"translation":[0,0,0.3125000000000001],"name":"cube","mesh":14},{"translation":[0,0,0.3125000000000001],"name":"Base","mesh":15},{"translation":[0,0,-1.1102230246251565e-16],"name":"poste","children":[16,17,18]},{"translation":[0,0,0.3125],"name":"Base","mesh":16},{"translation":[0,0,0.3125],"name":"cube","mesh":17},{"translation":[0,0,0.3125],"name":"cube","mesh":18},{"translation":[0,0,-0.625],"name":"poste2","children":[20,21,22]},{"children":[15,19,23]}],"bufferViews":[{"buffer":0,"byteOffset":0,"byteLength":288,"target":34962,"byteStride":12},{"buffer":0,"byteOffset":288,"byteLength":288,"target":34962,"byteStride":12},{"buffer":0,"byteOffset":576,"byteLength":192,"target":34962,"byteStride":8},{"buffer":0,"byteOffset":768,"byteLength":72,"target":34963},{"buffer":0,"byteOffset":840,"byteLength":288,"target":34962,"byteStride":12},{"buffer":0,"byteOffset":1128,"byteLength":288,"target":34962,"byteStride":12},{"buffer":0,"byteOffset":1416,"byteLength":192,"target":34962,"byteStride":8},{"buffer":0,"byteOffset":1608,"byteLength":72,"target":34963},{"buffer":0,"byteOffset":1680,"byteLength":288,"target":34962,"byteStride":12},{"buffer":0,"byteOffset":1968,"byteLength":288,"target":34962,"byteStride":12},{"buffer":0,"byteOffset":2256,"byteLength":192,"target":34962,"byteStride":8},{"buffer":0,"byteOffset":2448,"byteLength":72,"target":34963},{"buffer":0,"byteOffset":2520,"byteLength":1440,"target":34962,"byteStride":12},{"buffer":0,"byteOffset":3960,"byteLength":1440,"target":34962,"byteStride":12},{"buffer":0,"byteOffset":5400,"byteLength":960,"target":34962,"byteStride":8},{"buffer":0,"byteOffset":6360,"byteLength":288,"target":34963},{"buffer":0,"byteOffset":6648,"byteLength":1440,"target":34962,"byteStride":12},{"buffer":0,"byteOffset":8088,"byteLength":1440,"target":34962,"byteStride":12},{"buffer":0,"byteOffset":9528,"byteLength":960,"target":34962,"byteStride":8},{"buffer":0,"byteOffset":10488,"byteLength":288,"target":34963},{"buffer":0,"byteOffset":10776,"byteLength":1440,"target":34962,"byteStride":12},{"buffer":0,"byteOffset":12216,"byteLength":1440,"target":34962,"byteStride":12},{"buffer":0,"byteOffset":13656,"byteLength":960,"target":34962,"byteStride":8},{"buffer":0,"byteOffset":14616,"byteLength":288,"target":34963},{"buffer":0,"byteOffset":14904,"byteLength":1440,"target":34962,"byteStride":12},{"buffer":0,"byteOffset":16344,"byteLength":1440,"target":34962,"byteStride":12},{"buffer":0,"byteOffset":17784,"byteLength":960,"target":34962,"byteStride":8},{"buffer":0,"byteOffset":18744,"byteLength":288,"target":34963},{"buffer":0,"byteOffset":19032,"byteLength":1440,"target":34962,"byteStride":12},{"buffer":0,"byteOffset":20472,"byteLength":1440,"target":34962,"byteStride":12},{"buffer":0,"byteOffset":21912,"byteLength":960,"target":34962,"byteStride":8},{"buffer":0,"byteOffset":22872,"byteLength":288,"target":34963},{"buffer":0,"byteOffset":23160,"byteLength":1440,"target":34962,"byteStride":12},{"buffer":0,"byteOffset":24600,"byteLength":1440,"target":34962,"byteStride":12},{"buffer":0,"byteOffset":26040,"byteLength":960,"target":34962,"byteStride":8},{"buffer":0,"byteOffset":27000,"byteLength":288,"target":34963},{"buffer":0,"byteOffset":27288,"byteLength":1440,"target":34962,"byteStride":12},{"buffer":0,"byteOffset":28728,"byteLength":1440,"target":34962,"byteStride":12},{"buffer":0,"byteOffset":30168,"byteLength":960,"target":34962,"byteStride":8},{"buffer":0,"byteOffset":31128,"byteLength":288,"target":34963},{"buffer":0,"byteOffset":31416,"byteLength":5760,"target":34962,"byteStride":12},{"buffer":0,"byteOffset":37176,"byteLength":5760,"target":34962,"byteStride":12},{"buffer":0,"byteOffset":42936,"byteLength":3840,"target":34962,"byteStride":8},{"buffer":0,"byteOffset":46776,"byteLength":1152,"target":34963},{"buffer":0,"byteOffset":47928,"byteLength":2880,"target":34962,"byteStride":12},{"buffer":0,"byteOffset":50808,"byteLength":2880,"target":34962,"byteStride":12},{"buffer":0,"byteOffset":53688,"byteLength":1920,"target":34962,"byteStride":8},{"buffer":0,"byteOffset":55608,"byteLength":576,"target":34963},{"buffer":0,"byteOffset":56184,"byteLength":1440,"target":34962,"byteStride":12},{"buffer":0,"byteOffset":57624,"byteLength":1440,"target":34962,"byteStride":12},{"buffer":0,"byteOffset":59064,"byteLength":960,"target":34962,"byteStride":8},{"buffer":0,"byteOffset":60024,"byteLength":288,"target":34963},{"buffer":0,"byteOffset":60312,"byteLength":288,"target":34962,"byteStride":12},{"buffer":0,"byteOffset":60600,"byteLength":288,"target":34962,"byteStride":12},{"buffer":0,"byteOffset":60888,"byteLength":192,"target":34962,"byteStride":8},{"buffer":0,"byteOffset":61080,"byteLength":72,"target":34963},{"buffer":0,"byteOffset":61152,"byteLength":480,"target":34962,"byteStride":12},{"buffer":0,"byteOffset":61632,"byteLength":480,"target":34962,"byteStride":12},{"buffer":0,"byteOffset":62112,"byteLength":320,"target":34962,"byteStride":8},{"buffer":0,"byteOffset":62432,"byteLength":120,"target":34963},{"buffer":0,"byteOffset":62552,"byteLength":288,"target":34962,"byteStride":12},{"buffer":0,"byteOffset":62840,"byteLength":288,"target":34962,"byteStride":12},{"buffer":0,"byteOffset":63128,"byteLength":192,"target":34962,"byteStride":8},{"buffer":0,"byteOffset":63320,"byteLength":72,"target":34963},{"buffer":0,"byteOffset":63392,"byteLength":288,"target":34962,"byteStride":12},{"buffer":0,"byteOffset":63680,"byteLength":288,"target":34962,"byteStride":12},{"buffer":0,"byteOffset":63968,"byteLength":192,"target":34962,"byteStride":8},{"buffer":0,"byteOffset":64160,"byteLength":72,"target":34963},{"buffer":0,"byteOffset":64232,"byteLength":288,"target":34962,"byteStride":12},{"buffer":0,"byteOffset":64520,"byteLength":288,"target":34962,"byteStride":12},{"buffer":0,"byteOffset":64808,"byteLength":192,"target":34962,"byteStride":8},{"buffer":0,"byteOffset":65000,"byteLength":72,"target":34963},{"buffer":0,"byteOffset":65072,"byteLength":480,"target":34962,"byteStride":12},{"buffer":0,"byteOffset":65552,"byteLength":480,"target":34962,"byteStride":12},{"buffer":0,"byteOffset":66032,"byteLength":320,"target":34962,"byteStride":8},{"buffer":0,"byteOffset":66352,"byteLength":120,"target":34963}],"buffers":[{"byteLength":66472,"uri":"data:application/octet-stream;base64,"}],"accessors":[{"bufferView":0,"componentType":5126,"count":24,"max":[-0.006187499966472387,0.13124999403953552,0.34375],"min":[-0.0062500000931322575,0.012500000186264515,-0.3187499940395355],"type":"VEC3"},{"bufferView":1,"componentType":5126,"count":24,"max":[1,1,1],"min":[-1,-1,-1],"type":"VEC3"},{"bufferView":2,"componentType":5126,"count":24,"max":[0.662109375,0.662109375],"min":[0,0],"type":"VEC2"},{"bufferView":3,"componentType":5123,"count":36,"max":[23],"min":[0],"type":"SCALAR"},{"bufferView":4,"componentType":5126,"count":24,"max":[-0.006187499966472387,0.13124999403953552,0.34375],"min":[-0.0062500000931322575,0.012500000186264515,-0.3187499940395355],"type":"VEC3"},{"bufferView":5,"componentType":5126,"count":24,"max":[1,1,1],"min":[-1,-1,-1],"type":"VEC3"},{"bufferView":6,"componentType":5126,"count":24,"max":[0.662109375,0.662109375],"min":[0,0],"type":"VEC2"},{"bufferView":7,"componentType":5123,"count":36,"max":[23],"min":[0],"type":"SCALAR"},{"bufferView":8,"componentType":5126,"count":24,"max":[-0.006187499966472387,0.13124999403953552,0.34375],"min":[-0.0062500000931322575,0.012500000186264515,-0.3187499940395355],"type":"VEC3"},{"bufferView":9,"componentType":5126,"count":24,"max":[1,1,1],"min":[-1,-1,-1],"type":"VEC3"},{"bufferView":10,"componentType":5126,"count":24,"max":[0.662109375,0.662109375],"min":[0,0],"type":"VEC2"},{"bufferView":11,"componentType":5123,"count":36,"max":[23],"min":[0],"type":"SCALAR"},{"bufferView":12,"componentType":5126,"count":120,"max":[0.004687500186264515,0.34062498807907104,0.004687500186264515],"min":[-0.004687500186264515,0.15937499701976776,-0.004687500186264515],"type":"VEC3"},{"bufferView":13,"componentType":5126,"count":120,"max":[1,1,1],"min":[-1,-1,-1],"type":"VEC3"},{"bufferView":14,"componentType":5126,"count":120,"max":[1.3845703601837158,1.384765625],"min":[0.12513749301433563,0.3125],"type":"VEC2"},{"bufferView":15,"componentType":5123,"count":144,"max":[119],"min":[0],"type":"SCALAR"},{"bufferView":16,"componentType":5126,"count":120,"max":[0.004687500186264515,0.578125,0.004687500186264515],"min":[-0.004687500186264515,-0.09062500298023224,-0.004687500186264515],"type":"VEC3"},{"bufferView":17,"componentType":5126,"count":120,"max":[1,1,1],"min":[-1,-1,-1],"type":"VEC3"},{"bufferView":18,"componentType":5126,"count":120,"max":[0.6922851800918579,0.692187488079071],"min":[0.00006874999962747097,0],"type":"VEC2"},{"bufferView":19,"componentType":5123,"count":144,"max":[119],"min":[0],"type":"SCALAR"},{"bufferView":20,"componentType":5126,"count":120,"max":[0.004687500186264515,0.578125,0.004687500186264515],"min":[-0.004687500186264515,-0.09062500298023224,-0.004687500186264515],"type":"VEC3"},{"bufferView":21,"componentType":5126,"count":120,"max":[1,1,1],"min":[-1,-1,-1],"type":"VEC3"},{"bufferView":22,"componentType":5126,"count":120,"max":[0.6922851800918579,0.692187488079071],"min":[0.00006874999962747097,0],"type":"VEC2"},{"bufferView":23,"componentType":5123,"count":144,"max":[119],"min":[0],"type":"SCALAR"},{"bufferView":24,"componentType":5126,"count":120,"max":[0.004687500186264515,0.34062498807907104,0.01718750037252903],"min":[-0.004687500186264515,0.15937499701976776,0.0078125],"type":"VEC3"},{"bufferView":25,"componentType":5126,"count":120,"max":[1,1,1],"min":[-1,-1,-1],"type":"VEC3"},{"bufferView":26,"componentType":5126,"count":120,"max":[1.3845703601837158,1.181249976158142],"min":[0.2501375079154968,0.00039064884185791016],"type":"VEC2"},{"bufferView":27,"componentType":5123,"count":144,"max":[119],"min":[0],"type":"SCALAR"},{"bufferView":28,"componentType":5126,"count":120,"max":[0.004687500186264515,0.34062498807907104,0.004687500186264515],"min":[-0.004687500186264515,0.15937499701976776,-0.004687500186264515],"type":"VEC3"},{"bufferView":29,"componentType":5126,"count":120,"max":[1,1,1],"min":[-1,-1,-1],"type":"VEC3"},{"bufferView":30,"componentType":5126,"count":120,"max":[1.3845703601837158,1.384374976158142],"min":[0.12513749301433563,0],"type":"VEC2"},{"bufferView":31,"componentType":5123,"count":144,"max":[119],"min":[0],"type":"SCALAR"},{"bufferView":32,"componentType":5126,"count":120,"max":[0.004687500186264515,0.2718749940395355,0.004687500186264515],"min":[-0.004687500186264515,0.22812500596046448,-0.004687500186264515],"type":"VEC3"},{"bufferView":33,"componentType":5126,"count":120,"max":[1,1,1],"min":[-1,-1,-1],"type":"VEC3"},{"bufferView":34,"componentType":5126,"count":120,"max":[1.3845703601837158,1.384374976158142],"min":[0.2501375079154968,0.25],"type":"VEC2"},{"bufferView":35,"componentType":5123,"count":144,"max":[119],"min":[0],"type":"SCALAR"},{"bufferView":36,"componentType":5126,"count":120,"max":[0.004687500186264515,0.2718749940395355,0.004687500186264515],"min":[-0.004687500186264515,0.22812500596046448,-0.004687500186264515],"type":"VEC3"},{"bufferView":37,"componentType":5126,"count":120,"max":[1,1,1],"min":[-1,-1,-1],"type":"VEC3"},{"bufferView":38,"componentType":5126,"count":120,"max":[1.3845703601837158,1.384374976158142],"min":[0.8751375079154968,0.5],"type":"VEC2"},{"bufferView":39,"componentType":5123,"count":144,"max":[119],"min":[0],"type":"SCALAR"},{"bufferView":40,"componentType":5126,"count":480,"max":[0.01718750037252903,0.3531250059604645,0.004687500186264515],"min":[-0.6421874761581421,0.22187499701976776,-0.004687500186264515],"type":"VEC3"},{"bufferView":41,"componentType":5126,"count":480,"max":[1,1,1],"min":[-1,-1,-1],"type":"VEC3"},{"bufferView":42,"componentType":5126,"count":480,"max":[1.2595703601837158,1.381250023841858],"min":[0.00013749999925494194,0],"type":"VEC2"},{"bufferView":43,"componentType":5123,"count":576,"max":[479],"min":[0],"type":"SCALAR"},{"bufferView":44,"componentType":5126,"count":240,"max":[0.0019820048473775387,0.3409213125705719,0.629687488079071],"min":[-0.007392995059490204,0.13467130064964294,-0.004687500186264515],"type":"VEC3"},{"bufferView":45,"componentType":5126,"count":240,"max":[1,1,1],"min":[-1,-1,-1],"type":"VEC3"},{"bufferView":46,"componentType":5126,"count":240,"max":[1.3845703601837158,1.384765625],"min":[0.00013749999925494194,0],"type":"VEC2"},{"bufferView":47,"componentType":5123,"count":288,"max":[239],"min":[0],"type":"SCALAR"},{"bufferView":48,"componentType":5126,"count":120,"max":[0.004687500186264515,0.34062498807907104,0.004687500186264515],"min":[-0.004687500186264515,0.15937499701976776,-0.004687500186264515],"type":"VEC3"},{"bufferView":49,"componentType":5126,"count":120,"max":[1,1,1],"min":[-1,-1,-1],"type":"VEC3"},{"bufferView":50,"componentType":5126,"count":120,"max":[1.3845703601837158,0.9937499761581421],"min":[0.7501375079154968,0],"type":"VEC2"},{"bufferView":51,"componentType":5123,"count":144,"max":[119],"min":[0],"type":"SCALAR"},{"bufferView":52,"componentType":5126,"count":24,"max":[0.03751249983906746,0.5500125288963318,0.03751249983906746],"min":[-0.03751249983906746,-0.00001249999968422344,-0.03751249983906746],"type":"VEC3"},{"bufferView":53,"componentType":5126,"count":24,"max":[1,1,1],"min":[-1,-1,-1],"type":"VEC3"},{"bufferView":54,"componentType":5126,"count":24,"max":[0.57421875,0.55078125],"min":[0,0],"type":"VEC2"},{"bufferView":55,"componentType":5123,"count":36,"max":[23],"min":[0],"type":"SCALAR"},{"bufferView":56,"componentType":5126,"count":40,"max":[0.03750000149011612,0.550000011920929,0.01875000074505806],"min":[-0.13750000298023224,0.512499988079071,-0.01875000074505806],"type":"VEC3"},{"bufferView":57,"componentType":5126,"count":40,"max":[1,1,1],"min":[-1,-1,-1],"type":"VEC3"},{"bufferView":58,"componentType":5126,"count":40,"max":[0.850781261920929,0.574999988079071],"min":[0,0],"type":"VEC2"},{"bufferView":59,"componentType":5123,"count":60,"max":[39],"min":[0],"type":"SCALAR"},{"bufferView":60,"componentType":5126,"count":24,"max":[0.09375,0.125,0.05624999850988388],"min":[-0.09375,0,-0.05624999850988388],"type":"VEC3"},{"bufferView":61,"componentType":5126,"count":24,"max":[0.9438583850860596,1,0.9905498623847961],"min":[-0.9438583850860596,-1,-0.9905498623847961],"type":"VEC3"},{"bufferView":62,"componentType":5126,"count":24,"max":[0.875,1],"min":[0,0],"type":"VEC2"},{"bufferView":63,"componentType":5123,"count":36,"max":[23],"min":[0],"type":"SCALAR"},{"bufferView":64,"componentType":5126,"count":24,"max":[0.09375,0.125,0.05624999850988388],"min":[-0.09375,0,-0.05624999850988388],"type":"VEC3"},{"bufferView":65,"componentType":5126,"count":24,"max":[0.9438583850860596,1,0.9905498623847961],"min":[-0.9438583850860596,-1,-0.9905498623847961],"type":"VEC3"},{"bufferView":66,"componentType":5126,"count":24,"max":[0.875,1],"min":[0,0],"type":"VEC2"},{"bufferView":67,"componentType":5123,"count":36,"max":[23],"min":[0],"type":"SCALAR"},{"bufferView":68,"componentType":5126,"count":24,"max":[0.03751249983906746,0.5500125288963318,0.03751249983906746],"min":[-0.03751249983906746,-0.00001249999968422344,-0.03751249983906746],"type":"VEC3"},{"bufferView":69,"componentType":5126,"count":24,"max":[1,1,1],"min":[-1,-1,-1],"type":"VEC3"},{"bufferView":70,"componentType":5126,"count":24,"max":[0.57421875,0.55078125],"min":[0,0],"type":"VEC2"},{"bufferView":71,"componentType":5123,"count":36,"max":[23],"min":[0],"type":"SCALAR"},{"bufferView":72,"componentType":5126,"count":40,"max":[0.03750000149011612,0.550000011920929,0.01875000074505806],"min":[-0.13750000298023224,0.512499988079071,-0.01875000074505806],"type":"VEC3"},{"bufferView":73,"componentType":5126,"count":40,"max":[1,1,1],"min":[-1,-1,-1],"type":"VEC3"},{"bufferView":74,"componentType":5126,"count":40,"max":[0.850781261920929,0.574999988079071],"min":[0,0],"type":"VEC2"},{"bufferView":75,"componentType":5123,"count":60,"max":[39],"min":[0],"type":"SCALAR"}],"materials":[{"pbrMetallicRoughness":{"metallicFactor":0,"roughnessFactor":1,"baseColorTexture":{"index":0}},"alphaMode":"MASK","alphaCutoff":0.05,"doubleSided":true},{"pbrMetallicRoughness":{"metallicFactor":0,"roughnessFactor":1,"baseColorTexture":{"index":1}},"alphaMode":"MASK","alphaCutoff":0.05,"doubleSided":true},{"pbrMetallicRoughness":{"metallicFactor":0,"roughnessFactor":1,"baseColorTexture":{"index":2}},"alphaMode":"MASK","alphaCutoff":0.05,"doubleSided":true},{"pbrMetallicRoughness":{"metallicFactor":0,"roughnessFactor":1,"baseColorTexture":{"index":3}},"alphaMode":"MASK","alphaCutoff":0.05,"doubleSided":true},{"pbrMetallicRoughness":{"metallicFactor":0,"roughnessFactor":1,"baseColorTexture":{"index":4}},"alphaMode":"MASK","alphaCutoff":0.05,"doubleSided":true},{"pbrMetallicRoughness":{"metallicFactor":0,"roughnessFactor":1,"baseColorTexture":{"index":5}},"alphaMode":"MASK","alphaCutoff":0.05,"doubleSided":true},{"pbrMetallicRoughness":{"metallicFactor":0,"roughnessFactor":1,"baseColorTexture":{"index":6}},"alphaMode":"MASK","alphaCutoff":0.05,"doubleSided":true},{"pbrMetallicRoughness":{"metallicFactor":0,"roughnessFactor":1,"baseColorTexture":{"index":7}},"alphaMode":"MASK","alphaCutoff":0.05,"doubleSided":true}],"textures":[{"sampler":0,"source":0,"name":"texture"},{"sampler":1,"source":1,"name":"texture"},{"sampler":2,"source":2,"name":"as"},{"sampler":3,"source":3,"name":"texture"},{"sampler":4,"source":4,"name":"texture"},{"sampler":5,"source":5,"name":"texture"},{"sampler":6,"source":6,"name":"texture"},{"sampler":7,"source":7,"name":"L post"}],"samplers":[{"magFilter":9728,"minFilter":9728,"wrapS":33071,"wrapT":33071},{"magFilter":9728,"minFilter":9728,"wrapS":33071,"wrapT":33071},{"magFilter":9728,"minFilter":9728,"wrapS":33071,"wrapT":33071},{"magFilter":9728,"minFilter":9728,"wrapS":33071,"wrapT":33071},{"magFilter":9728,"minFilter":9728,"wrapS":33071,"wrapT":33071},{"magFilter":9728,"minFilter":9728,"wrapS":33071,"wrapT":33071},{"magFilter":9728,"minFilter":9728,"wrapS":33071,"wrapT":33071},{"magFilter":9728,"minFilter":9728,"wrapS":33071,"wrapT":33071}],"images":[{"mimeType":"image/png","uri":"data:image/png;base64,"},{"mimeType":"image/png","uri":"data:image/png;base64,"},{"mimeType":"image/png","uri":"data:image/png;base64,"},{"mimeType":"image/png","uri":"data:image/png;base64,"},{"mimeType":"image/png","uri":"data:image/png;base64,"},{"mimeType":"image/png","uri":"data:image/png;base64,"},{"mimeType":"image/png","uri":"data:image/png;base64,"},{"mimeType":"image/png","uri":"data:image/png;base64,"}],"meshes":[{"primitives":[{"mode":4,"attributes":{"POSITION":0,"NORMAL":1,"TEXCOORD_0":2},"indices":3,"material":0}]},{"primitives":[{"mode":4,"attributes":{"POSITION":4,"NORMAL":5,"TEXCOORD_0":6},"indices":7,"material":1}]},{"primitives":[{"mode":4,"attributes":{"POSITION":8,"NORMAL":9,"TEXCOORD_0":10},"indices":11,"material":2}]},{"primitives":[{"mode":4,"attributes":{"POSITION":12,"NORMAL":13,"TEXCOORD_0":14},"indices":15,"material":3}]},{"primitives":[{"mode":4,"attributes":{"POSITION":16,"NORMAL":17,"TEXCOORD_0":18},"indices":19,"material":4}]},{"primitives":[{"mode":4,"attributes":{"POSITION":20,"NORMAL":21,"TEXCOORD_0":22},"indices":23,"material":4}]},{"primitives":[{"mode":4,"attributes":{"POSITION":24,"NORMAL":25,"TEXCOORD_0":26},"indices":27,"material":3}]},{"primitives":[{"mode":4,"attributes":{"POSITION":28,"NORMAL":29,"TEXCOORD_0":30},"indices":31,"material":3}]},{"primitives":[{"mode":4,"attributes":{"POSITION":32,"NORMAL":33,"TEXCOORD_0":34},"indices":35,"material":3}]},{"primitives":[{"mode":4,"attributes":{"POSITION":36,"NORMAL":37,"TEXCOORD_0":38},"indices":39,"material":3}]},{"primitives":[{"mode":4,"attributes":{"POSITION":40,"NORMAL":41,"TEXCOORD_0":42},"indices":43,"material":3}]},{"primitives":[{"mode":4,"attributes":{"POSITION":44,"NORMAL":45,"TEXCOORD_0":46},"indices":47,"material":3}]},{"primitives":[{"mode":4,"attributes":{"POSITION":48,"NORMAL":49,"TEXCOORD_0":50},"indices":51,"material":3}]},{"primitives":[{"mode":4,"attributes":{"POSITION":52,"NORMAL":53,"TEXCOORD_0":54},"indices":55,"material":5}]},{"primitives":[{"mode":4,"attributes":{"POSITION":56,"NORMAL":57,"TEXCOORD_0":58},"indices":59,"material":6}]},{"primitives":[{"mode":4,"attributes":{"POSITION":60,"NORMAL":61,"TEXCOORD_0":62},"indices":63,"material":7}]},{"primitives":[{"mode":4,"attributes":{"POSITION":64,"NORMAL":65,"TEXCOORD_0":66},"indices":67,"material":7}]},{"primitives":[{"mode":4,"attributes":{"POSITION":68,"NORMAL":69,"TEXCOORD_0":70},"indices":71,"material":5}]},{"primitives":[{"mode":4,"attributes":{"POSITION":72,"NORMAL":73,"TEXCOORD_0":74},"indices":75,"material":6}]}]}