{"asset":{"version":"2.0","generator":"Blockbench 4.12.6 glTF exporter"},"scenes":[{"nodes":[27],"name":"blockbench_export"}],"scene":0,"nodes":[{"translation":[0.18749999999999992,0.5,-0.018750000000000003],"name":"cube","mesh":0},{"name":"Roof","children":[0]},{"translation":[-0.08749999999999969,0,0],"name":"Poste3"},{"translation":[0,0.1612500000000001,0],"name":"cube","mesh":1},{"translation":[-0.22499999999999998,0,0],"name":"Poste2","children":[2,3]},{"translation":[-0.0062500000000000056,0.1612500000000001,0],"name":"cube","mesh":2},{"translation":[-0.4812500000000003,0,0],"name":"Poste3","children":[5]},{"rotation":[0.008251101414339415,-0.0028410820570104753,0.3255557578194317,0.9454825731491888],"translation":[0.2874999999999997,0.043750000000000004,0.14375000000000018],"name":"cylinder","mesh":3},{"rotation":[-0.3255557578194317,-0.9454825731491888,-0.008251101414339396,0.0028410820570105317],"translation":[0.14374999999999977,0.26249999999999996,0.1500000000000002],"name":"cylinder","mesh":4},{"rotation":[-0.3255557578194317,-0.9454825731491888,-0.008251101414339396,0.0028410820570105317],"translation":[-0.10625000000000018,0.26249999999999996,0.1500000000000002],"name":"cylinder","mesh":5},{"rotation":[0.008251101414339415,-0.002841082057010474,0.3255557578194317,0.9454825731491888],"translation":[-0.13750000000000018,0.26249999999999996,0.1500000000000002],"name":"cylinder","mesh":6},{"name":"bone","children":[7,8,9,10]},{"translation":[0,0.1612500000000001,0],"name":"cube","mesh":7},{"translation":[-0.22499999999999992,0,0],"name":"Poste5","children":[12]},{"translation":[-0.006249999999999867,0.1612500000000001,0],"name":"cube","mesh":8},{"translation":[-0.4812499999999999,0,0],"name":"Poste6","children":[14]},{"rotation":[0.008251101414339415,-0.0028410820570104753,0.3255557578194317,0.9454825731491888],"translation":[0.28750000000000014,0.043750000000000004,0.14375000000000018],"name":"cylinder","mesh":9},{"rotation":[-0.3255557578194317,-0.9454825731491888,-0.008251101414339396,0.0028410820570105317],"translation":[0.14375000000000002,0.26249999999999996,0.1500000000000002],"name":"cylinder","mesh":10},{"rotation":[-0.3255557578194317,-0.9454825731491888,-0.008251101414339396,0.0028410820570105317],"translation":[-0.10625000000000023,0.26249999999999996,0.1500000000000002],"name":"cylinder","mesh":11},{"rotation":[0.008251101414339415,-0.002841082057010474,0.3255557578194317,0.9454825731491888],"translation":[-0.13750000000000018,0.26249999999999996,0.1500000000000002],"name":"cylinder","mesh":12},{"name":"bone2","children":[16,17,18,19]},{"translation":[0.012500000000000011,0.1612500000000001,0],"name":"cube","mesh":13},{"translation":[-0.5,0,0],"name":"Poste4","children":[13,15,20,21]},{"translation":[0.012500000000000011,0.1612500000000001,0],"name":"cube","mesh":14},{"translation":[0.26875,0,0],"name":"Poste","children":[4,6,11,22,23]},{"translation":[-0.36875000000000013,0,0],"name":"cube","mesh":15},{"name":"Floor","children":[25]},{"children":[1,24,26]}],"bufferViews":[{"buffer":0,"byteOffset":0,"byteLength":1056,"target":34962,"byteStride":12},{"buffer":0,"byteOffset":1056,"byteLength":1056,"target":34962,"byteStride":12},{"buffer":0,"byteOffset":2112,"byteLength":704,"target":34962,"byteStride":8},{"buffer":0,"byteOffset":2816,"byteLength":264,"target":34963},{"buffer":0,"byteOffset":3080,"byteLength":1056,"target":34962,"byteStride":12},{"buffer":0,"byteOffset":4136,"byteLength":1056,"target":34962,"byteStride":12},{"buffer":0,"byteOffset":5192,"byteLength":704,"target":34962,"byteStride":8},{"buffer":0,"byteOffset":5896,"byteLength":264,"target":34963},{"buffer":0,"byteOffset":6160,"byteLength":1056,"target":34962,"byteStride":12},{"buffer":0,"byteOffset":7216,"byteLength":1056,"target":34962,"byteStride":12},{"buffer":0,"byteOffset":8272,"byteLength":704,"target":34962,"byteStride":8},{"buffer":0,"byteOffset":8976,"byteLength":264,"target":34963},{"buffer":0,"byteOffset":9240,"byteLength":1440,"target":34962,"byteStride":12},{"buffer":0,"byteOffset":10680,"byteLength":1440,"target":34962,"byteStride":12},{"buffer":0,"byteOffset":12120,"byteLength":960,"target":34962,"byteStride":8},{"buffer":0,"byteOffset":13080,"byteLength":288,"target":34963},{"buffer":0,"byteOffset":13368,"byteLength":1440,"target":34962,"byteStride":12},{"buffer":0,"byteOffset":14808,"byteLength":1440,"target":34962,"byteStride":12},{"buffer":0,"byteOffset":16248,"byteLength":960,"target":34962,"byteStride":8},{"buffer":0,"byteOffset":17208,"byteLength":288,"target":34963},{"buffer":0,"byteOffset":17496,"byteLength":1440,"target":34962,"byteStride":12},{"buffer":0,"byteOffset":18936,"byteLength":1440,"target":34962,"byteStride":12},{"buffer":0,"byteOffset":20376,"byteLength":960,"target":34962,"byteStride":8},{"buffer":0,"byteOffset":21336,"byteLength":288,"target":34963},{"buffer":0,"byteOffset":21624,"byteLength":1440,"target":34962,"byteStride":12},{"buffer":0,"byteOffset":23064,"byteLength":1440,"target":34962,"byteStride":12},{"buffer":0,"byteOffset":24504,"byteLength":960,"target":34962,"byteStride":8},{"buffer":0,"byteOffset":25464,"byteLength":288,"target":34963},{"buffer":0,"byteOffset":25752,"byteLength":1056,"target":34962,"byteStride":12},{"buffer":0,"byteOffset":26808,"byteLength":1056,"target":34962,"byteStride":12},{"buffer":0,"byteOffset":27864,"byteLength":704,"target":34962,"byteStride":8},{"buffer":0,"byteOffset":28568,"byteLength":264,"target":34963},{"buffer":0,"byteOffset":28832,"byteLength":1056,"target":34962,"byteStride":12},{"buffer":0,"byteOffset":29888,"byteLength":1056,"target":34962,"byteStride":12},{"buffer":0,"byteOffset":30944,"byteLength":704,"target":34962,"byteStride":8},{"buffer":0,"byteOffset":31648,"byteLength":264,"target":34963},{"buffer":0,"byteOffset":31912,"byteLength":1440,"target":34962,"byteStride":12},{"buffer":0,"byteOffset":33352,"byteLength":1440,"target":34962,"byteStride":12},{"buffer":0,"byteOffset":34792,"byteLength":960,"target":34962,"byteStride":8},{"buffer":0,"byteOffset":35752,"byteLength":288,"target":34963},{"buffer":0,"byteOffset":36040,"byteLength":1440,"target":34962,"byteStride":12},{"buffer":0,"byteOffset":37480,"byteLength":1440,"target":34962,"byteStride":12},{"buffer":0,"byteOffset":38920,"byteLength":960,"target":34962,"byteStride":8},{"buffer":0,"byteOffset":39880,"byteLength":288,"target":34963},{"buffer":0,"byteOffset":40168,"byteLength":1440,"target":34962,"byteStride":12},{"buffer":0,"byteOffset":41608,"byteLength":1440,"target":34962,"byteStride":12},{"buffer":0,"byteOffset":43048,"byteLength":960,"target":34962,"byteStride":8},{"buffer":0,"byteOffset":44008,"byteLength":288,"target":34963},{"buffer":0,"byteOffset":44296,"byteLength":1440,"target":34962,"byteStride":12},{"buffer":0,"byteOffset":45736,"byteLength":1440,"target":34962,"byteStride":12},{"buffer":0,"byteOffset":47176,"byteLength":960,"target":34962,"byteStride":8},{"buffer":0,"byteOffset":48136,"byteLength":288,"target":34963},{"buffer":0,"byteOffset":48424,"byteLength":1056,"target":34962,"byteStride":12},{"buffer":0,"byteOffset":49480,"byteLength":1056,"target":34962,"byteStride":12},{"buffer":0,"byteOffset":50536,"byteLength":704,"target":34962,"byteStride":8},{"buffer":0,"byteOffset":51240,"byteLength":264,"target":34963},{"buffer":0,"byteOffset":51504,"byteLength":1056,"target":34962,"byteStride":12},{"buffer":0,"byteOffset":52560,"byteLength":1056,"target":34962,"byteStride":12},{"buffer":0,"byteOffset":53616,"byteLength":704,"target":34962,"byteStride":8},{"buffer":0,"byteOffset":54320,"byteLength":264,"target":34963},{"buffer":0,"byteOffset":54584,"byteLength":288,"target":34962,"byteStride":12},{"buffer":0,"byteOffset":54872,"byteLength":288,"target":34962,"byteStride":12},{"buffer":0,"byteOffset":55160,"byteLength":192,"target":34962,"byteStride":8},{"buffer":0,"byteOffset":55352,"byteLength":72,"target":34963}],"buffers":[{"byteLength":55424,"uri":"data:application/octet-stream;base64,"}],"accessors":[{"bufferView":0,"componentType":5126,"count":88,"max":[0.42500001192092896,-0.09375,0.21250000596046448],"min":[-0.762499988079071,-0.16875000298023224,-0.125],"type":"VEC3"},{"bufferView":1,"componentType":5126,"count":88,"max":[1,1,1],"min":[-1,-0.999687671661377,-1],"type":"VEC3"},{"bufferView":2,"componentType":5126,"count":88,"max":[0.6141601800918579,0.39697265625],"min":[0,0],"type":"VEC2"},{"bufferView":3,"componentType":5123,"count":132,"max":[87],"min":[0],"type":"SCALAR"},{"bufferView":4,"componentType":5126,"count":88,"max":[0.24187499284744263,0.24187499284744263,0.16249999403953552],"min":[0.2199999988079071,-0.15437500178813934,0.13625000417232513],"type":"VEC3"},{"bufferView":5,"componentType":5126,"count":88,"max":[1,1,1],"min":[-1,-1,-1],"type":"VEC3"},{"bufferView":6,"componentType":5126,"count":88,"max":[0.5625,0.8356000185012817],"min":[0,0],"type":"VEC2"},{"bufferView":7,"componentType":5123,"count":132,"max":[87],"min":[0],"type":"SCALAR"},{"bufferView":8,"componentType":5126,"count":88,"max":[0.24812500178813934,0.24187499284744263,0.16249999403953552],"min":[0.22624999284744263,-0.15437500178813934,0.13625000417232513],"type":"VEC3"},{"bufferView":9,"componentType":5126,"count":88,"max":[1,1,1],"min":[-1,-1,-1],"type":"VEC3"},{"bufferView":10,"componentType":5126,"count":88,"max":[0.5625,0.8356000185012817],"min":[0,0],"type":"VEC2"},{"bufferView":11,"componentType":5123,"count":132,"max":[87],"min":[0],"type":"SCALAR"},{"bufferView":12,"componentType":5126,"count":120,"max":[0.0031250000465661287,0.4437499940395355,0.0031250000465661287],"min":[-0.0031250000465661287,0.05624999850988388,-0.0031250000465661287],"type":"VEC3"},{"bufferView":13,"componentType":5126,"count":120,"max":[1,1,1],"min":[-1,-1,-1],"type":"VEC3"},{"bufferView":14,"componentType":5126,"count":120,"max":[0.507031261920929,0.5078125],"min":[0.0004171874898020178,0],"type":"VEC2"},{"bufferView":15,"componentType":5123,"count":144,"max":[119],"min":[0],"type":"SCALAR"},{"bufferView":16,"componentType":5126,"count":120,"max":[0.001379223889671266,0.16742007434368134,0.005556334275752306],"min":[-0.0048707760870456696,-0.2200799286365509,-0.0006936658173799515],"type":"VEC3"},{"bufferView":17,"componentType":5126,"count":120,"max":[1,1,1],"min":[-1,-1,-1],"type":"VEC3"},{"bufferView":18,"componentType":5126,"count":120,"max":[0.507031261920929,0.5078125],"min":[0.0004171874898020178,0],"type":"VEC2"},{"bufferView":19,"componentType":5123,"count":144,"max":[119],"min":[0],"type":"SCALAR"},{"bufferView":20,"componentType":5126,"count":120,"max":[0.001379223889671266,0.16742007434368134,0.005556334275752306],"min":[-0.0048707760870456696,-0.2200799286365509,-0.0006936658173799515],"type":"VEC3"},{"bufferView":21,"componentType":5126,"count":120,"max":[1,1,1],"min":[-1,-1,-1],"type":"VEC3"},{"bufferView":22,"componentType":5126,"count":120,"max":[0.507031261920929,0.5078125],"min":[0.0004171874898020178,0],"type":"VEC2"},{"bufferView":23,"componentType":5123,"count":144,"max":[119],"min":[0],"type":"SCALAR"},{"bufferView":24,"componentType":5126,"count":120,"max":[0.001379223889671266,0.16742007434368134,0.005556334275752306],"min":[-0.0048707760870456696,-0.2200799286365509,-0.0006936658173799515],"type":"VEC3"},{"bufferView":25,"componentType":5126,"count":120,"max":[1,1,1],"min":[-1,-1,-1],"type":"VEC3"},{"bufferView":26,"componentType":5126,"count":120,"max":[0.507031261920929,0.5078125],"min":[0.0004171874898020178,0],"type":"VEC2"},{"bufferView":27,"componentType":5123,"count":144,"max":[119],"min":[0],"type":"SCALAR"},{"bufferView":28,"componentType":5126,"count":88,"max":[0.24187499284744263,0.24187499284744263,0.16249999403953552],"min":[0.2199999988079071,-0.15437500178813934,0.13625000417232513],"type":"VEC3"},{"bufferView":29,"componentType":5126,"count":88,"max":[1,1,1],"min":[-1,-1,-1],"type":"VEC3"},{"bufferView":30,"componentType":5126,"count":88,"max":[0.5625,0.8356000185012817],"min":[0,0],"type":"VEC2"},{"bufferView":31,"componentType":5123,"count":132,"max":[87],"min":[0],"type":"SCALAR"},{"bufferView":32,"componentType":5126,"count":88,"max":[0.24812500178813934,0.24187499284744263,0.16249999403953552],"min":[0.22624999284744263,-0.15437500178813934,0.13625000417232513],"type":"VEC3"},{"bufferView":33,"componentType":5126,"count":88,"max":[1,1,1],"min":[-1,-1,-1],"type":"VEC3"},{"bufferView":34,"componentType":5126,"count":88,"max":[0.5625,0.8356000185012817],"min":[0,0],"type":"VEC2"},{"bufferView":35,"componentType":5123,"count":132,"max":[87],"min":[0],"type":"SCALAR"},{"bufferView":36,"componentType":5126,"count":120,"max":[0.0031250000465661287,0.4437499940395355,0.0031250000465661287],"min":[-0.0031250000465661287,0.05624999850988388,-0.0031250000465661287],"type":"VEC3"},{"bufferView":37,"componentType":5126,"count":120,"max":[1,1,1],"min":[-1,-1,-1],"type":"VEC3"},{"bufferView":38,"componentType":5126,"count":120,"max":[0.507031261920929,0.5078125],"min":[0.0004171874898020178,0],"type":"VEC2"},{"bufferView":39,"componentType":5123,"count":144,"max":[119],"min":[0],"type":"SCALAR"},{"bufferView":40,"componentType":5126,"count":120,"max":[0.001379223889671266,0.16742007434368134,0.005556334275752306],"min":[-0.0048707760870456696,-0.2200799286365509,-0.0006936658173799515],"type":"VEC3"},{"bufferView":41,"componentType":5126,"count":120,"max":[1,1,1],"min":[-1,-1,-1],"type":"VEC3"},{"bufferView":42,"componentType":5126,"count":120,"max":[0.507031261920929,0.5078125],"min":[0.0004171874898020178,0],"type":"VEC2"},{"bufferView":43,"componentType":5123,"count":144,"max":[119],"min":[0],"type":"SCALAR"},{"bufferView":44,"componentType":5126,"count":120,"max":[0.001379223889671266,0.16742007434368134,0.005556334275752306],"min":[-0.0048707760870456696,-0.2200799286365509,-0.0006936658173799515],"type":"VEC3"},{"bufferView":45,"componentType":5126,"count":120,"max":[1,1,1],"min":[-1,-1,-1],"type":"VEC3"},{"bufferView":46,"componentType":5126,"count":120,"max":[0.507031261920929,0.5078125],"min":[0.0004171874898020178,0],"type":"VEC2"},{"bufferView":47,"componentType":5123,"count":144,"max":[119],"min":[0],"type":"SCALAR"},{"bufferView":48,"componentType":5126,"count":120,"max":[0.001379223889671266,0.16742007434368134,0.005556334275752306],"min":[-0.0048707760870456696,-0.2200799286365509,-0.0006936658173799515],"type":"VEC3"},{"bufferView":49,"componentType":5126,"count":120,"max":[1,1,1],"min":[-1,-1,-1],"type":"VEC3"},{"bufferView":50,"componentType":5126,"count":120,"max":[0.507031261920929,0.5078125],"min":[0.0004171874898020178,0],"type":"VEC2"},{"bufferView":51,"componentType":5123,"count":144,"max":[119],"min":[0],"type":"SCALAR"},{"bufferView":52,"componentType":5126,"count":88,"max":[0.24812500178813934,0.24187499284744263,0.16249999403953552],"min":[0.22624999284744263,-0.15437500178813934,0.13625000417232513],"type":"VEC3"},{"bufferView":53,"componentType":5126,"count":88,"max":[1,1,1],"min":[-1,-1,-1],"type":"VEC3"},{"bufferView":54,"componentType":5126,"count":88,"max":[0.5625,0.8356000185012817],"min":[0,0],"type":"VEC2"},{"bufferView":55,"componentType":5123,"count":132,"max":[87],"min":[0],"type":"SCALAR"},{"bufferView":56,"componentType":5126,"count":88,"max":[0.24812500178813934,0.24187499284744263,0.16249999403953552],"min":[0.22624999284744263,-0.15437500178813934,0.13625000417232513],"type":"VEC3"},{"bufferView":57,"componentType":5126,"count":88,"max":[1,1,1],"min":[-1,-1,-1],"type":"VEC3"},{"bufferView":58,"componentType":5126,"count":88,"max":[0.5625,0.8356000185012817],"min":[0,0],"type":"VEC2"},{"bufferView":59,"componentType":5123,"count":132,"max":[87],"min":[0],"type":"SCALAR"},{"bufferView":60,"componentType":5126,"count":24,"max":[1.125,0.09375,0.1875],"min":[-0.375,0,-0.1875],"type":"VEC3"},{"bufferView":61,"componentType":5126,"count":24,"max":[1,1,1],"min":[-1,-1,-1],"type":"VEC3"},{"bufferView":62,"componentType":5126,"count":24,"max":[0.75,0.421875],"min":[0,0],"type":"VEC2"},{"bufferView":63,"componentType":5123,"count":36,"max":[23],"min":[0],"type":"SCALAR"}],"materials":[{"pbrMetallicRoughness":{"metallicFactor":0,"roughnessFactor":1,"baseColorTexture":{"index":0}},"alphaMode":"MASK","alphaCutoff":0.05,"doubleSided":true},{"pbrMetallicRoughness":{"metallicFactor":0,"roughnessFactor":1,"baseColorTexture":{"index":1}},"alphaMode":"MASK","alphaCutoff":0.05,"doubleSided":true},{"pbrMetallicRoughness":{"metallicFactor":0,"roughnessFactor":1,"baseColorTexture":{"index":2}},"alphaMode":"MASK","alphaCutoff":0.05,"doubleSided":true},{"pbrMetallicRoughness":{"metallicFactor":0,"roughnessFactor":1,"baseColorTexture":{"index":3}},"alphaMode":"MASK","alphaCutoff":0.05,"doubleSided":true}],"textures":[{"sampler":0,"source":0,"name":"RoofS"},{"sampler":1,"source":1,"name":"PosteS"},{"sampler":2,"source":2,"name":"Pole"},{"sampler":3,"source":3,"name":"floorS"}],"samplers":[{"magFilter":9728,"minFilter":9728,"wrapS":33071,"wrapT":33071},{"magFilter":9728,"minFilter":9728,"wrapS":33071,"wrapT":33071},{"magFilter":9728,"minFilter":9728,"wrapS":33071,"wrapT":33071},{"magFilter":9728,"minFilter":9728,"wrapS":33071,"wrapT":33071}],"images":[{"mimeType":"image/png","uri":"data:image/png;base64,"},{"mimeType":"image/png","uri":"data:image/png;base64,"},{"mimeType":"image/png","uri":"data:image/png;base64,"},{"mimeType":"image/png","uri":"data:image/png;base64,"}],"meshes":[{"primitives":[{"mode":4,"attributes":{"POSITION":0,"NORMAL":1,"TEXCOORD_0":2},"indices":3,"material":0}]},{"primitives":[{"mode":4,"attributes":{"POSITION":4,"NORMAL":5,"TEXCOORD_0":6},"indices":7,"material":1}]},{"primitives":[{"mode":4,"attributes":{"POSITION":8,"NORMAL":9,"TEXCOORD_0":10},"indices":11,"material":1}]},{"primitives":[{"mode":4,"attributes":{"POSITION":12,"NORMAL":13,"TEXCOORD_0":14},"indices":15,"material":2}]},{"primitives":[{"mode":4,"attributes":{"POSITION":16,"NORMAL":17,"TEXCOORD_0":18},"indices":19,"material":2}]},{"primitives":[{"mode":4,"attributes":{"POSITION":20,"NORMAL":21,"TEXCOORD_0":22},"indices":23,"material":2}]},{"primitives":[{"mode":4,"attributes":{"POSITION":24,"NORMAL":25,"TEXCOORD_0":26},"indices":27,"material":2}]},{"primitives":[{"mode":4,"attributes":{"POSITION":28,"NORMAL":29,"TEXCOORD_0":30},"indices":31,"material":1}]},{"primitives":[{"mode":4,"attributes":{"POSITION":32,"NORMAL":33,"TEXCOORD_0":34},"indices":35,"material":1}]},{"primitives":[{"mode":4,"attributes":{"POSITION":36,"NORMAL":37,"TEXCOORD_0":38},"indices":39,"material":2}]},{"primitives":[{"mode":4,"attributes":{"POSITION":40,"NORMAL":41,"TEXCOORD_0":42},"indices":43,"material":2}]},{"primitives":[{"mode":4,"attributes":{"POSITION":44,"NORMAL":45,"TEXCOORD_0":46},"indices":47,"material":2}]},{"primitives":[{"mode":4,"attributes":{"POSITION":48,"NORMAL":49,"TEXCOORD_0":50},"indices":51,"material":2}]},{"primitives":[{"mode":4,"attributes":{"POSITION":52,"NORMAL":53,"TEXCOORD_0":54},"indices":55,"material":1}]},{"primitives":[{"mode":4,"attributes":{"POSITION":56,"NORMAL":57,"TEXCOORD_0":58},"indices":59,"material":1}]},{"primitives":[{"mode":4,"attributes":{"POSITION":60,"NORMAL":61,"TEXCOORD_0":62},"indices":63,"material":3}]}]}