{"asset":{"version":"2.0","generator":"Blockbench 4.12.6 glTF exporter"},"scenes":[{"nodes":[7],"name":"blockbench_export"}],"scene":0,"nodes":[{"translation":[-0.1875,0.3125,0],"name":"Rod2"},{"translation":[0.25,0.3125,0],"name":"Rod"},{"translation":[-0.25,0,0],"name":"Foundation 1","children":[1]},{"translation":[-0.0625,0.3125,0],"name":"Rod4"},{"translation":[-0.25,0.3125,0],"name":"Rod5"},{"name":"Foundation_2"},{"name":"Foundation","children":[0,2,3,4,5]},{"translation":[0.125,0.0625,-0.1875],"name":"Foundation","mesh":0,"children":[6],"skin":0}],"bufferViews":[{"buffer":0,"byteOffset":0,"byteLength":7488,"target":34962,"byteStride":12},{"buffer":0,"byteOffset":7488,"byteLength":7488,"target":34962,"byteStride":12},{"buffer":0,"byteOffset":14976,"byteLength":4992,"target":34962,"byteStride":8},{"buffer":0,"byteOffset":19968,"byteLength":4992,"target":34962,"byteStride":8},{"buffer":0,"byteOffset":24960,"byteLength":9984,"target":34962,"byteStride":16},{"buffer":0,"byteOffset":34944,"byteLength":144,"target":34963},{"buffer":0,"byteOffset":35088,"byteLength":432,"target":34963},{"buffer":0,"byteOffset":35520,"byteLength":288,"target":34963},{"buffer":0,"byteOffset":35808,"byteLength":72,"target":34963},{"buffer":0,"byteOffset":35880,"byteLength":864,"target":34963},{"buffer":0,"byteOffset":36744,"byteLength":72,"target":34963},{"buffer":0,"byteOffset":36816,"byteLength":448}],"buffers":[{"byteLength":37264,"uri":"data:application/octet-stream;base64,"}],"accessors":[{"bufferView":0,"componentType":5126,"count":624,"max":[0.06812499463558197,0.37437498569488525,0.44312500953674316],"min":[-0.31812500953674316,-0.06406249850988388,-0.06812500953674316],"type":"VEC3"},{"bufferView":1,"componentType":5126,"count":624,"max":[1,1,1],"min":[-1,-1,-1],"type":"VEC3"},{"bufferView":2,"componentType":5126,"count":624,"max":[1,0.8125],"min":[0,0],"type":"VEC2"},{"bufferView":3,"componentType":5123,"count":624,"max":[0,6,0,0],"min":[0,0,0,0],"type":"VEC4"},{"bufferView":4,"componentType":5126,"count":624,"max":[0,1,0,0],"min":[0,1,0,0],"type":"VEC4"},{"bufferView":5,"componentType":5123,"count":72,"max":[47],"min":[0],"type":"SCALAR"},{"bufferView":6,"componentType":5123,"count":216,"max":[191],"min":[48],"type":"SCALAR"},{"bufferView":7,"componentType":5123,"count":144,"max":[287],"min":[192],"type":"SCALAR"},{"bufferView":8,"componentType":5123,"count":36,"max":[311],"min":[288],"type":"SCALAR"},{"bufferView":9,"componentType":5123,"count":432,"max":[599],"min":[312],"type":"SCALAR"},{"bufferView":10,"componentType":5123,"count":36,"max":[623],"min":[600],"type":"SCALAR"},{"bufferView":11,"componentType":5126,"count":7,"max":[1,0,0,0,0,1,0,0,0,0,1,0,0.25,0,0,1],"min":[1,0,0,0,0,1,0,0,0,0,1,0,0,-0.3125,0,1],"type":"MAT4"}],"materials":[{"pbrMetallicRoughness":{"metallicFactor":0,"roughnessFactor":1,"baseColorTexture":{"index":0}},"alphaMode":"MASK","alphaCutoff":0.05,"doubleSided":true},{"pbrMetallicRoughness":{"metallicFactor":0,"roughnessFactor":1,"baseColorTexture":{"index":1}},"alphaMode":"MASK","alphaCutoff":0.05,"doubleSided":true},{"pbrMetallicRoughness":{"metallicFactor":0,"roughnessFactor":1,"baseColorTexture":{"index":2}},"alphaMode":"MASK","alphaCutoff":0.05,"doubleSided":true}],"textures":[{"sampler":0,"source":0,"name":"3.png"},{"sampler":1,"source":1,"name":"4.png"},{"sampler":2,"source":2,"name":"Iron rod"}],"samplers":[{"magFilter":9728,"minFilter":9728,"wrapS":33071,"wrapT":33071},{"magFilter":9728,"minFilter":9728,"wrapS":33071,"wrapT":33071},{"magFilter":9728,"minFilter":9728,"wrapS":33071,"wrapT":33071}],"images":[{"mimeType":"image/png","uri":"data:image/png;base64,"},{"mimeType":"image/png","uri":"data:image/png;base64,"},{"mimeType":"image/png","uri":"data:image/png;base64,"}],"meshes":[{"primitives":[{"mode":4,"attributes":{"POSITION":0,"NORMAL":1,"TEXCOORD_0":2,"JOINTS_0":3,"WEIGHTS_0":4},"indices":5,"material":0},{"mode":4,"attributes":{"POSITION":0,"NORMAL":1,"TEXCOORD_0":2,"JOINTS_0":3,"WEIGHTS_0":4},"indices":6,"material":1},{"mode":4,"attributes":{"POSITION":0,"NORMAL":1,"TEXCOORD_0":2,"JOINTS_0":3,"WEIGHTS_0":4},"indices":7,"material":2},{"mode":4,"attributes":{"POSITION":0,"NORMAL":1,"TEXCOORD_0":2,"JOINTS_0":3,"WEIGHTS_0":4},"indices":8,"material":1},{"mode":4,"attributes":{"POSITION":0,"NORMAL":1,"TEXCOORD_0":2,"JOINTS_0":3,"WEIGHTS_0":4},"indices":9,"material":2},{"mode":4,"attributes":{"POSITION":0,"NORMAL":1,"TEXCOORD_0":2,"JOINTS_0":3,"WEIGHTS_0":4},"indices":10,"material":1}]}],"skins":[{"inverseBindMatrices":11,"joints":[6,0,2,1,3,4,5],"skeleton":6}]}