{"asset":{"version":"2.0","generator":"Blockbench 5.0.3 glTF exporter"},"scenes":[{"nodes":[7],"name":"blockbench_export"}],"scene":0,"nodes":[{"translation":[0.39375,0.0875,0],"name":"cube","mesh":0},{"translation":[0.343785,0.053825,0.102435],"name":"cuboid","mesh":1},{"translation":[0.349379375,0.20221,0.101525625],"name":"pyramid","mesh":2},{"name":"Sign","children":[0,1,2]},{"name":"Base","mesh":3},{"translation":[0,0.1,0],"name":"Base","mesh":4},{"name":"group","children":[3,4,5]},{"name":"Main Building","children":[6]}],"bufferViews":[{"buffer":0,"byteOffset":0,"byteLength":288,"target":34962,"byteStride":12},{"buffer":0,"byteOffset":288,"byteLength":288,"target":34962,"byteStride":12},{"buffer":0,"byteOffset":576,"byteLength":192,"target":34962,"byteStride":8},{"buffer":0,"byteOffset":768,"byteLength":72,"target":34963},{"buffer":0,"byteOffset":840,"byteLength":1248,"target":34962,"byteStride":12},{"buffer":0,"byteOffset":2088,"byteLength":1248,"target":34962,"byteStride":12},{"buffer":0,"byteOffset":3336,"byteLength":832,"target":34962,"byteStride":8},{"buffer":0,"byteOffset":4168,"byteLength":312,"target":34963},{"buffer":0,"byteOffset":4480,"byteLength":192,"target":34962,"byteStride":12},{"buffer":0,"byteOffset":4672,"byteLength":192,"target":34962,"byteStride":12},{"buffer":0,"byteOffset":4864,"byteLength":128,"target":34962,"byteStride":8},{"buffer":0,"byteOffset":4992,"byteLength":36,"target":34963},{"buffer":0,"byteOffset":5028,"byteLength":288,"target":34962,"byteStride":12},{"buffer":0,"byteOffset":5316,"byteLength":288,"target":34962,"byteStride":12},{"buffer":0,"byteOffset":5604,"byteLength":192,"target":34962,"byteStride":8},{"buffer":0,"byteOffset":5796,"byteLength":72,"target":34963},{"buffer":0,"byteOffset":5868,"byteLength":288,"target":34962,"byteStride":12},{"buffer":0,"byteOffset":6156,"byteLength":288,"target":34962,"byteStride":12},{"buffer":0,"byteOffset":6444,"byteLength":192,"target":34962,"byteStride":8},{"buffer":0,"byteOffset":6636,"byteLength":72,"target":34963}],"buffers":[{"byteLength":6708,"uri":"data:application/octet-stream;base64,"}],"accessors":[{"bufferView":0,"componentType":5126,"count":24,"max":[-0.05000000074505806,0.125,0.11874999850988388],"min":[-0.0625,0.02500000037252903,-0.11874999850988388],"type":"VEC3"},{"bufferView":1,"componentType":5126,"count":24,"max":[1,1,1],"min":[-1,-1,-1],"type":"VEC3"},{"bufferView":2,"componentType":5126,"count":24,"max":[0.57421875,0.73828125],"min":[0,0],"type":"VEC2"},{"bufferView":3,"componentType":5123,"count":36,"max":[23],"min":[0],"type":"SCALAR"},{"bufferView":4,"componentType":5126,"count":104,"max":[0.003727500094100833,0.18637500703334808,0.04473000019788742],"min":[-0.003727500094100833,0.10809750109910965,-0.10109250247478485],"type":"VEC3"},{"bufferView":5,"componentType":5126,"count":104,"max":[1,1,0.8944271802902222],"min":[-1,-1,-1],"type":"VEC3"},{"bufferView":6,"componentType":5126,"count":104,"max":[0.5806000232696533,0.69140625],"min":[0,0],"type":"VEC2"},{"bufferView":7,"componentType":5123,"count":156,"max":[103],"min":[0],"type":"SCALAR"},{"bufferView":8,"componentType":5126,"count":16,"max":[0,0.038186248391866684,0.04755937680602074],"min":[0,-0.0031262501142919064,-0.04755937680602074],"type":"VEC3"},{"bufferView":9,"componentType":5126,"count":16,"max":[1,0,0],"min":[-1,0,0],"type":"VEC3"},{"bufferView":10,"componentType":5126,"count":16,"max":[0.3855625092983246,0.6652500033378601],"min":[0,0],"type":"VEC2"},{"bufferView":11,"componentType":5123,"count":18,"max":[15],"min":[0],"type":"SCALAR"},{"bufferView":12,"componentType":5126,"count":24,"max":[0.3375000059604645,0.1875,0.4437499940395355],"min":[-0.3125,0.0625,-0.48124998807907104],"type":"VEC3"},{"bufferView":13,"componentType":5126,"count":24,"max":[1,1,1],"min":[-1,-1,-1],"type":"VEC3"},{"bufferView":14,"componentType":5126,"count":24,"max":[0.4658203125,0.5283203125],"min":[0,0],"type":"VEC2"},{"bufferView":15,"componentType":5123,"count":36,"max":[23],"min":[0],"type":"SCALAR"},{"bufferView":16,"componentType":5126,"count":24,"max":[0.3375000059604645,0.15625,0.15625],"min":[0.3062500059604645,0.08749999850988388,-0.15625],"type":"VEC3"},{"bufferView":17,"componentType":5126,"count":24,"max":[1,1,1],"min":[-1,-1,-1],"type":"VEC3"},{"bufferView":18,"componentType":5126,"count":24,"max":[0.40625,0.40625],"min":[0,0],"type":"VEC2"},{"bufferView":19,"componentType":5123,"count":36,"max":[23],"min":[0],"type":"SCALAR"}],"materials":[{"pbrMetallicRoughness":{"metallicFactor":0,"roughnessFactor":1,"baseColorTexture":{"index":0}},"alphaMode":"MASK","alphaCutoff":0.05,"doubleSided":true},{"pbrMetallicRoughness":{"metallicFactor":0,"roughnessFactor":1,"baseColorTexture":{"index":1}},"alphaMode":"MASK","alphaCutoff":0.05,"doubleSided":true},{"pbrMetallicRoughness":{"metallicFactor":0,"roughnessFactor":1,"baseColorTexture":{"index":2}},"alphaMode":"MASK","alphaCutoff":0.05,"doubleSided":true}],"textures":[{"sampler":0,"source":0,"name":"Sign skiun.png"},{"sampler":1,"source":1,"name":"Buiss.png"},{"sampler":2,"source":2,"name":"Upper floor.png"}],"samplers":[{"magFilter":9728,"minFilter":9728,"wrapS":33071,"wrapT":33071},{"magFilter":9728,"minFilter":9728,"wrapS":33071,"wrapT":33071},{"magFilter":9728,"minFilter":9728,"wrapS":33071,"wrapT":33071}],"images":[{"mimeType":"image/png","uri":"data:image/png;base64,"},{"mimeType":"image/png","uri":"data:image/png;base64,"},{"mimeType":"image/png","uri":"data:image/png;base64,"}],"meshes":[{"primitives":[{"mode":4,"attributes":{"POSITION":0,"NORMAL":1,"TEXCOORD_0":2},"indices":3,"material":0}]},{"primitives":[{"mode":4,"attributes":{"POSITION":4,"NORMAL":5,"TEXCOORD_0":6},"indices":7,"material":0}]},{"primitives":[{"mode":4,"attributes":{"POSITION":8,"NORMAL":9,"TEXCOORD_0":10},"indices":11,"material":1}]},{"primitives":[{"mode":4,"attributes":{"POSITION":12,"NORMAL":13,"TEXCOORD_0":14},"indices":15,"material":2}]},{"primitives":[{"mode":4,"attributes":{"POSITION":16,"NORMAL":17,"TEXCOORD_0":18},"indices":19,"material":2}]}]}