{"asset":{"version":"2.0","generator":"Blockbench 5.0.4 glTF exporter"},"scenes":[{"nodes":[4],"name":"blockbench_export"}],"scene":0,"nodes":[{"name":"tube","mesh":0},{"name":"tube","mesh":1},{"rotation":[0,0.374606593415912,0,0.9271838545667874],"translation":[-0.220625,0,0.0661875],"name":"cube","mesh":2},{"rotation":[0,0.5664062369248328,0,0.8241261886220157],"translation":[-0.25225,0,0.2426875],"name":"cube","mesh":3},{"name":"Tape","children":[0,1,2,3]}],"bufferViews":[{"buffer":0,"byteOffset":0,"byteLength":2304,"target":34962,"byteStride":12},{"buffer":0,"byteOffset":2304,"byteLength":2304,"target":34962,"byteStride":12},{"buffer":0,"byteOffset":4608,"byteLength":1536,"target":34962,"byteStride":8},{"buffer":0,"byteOffset":6144,"byteLength":576,"target":34963},{"buffer":0,"byteOffset":6720,"byteLength":2304,"target":34962,"byteStride":12},{"buffer":0,"byteOffset":9024,"byteLength":2304,"target":34962,"byteStride":12},{"buffer":0,"byteOffset":11328,"byteLength":1536,"target":34962,"byteStride":8},{"buffer":0,"byteOffset":12864,"byteLength":576,"target":34963},{"buffer":0,"byteOffset":13440,"byteLength":288,"target":34962,"byteStride":12},{"buffer":0,"byteOffset":13728,"byteLength":288,"target":34962,"byteStride":12},{"buffer":0,"byteOffset":14016,"byteLength":192,"target":34962,"byteStride":8},{"buffer":0,"byteOffset":14208,"byteLength":72,"target":34963},{"buffer":0,"byteOffset":14280,"byteLength":288,"target":34962,"byteStride":12},{"buffer":0,"byteOffset":14568,"byteLength":288,"target":34962,"byteStride":12},{"buffer":0,"byteOffset":14856,"byteLength":192,"target":34962,"byteStride":8},{"buffer":0,"byteOffset":15048,"byteLength":72,"target":34963}],"buffers":[{"byteLength":15120,"uri":"data:application/octet-stream;base64,"}],"accessors":[{"bufferView":0,"componentType":5126,"count":192,"max":[0.0706000030040741,0.0706000030040741,0.0706000030040741],"min":[-0.0706000030040741,0,-0.0706000030040741],"type":"VEC3"},{"bufferView":1,"componentType":5126,"count":192,"max":[1,1,1],"min":[-1,-1,-1],"type":"VEC3"},{"bufferView":2,"componentType":5126,"count":192,"max":[0.5528500080108643,0.6331000328063965],"min":[0.002306249924004078,0],"type":"VEC2"},{"bufferView":3,"componentType":5123,"count":288,"max":[191],"min":[0],"type":"SCALAR"},{"bufferView":4,"componentType":5126,"count":192,"max":[0.11384250223636627,0.06971749663352966,0.11384250223636627],"min":[-0.11384250223636627,0,-0.11384250223636627],"type":"VEC3"},{"bufferView":5,"componentType":5126,"count":192,"max":[1,1,1],"min":[-1,-1,-1],"type":"VEC3"},{"bufferView":6,"componentType":5126,"count":192,"max":[0.747768759727478,0.6322187185287476],"min":[0.003343750024214387,0],"type":"VEC2"},{"bufferView":7,"componentType":5123,"count":288,"max":[191],"min":[0],"type":"SCALAR"},{"bufferView":8,"componentType":5126,"count":24,"max":[0.19856250286102295,0.06618750095367432,0.22068749368190765],"min":[0.11031249910593033,0,0.22062499821186066],"type":"VEC3"},{"bufferView":9,"componentType":5126,"count":24,"max":[1,1,1],"min":[-1,-1,-1],"type":"VEC3"},{"bufferView":10,"componentType":5126,"count":24,"max":[0.8359375,0.8125],"min":[0,0.1875],"type":"VEC2"},{"bufferView":11,"componentType":5123,"count":36,"max":[23],"min":[0],"type":"SCALAR"},{"bufferView":12,"componentType":5126,"count":24,"max":[0.19856250286102295,0.06618750095367432,0.22068749368190765],"min":[0.1132500022649765,0,0.22062499821186066],"type":"VEC3"},{"bufferView":13,"componentType":5126,"count":24,"max":[1,1,1],"min":[-1,-1,-1],"type":"VEC3"},{"bufferView":14,"componentType":5126,"count":24,"max":[0.859375,0.8125],"min":[0,0.25],"type":"VEC2"},{"bufferView":15,"componentType":5123,"count":36,"max":[23],"min":[0],"type":"SCALAR"}],"materials":[{"pbrMetallicRoughness":{"metallicFactor":0,"roughnessFactor":1,"baseColorTexture":{"index":0}},"alphaMode":"MASK","alphaCutoff":0.05,"doubleSided":true},{"pbrMetallicRoughness":{"metallicFactor":0,"roughnessFactor":1,"baseColorTexture":{"index":1}},"alphaMode":"MASK","alphaCutoff":0.05,"doubleSided":true}],"textures":[{"sampler":0,"source":0,"name":"Inside"},{"sampler":1,"source":1,"name":"Outside tape"}],"samplers":[{"magFilter":9728,"minFilter":9728,"wrapS":33071,"wrapT":33071},{"magFilter":9728,"minFilter":9728,"wrapS":33071,"wrapT":33071}],"images":[{"mimeType":"image/png","uri":"data:image/png;base64,"},{"mimeType":"image/png","uri":"data:image/png;base64,"}],"meshes":[{"primitives":[{"mode":4,"attributes":{"POSITION":0,"NORMAL":1,"TEXCOORD_0":2},"indices":3,"material":0}]},{"primitives":[{"mode":4,"attributes":{"POSITION":4,"NORMAL":5,"TEXCOORD_0":6},"indices":7,"material":1}]},{"primitives":[{"mode":4,"attributes":{"POSITION":8,"NORMAL":9,"TEXCOORD_0":10},"indices":11,"material":1}]},{"primitives":[{"mode":4,"attributes":{"POSITION":12,"NORMAL":13,"TEXCOORD_0":14},"indices":15,"material":1}]}]}